/* XPM */
static const char *texture[] = {
/* columns rows colors chars-per-pixel */
"43 64 204 2 ",
"   c #060606",
".  c #0B0B0C",
"X  c #0B0907",
"o  c #120E0B",
"O  c #17110D",
"+  c #1A130F",
"@  c #0E0E11",
"#  c #0E1012",
"$  c #131315",
"%  c #1E1611",
"&  c #1D1814",
"*  c #15161A",
"=  c #17181C",
"-  c #1B1B1D",
";  c #191719",
":  c #241A14",
">  c #2A1E16",
",  c #241E1A",
"<  c #291F1A",
"1  c #25211E",
"2  c #2C221B",
"3  c #32251C",
"4  c #37281E",
"5  c #3A2A1E",
"6  c #1C1E22",
"7  c #1F2025",
"8  c #1F2229",
"9  c #232325",
"0  c #2C2522",
"q  c #2D2926",
"w  c #24252A",
"e  c #28272A",
"r  c #26292E",
"t  c #2A2A2C",
"y  c #342A23",
"u  c #3B2D24",
"i  c #332E2A",
"p  c #3A2F28",
"a  c #302721",
"s  c #3E3026",
"d  c #35302C",
"f  c #3C332B",
"g  c #373027",
"h  c #232731",
"j  c #262A32",
"k  c #2B2D33",
"l  c #2B2F38",
"z  c #302F34",
"x  c #2E3036",
"c  c #2E313A",
"v  c #323335",
"b  c #3D3632",
"n  c #33353C",
"m  c #36383E",
"M  c #3B3A3C",
"N  c #3C3837",
"B  c #402F23",
"V  c #433226",
"C  c #43352B",
"Z  c #493629",
"A  c #45382E",
"S  c #4C3A2D",
"D  c #503D2F",
"F  c #443A33",
"G  c #4B3D34",
"H  c #453C39",
"J  c #4A3E39",
"K  c #513E31",
"L  c #4E4035",
"P  c #4D433B",
"I  c #474139",
"U  c #544234",
"Y  c #584436",
"T  c #53463B",
"R  c #594639",
"E  c #56493E",
"W  c #5C4A3C",
"Q  c #5F513F",
"!  c #634C3C",
"~  c #323741",
"^  c #363942",
"/  c #3A3C43",
"(  c #393E4C",
")  c #363B48",
"_  c #3D4047",
"`  c #3E424B",
"'  c #3D4352",
"]  c #424244",
"[  c #41444B",
"{  c #45484F",
"}  c #4B4647",
"|  c #554B43",
" . c #5B4D44",
".. c #554944",
"X. c #5C524B",
"o. c #464A53",
"O. c #4A4D54",
"+. c #464B5A",
"@. c #494E5C",
"#. c #404655",
"$. c #4E525B",
"%. c #51545D",
"&. c #5A5653",
"*. c #624E41",
"=. c #645245",
"-. c #63554C",
";. c #69574A",
":. c #655B4E",
">. c #6B5A4C",
",. c #735D4F",
"<. c #635A53",
"1. c #6B5C54",
"2. c #665D58",
"3. c #6B5D59",
"4. c #675651",
"5. c #705E51",
"6. c #715550",
"7. c #6D6155",
"8. c #6B635B",
"9. c #726254",
"0. c #74665B",
"q. c #7B6A5E",
"w. c #7A6756",
"e. c #4C5261",
"r. c #525662",
"t. c #565963",
"y. c #595D66",
"u. c #565C6C",
"i. c #5A5E6B",
"p. c #5D626D",
"a. c #57616F",
"s. c #5D6372",
"d. c #60636E",
"f. c #676566",
"g. c #726760",
"h. c #746B64",
"j. c #7C6D64",
"k. c #7E6D69",
"l. c #77716B",
"z. c #7E726A",
"x. c #777061",
"c. c #626672",
"v. c #656975",
"b. c #656B7A",
"n. c #696E7B",
"m. c #6A6D77",
"M. c #6C707B",
"N. c #7C7978",
"B. c #81735F",
"V. c #836F61",
"C. c #847464",
"Z. c #84766B",
"A. c #84796B",
"S. c #8C7868",
"D. c #857E79",
"F. c #877C74",
"G. c #917C71",
"H. c #888179",
"J. c #928374",
"K. c #9E8D74",
"L. c #93847B",
"P. c #998579",
"I. c #98847A",
"U. c #97856A",
"Y. c #A28B7E",
"T. c #A08D73",
"R. c #A6947A",
"E. c #6A7482",
"W. c #888687",
"Q. c #918A85",
"!. c #968B85",
"~. c #9C918B",
"^. c #999383",
"/. c #8B8C90",
"(. c #9C9895",
"). c #A18F85",
"_. c #A49B88",
"`. c #A59583",
"'. c #AD9D95",
"]. c #A69D98",
"[. c #A9A19D",
"{. c #A5A198",
"}. c #BAAA9A",
"|. c #BDB29C",
" X c #979FA7",
".X c #A8A3A1",
"XX c #A6A6AA",
"oX c #AAADB3",
"OX c #BCBBBB",
"+X c #BAB6B5",
"@X c #B6B3A1",
"#X c #C1AA9C",
"$X c #C2B49D",
"%X c #CBB5A9",
"&X c #C9C0AD",
"*X c #CFC9B6",
"=X c #CCCBCD",
"-X c #C7C6C4",
";X c #D6D4CF",
":X c #F2ECD6",
">X c #E4E4E5",
",X c #F5F2E1",
"<X c #F9FAFB",
"1X c None",
/* pixels */
"1X1X1X1X1X1X1X1X1X1X1X1X1X1X1X1X1X1X1X1X1X1X1X1X1X1X1X1X1X1X1X1X1X1X1X1X1X1X1X1X1X1X1X",
"1X1X1X1X1X1X1X1X1X1X1X1X1X1X1X1X1X1X1X1X1X1X1X1X1X1X1X1X1X1X1X1X1X1X1X1X1X1X1X1X1X1X1X",
"1X1X1X1X1X1X1X1X1X1X1X1X1X1X1X1X1X1X1X1XOX.XW.H.1X1X1X1X1X1X1X1X1X1X1X1X1X1X1X1X1X1X1X",
"1X1X1X1X1X1X1X1X1X1X1X1X1X1X1X1X1X1X>XOX{.D.&.f.{.1X1X1X1X1X1X1X1X1X1X1X1X1X1X1X1X1X1X",
"1X1X1X1X1X1X1X1X1X1X1X1X1X1X1X1X1X1X-X(.l.| H &.Q.[.1X1X1X1X1X1X1X1X1X1X1X1X1X1X1X1X1X",
"1X1X1X1X1X1X1X1X1X1X1X1X1X1X1X1X1X=X+X!.<.P P F 2.].1X1X1X1X1X1X1X1X1X1X1X1X1X1X1X1X1X",
"1X1X1X1X1X1X1X1X1X1X1X1X1X1X1X1X1XOX+XQ.<.1.`.X.2.'.1X1X1X1X1X1X1X1X1X1X1X1X1X1X1X1X1X",
"1X1X1X1X1X1X1X1X1X1X1X1X1X1X1X1X1XXX.XQ.9.P.%XZ.0.).1X1X1X1X1X1X1X1X1X1X1X1X1X1X1X1X1X",
"1X1X1X1X1X1X1X1X1X1X1X1X1X1X1X1X1XW.D.z. .q.G. . .q.1X1X1X1X1X1X1X1X1X1X1X1X1X1X1X1X1X",
"1X1X1X1X1X1X1X1X1X1X1X1X1X1X1X1X1X1X2...u g.G.;.=.5.1X1X1X1X1X1X1X1X1X1X1X1X1X1X1X1X1X",
"1X1X1X1X1X1X1X1X1X1X1X1X1X1X1X1X1X1XX.y R ~.%X#XY.P.1X1X1X1X1X1X1X1X1X1X1X1X1X1X1X1X1X",
"1X1X1X1X1X1X1X1X1X1X1X1X1X1X1X1X1X-X8.2 -.3.P.}.Y._.*X1X1X1X1X1X1X1X1X1X1X1X1X1X1X1X1X",
"1X1X1X1X1X1X1X1X1X1X1X1X1X1X1X1X1X@X:.0 ..1.S.Y.V.f ^.,X1X1X1X1X1X1X1X1X1X1X1X1X1X1X1X",
"1X1X1X1X1X1X1X1X1X1X1X1X1X1X1X1X1XH.}.b H j.I.S.-., {.:X1X1X1X1X1X1X1X1X1X1X1X1X1X1X1X",
"1X1X1X1X1X1X1X1X1X1X1X1X1X1X1X1X1XH `.P , &.1.b 9 0 _.*X1X1X1X1X1X1X1X1X1X1X1X1X1X1X1X",
"1X1X1X1X1X1X1X1X1X1X1X1X1X[.~.D.8.g T A   X $ ; $ d 7.9.I.'.1X1X1X1X1X1X1X1X1X1X1X1X1X",
"1X1X1X1X1X1X1X1X1X1X1X~.L.F.Z.8.<.b 0 f . $ - - @ f P G 9.C.!.'.1X1X1X1X1X1X1X1X1X1X1X",
"1X1X1X1X1X1X1X1X1X1X~.I.j.C.Z.h.2.| q f 9 9 z w * g G S ;.5.V.S.J.1X1X1X1X1X1X1X1X1X1X",
"1X1X1X1X1X1X1X1X1X1Xz.C.-.9.q.0.2.| g F v m / ^ w d Y R >.;.=.;.C.G.1X1X1X1X1X1X1X1X1X",
"1X1X1X1X1X1X1X1X1X2.-. . .>.w.q.7.| F F v o.$.O.l i ! ,.w.>.9.R ,.>.1X1X1X1X1X1X1X1X1X",
"1X1X1X1X1X1X1X1X1XX.| p y C G G G f y i ^ %.i.d.o.i U =.W =.w.R Y S  .1X1X1X1X1X1X1X1X",
"1X1X1X1X1X1X1X1X1XX.G 2 % 3 C F E T C d _ r.c.m.y.v Y W A u 5 V 4 5 Y 1X1X1X1X1X1X1X1X",
"1X1X1X1X1X1X1X1X1X..G 3 % 0 f F E E G b / %.c.M.p.N R W U A 4 : % 3 A 1X1X1X1X1X1X1X1X",
"1X1X1X1X1X1X1X1X8.| E C : 2 u F G A A f m O.r.i.%.b U U S S 5 : O > V 1X1X1X1X1X1X1X1X",
"1X1X1X1X1X1X1X1XX...T C : , p C C C A f k ^ / _ n i S S V Z V + O : u 1X1X1X1X1X1X1X1X",
"1X1X1X1X1X1X1X1XP F C y % 1 C f u C P F w n / m w i A Z Z Z S : + 2 3 A 1X1X1X1X1X1X1X",
"1X1X1X1X1X1X1X1XP F C u O 2 F f u F T F t m [ [ r i U K Z V U 2 O 2 5 Z 1X1X1X1X1X1X1X",
"1X1X1X1X1X1X1X<.X.| Y C O 2 g u f G T C e n ^ ^ w d R R S V S s O : 3 Z 1X1X1X1X1X1X1X",
"1X1X1X1X1X1X1X<.8.7.W V O , a u C G G g 9 r z k = d R R Z B V u : : 2 Z 1X1X1X1X1X1X1X",
"1X1X1X1X1X1X1X<.1.:.Y 4 o & 2 y f C F F 9 r n k $ d U K A V u 2 % % 4 S 1X1X1X1X1X1X1X",
"1X1X1X1X1X1X1X<.E A s > o O : p J P F f 9 k ^ n * i R U *.*.K 2 o + 2 u =.1X1X1X1X1X1X",
"1X1X1X1X1X1Xh.g.X.A 3 : o o 2 J ..T C p 9 k ^ n * t W W R W ! Z o o % 2 G 1X1X1X1X1X1X",
"1X1X1X1X1X1Xg.1.T s 2 : $ $ f | ..F u f 9 k ^ c = 9 U W W R W Z X X : u Z 1X1X1X1X1X1X",
"1X1X1X1X1X1Xh.0.9.=.C 2 1 , F F T T T P e k / ^ 6 9 U Y U V S U o o : 2 Z 1X1X1X1X1X1X",
"1X1X1X1X1X1Xj.q.0.;.s a q 0 f C G ..| I e m o.[ 8 7 G Y S u 5 Z + o % u Y 1X1X1X1X1X1X",
"1X1X1X1X1XH.Z.j.9.W 3 i 0 2 g F C L P f w m O.o.h 6 G R U S Z u % & p A u 1X1X1X1X1X1X",
"1X1X1X1X1Xz.j.9.;.V , 1X$ & y F C G T b 9 n [ o.l = I U U D Z V : O 3 u S =.1X1X1X1X1X",
"1X1X1X1X1Xg.0.9.;.s p 1X; O 0 F C C L b 6 k / [ r * b S V u 5 5 : o > s Z U 1X1X1X1X1X",
"1X1X1X1Xl.0.0.>.S 3 1X1Xt 1 p f p u C P t r n _ j 6 } W U L R ;.q.i : u Z W 1X1X1X1X1X",
"1X1X1X1XD.F.q.>.V 2 1X1X| x.A.A.J.J.J.X.t w j n w * H S.K.K.R.R.K.g : s K =.1X1X1X1X1X",
"1X1X1X1XL.C.9.G > 1X1X1XF I P P P P T q - 9 e v r * ; g F f a 2 I o % s S W 1X1X1X1X1X",
"1X1X1XF.A.9.=.V 2 1X1X1X1X1X= . . @ ; 9 t m [ [ ^ k j v v m k $ 1Xo O 3 S Y 1X1X1X1X1X",
"1X1X1XQ.z.-.U 4 1X1X1X1X1X1X6 6 w j n m n ^ [ [ [ o.O.O.%.%.O.w 1X& + y K R 1X1X1X1X1X",
"1X1X;X&X|.`.;.3 1X1X1X1X1XM 7 j n ^ / / / / [ _ o.%.%.%.%.t.%.[ 1X$ + a A Y 1X1X1X1X1X",
"1X1XX.| :.S.U.C.1X1X1X1X1Xv 8 l c ~ ^ m m n / ^ [ O.$.y.d.y.$.O.1X1X$ y S ! J.1X1X1X1X",
"1X1Xm +.t o u C.1X1X1X1X1Xn 8 c ^ / ^ n c k / ^ ^ [ t.p.c.c.t.O.1Xb C Q w.T.$X1X1X1X1X",
"1X1XE.a./ $ & 1X1X1X1X1X; t 8 l ^ ` { m t r ^ m c / [ %.p.c.c.r.1X1Xy f S =.1X1X1X1X1X",
"1X XE.u.{ 9 1X1X1X1X1X1X; 9 6 l ~ / _ / r 6 6 6 w l O.p.p.p.c.p.%.1X; t - - 1X1X1X1X1X",
"1XoX/.{ O.9 1X1X1X1X1X1X- 9 6 j l n m x 9 $ @ . 6 ~ $.s.b.n.v.i.$.6 9 ] t 9 1X1X1X1X1X",
"1XXXf.e { - 1X1X1X1X1X1X9 6 6 j ~ / ^ v 9 X   . w ) e.p.v.c.p.t.O.$ = 9 9 9 1X1X1X1X1X",
"1X=X} 0 k.q 1X1X1X1X1X1X- = 6 r c n m m 9     . h ` u.b.M.b.p.y.O.- 9 $ 9 9 1X1X1X1X1X",
"1XOXM , 6.H 1X1X1X1X1X1X; $ 6 w x m m k ;   X 6 j ( r.s.n.v.c.t.%.-.} $ ; w 1X1X1X1X1X",
"<XoXv < 6.3.1X1X1X1X1X= $ $ = 8 k j j r $   $ 8 h #.u.b.n.v.p.%.r.3.0 . - 1X1X1X1X1X1X",
">X/.v 1X1X1X1X1X1X1X1X= $ * = 8 j x k 9 $   1X1Xh ( u.n.M.v.d.$._ } 1X1X1X1X1X1X1X1X1X",
";Xv.i 1X1X1X1X1X1X1X1X= $ * = w x n k 9 $ X 1X1Xc #.s.b.n.c.p.%.o.m 1X1X1X1X1X1X1X1X1X",
"-XO.1X1X1X1X1X1X1X1X1X* $ = 6 6 w j r - # X 1X1Xj @.s.b.n.c.p.r.%.1X1X1X1X1X1X1X1X1X1X",
"XX] 1X1X1X1X1X1X1X1Xt * @ $ * = 6 w 7 ; . . 1X1X8 ( u.v.b.c.p.$.$.1X1X1X1X1X1X1X1X1X1X",
"E.x 1X1X1X1X1X1X1X1X$ @ . @ @ * 9 w 9 6 . . 1X1Xj ) @.u.c.c.p.$.O.1X1X1X1X1X1X1X1X1X1X",
"%.v 1X1X1X1X1X1X1X1X$ . . $ * 6 t k t 7 X . 1X1Xl ' e.u.c.p.y.O.O.O.1X1X1X1X1X1X1X1X1X",
"M v 1X1X1X1X1X1X1X1X= # . $ * 6 k x v 9 X $ 1X1Xj ~ e.s.c.p.y.O.o.[ 1X1X1X1X1X1X1X1X1X",
"v 1X1X1X1X1X1X1X1X1X1X$ @ = 9 7 6 w w = X $ 1X1Xl ~ +.s.s.p.i.$._ m 1X1X1X1X1X1X1X1X1X",
"1X1X1X1X1X1X1X1X1X1X1X. @ * = 6 = 6 = $ X $ 1X1X^ ' #.r.t.i.r.[ k n 1X1X1X1X1X1X1X1X1X",
"1X1X1X1X1X1X1X1X1X1X1X1X* $ $ * - 6 9 $ X 1X1X1Xc ' @.r.t.t.O.n - 1X1X1X1X1X1X1X1X1X1X",
"1X1X1X1X1X1X1X1X1X1X1X1X1X= * 6 9 w w $ . 1X1X1Xl ^ +.e.t.r.o.n w 1X1X1X1X1X1X1X1X1X1X"
};
