/* XPM */
static char *_8a8ae8e5daa464e8f7d10f04e3706c0ovxKXW7NuBOpvxGn[] = {
/* columns rows colors chars-per-pixel */
"64 64 127 2 ",
"   c #080708",
".  c #060809",
"X  c #0D0D0D",
"o  c #0F110F",
"O  c #11110F",
"+  c #0E0F10",
"@  c #0F1010",
"#  c #141413",
"$  c #181714",
"%  c #171817",
"&  c #1A1916",
"*  c #161718",
"=  c #171918",
"-  c #1D1C1A",
";  c #201F1B",
":  c #1F201B",
">  c #23221D",
",  c #29261E",
"<  c #2D291F",
"1  c #262521",
"2  c #292621",
"3  c #2C2A23",
"4  c #2F2D28",
"5  c #312E25",
"6  c #312F29",
"7  c #343127",
"8  c #383327",
"9  c #353229",
"0  c #3A362B",
"q  c #3D392E",
"w  c #383630",
"e  c #3E3A30",
"r  c #413C2E",
"t  c #433D31",
"y  c #47412F",
"u  c #464133",
"i  c #4B4435",
"p  c #4F4837",
"a  c #474338",
"s  c #4C4639",
"d  c #4F4839",
"f  c #504735",
"g  c #524937",
"h  c #514739",
"j  c #534B3B",
"k  c #594E3C",
"l  c #57503E",
"z  c #5B513E",
"x  c #60563F",
"c  c #564F40",
"v  c #575040",
"b  c #5C5342",
"n  c #615642",
"m  c #645A45",
"M  c #695D46",
"N  c #655C49",
"B  c #695E49",
"V  c #6C6047",
"C  c #6D624B",
"Z  c #72654D",
"A  c #75694E",
"S  c #7A6B4E",
"D  c #736651",
"F  c #766A52",
"G  c #796C54",
"H  c #7A6D54",
"J  c #7B6D54",
"K  c #7C6C54",
"L  c #7A6F59",
"P  c #7E7053",
"I  c #7C7055",
"U  c #7E7159",
"Y  c #7F7459",
"T  c #817253",
"R  c #817257",
"E  c #827357",
"W  c #817457",
"Q  c #887656",
"!  c #877857",
"~  c #837659",
"^  c #81745B",
"/  c #83745A",
"(  c #86775B",
")  c #84775F",
"_  c #87795B",
"`  c #87795D",
"'  c #8A785A",
"]  c #88785D",
"[  c #8B7B5F",
"{  c #8B7D5E",
"}  c #8C7D5E",
"|  c #877A60",
" . c #897B61",
".. c #8A7C60",
"X. c #8C7D61",
"o. c #8E7C60",
"O. c #907E62",
"+. c #8B8062",
"@. c #8F8164",
"#. c #8F8065",
"$. c #908061",
"%. c #928265",
"&. c #948164",
"*. c #968667",
"=. c #988867",
"-. c #948569",
";. c #998768",
":. c #97886C",
">. c #9B8A6B",
",. c #9B8B6D",
"<. c #9C8A6C",
"1. c #9D8D6C",
"2. c #9C8D71",
"3. c #9F9174",
"4. c #A08F71",
"5. c #A49474",
"6. c #A99775",
"7. c #AA9875",
"8. c #A29478",
"9. c #A7987B",
"0. c #A99979",
"q. c #AA9A7A",
"w. c #AF9F7C",
"e. c #B19F7F",
"r. c #B5A483",
"t. c #B8A884",
"y. c #C0AF8C",
/* pixels */
"z i n B i t o.z M B r r t g V I 0.C g ` M b s S Z B n Z i k Z i i p H C u m H B g  .,.U k ] Z g $.>.H / K K A Z r ) ..b t d , 7 ",
"t b n m n i z B C m 0 0 q K K C ( o.e B H m F R n Z H K B 8 0 i i o.A K A r z q m S Z &.u q g 5 m >.] K Z Z F b q / m u m i > g ",
"t b n m n i z B C m 0 0 q K K C ( o.e B H m F R n Z H K B 8 0 i i o.A K A r z q m S Z &.u q g 5 m >.] K Z A F b q / n u m i > g ",
"q z g g ' H r Z F k 5 5 z K Z S n D *.i v i e C n i n m r ; k j j M I C A i q u S H Z B 0 z k 8 F { $.` _ _ k +.Y < u b b 0 > z ",
"u z r m K ( k C b - # # 8 Z _ %.z I T H q 8 s N B c u q - g ` B B u H S M q X X > z S p m ( C k =.} { W S S H w.S q u m 0 - X 9 ",
"g g i C M W C , $ X & & : & z V #._ F H n N ,./ $.1./ n i ] M H H A k b > X X & # # 8 v *.P K M W } } Z B B e.] m Z i 5 - # # # ",
"g g i C M W C , $ X & & : & z V #._ F H n N ,./ $.1./ n i ] M H H A k b > X X & # # 8 v *.P K M W } } Z B B e.] m Z i 5 - # # # ",
"k z H n C H k X X # O o - # X 8 o.H / K z 0 C A ! P A q u K Z U U H i . X O X # & #   r $.Z Z S Z $.#.m b b 1.H m m k X X # # & ",
"8 0 u H } k O # & & # # > 3 > X g #.H g C Z B #.( Z n m b i H / / n $ # & - & & > > - . n >.K u q / Z g u u m I F C - X & - - 3 ",
"8 0 u H } k O # & & # # > 3 > X g #.H g C Z B #.( Z n m b i H / / n $ # & - & & > > - . n >.K u q / Z g u u m I F C - X & - - 3 ",
"u B p i B >   # - & # # & 1 1 # # k C H _ ( n b t i k 4.o.z q B B 3 . - > > - & > ; > # % C m q C C g / >.>.j y g 5 X & & & & 4 ",
"v ' P k $ X X & - > & & & - & X # X L ' C H V q j 0 C 5./ ..B 3 3 X X > 3 3 > & & ; - # # & C ] / n k >.o.o.I m - . # - & > > - ",
"g W S k # # X 1 1 3 , , > 3 > # - X q I F S H n S z %.&./ ] m > > # # 3 7 8 3 > , 1 3 # & = H $._ k 8 o.( ( / Z - X # > > 3 > : ",
"g W S k # # X 1 1 3 , , > 3 > # - X q I F S H n S z %.&./ ] m > > # # 3 7 8 3 > , 1 3 # & & H $._ k 8 o.( ( / Z - X # > > 3 > : ",
"b n C r . # X > 3 1 1 1 3 3 3 > 1 & # C ] / F u g p o./ ( _ 0 X X - # ; 5 3 3 3 3 1 7 - 3 # g >./ m C 6.] ] I v X # & - , > > 3 ",
"p F C - X # . & > 3 5 5 8 3 > # > - @ z ( m k t i i i u F H # # # & X 3 e 8 9 e 9 > 1 X 1 # 8 <.&.D z ( ,.,.K 3 # & # > 1 3 3 3 ",
"t i p # # # # & - - # # - , > # & # X 2 k B / C 8  . .g i t . # @ # # 3 0 5 & 2 0 5 3 > & # # k k i g k g g m - X # # - > - # , ",
"t i p # # # # & - - # # - , > # & # X 2 k B / C 8  . .g i t . # @ # # 3 0 5 & 2 0 5 3 > & # # k k i g k g g m - X # # - > - # , ",
"H m 8 & & > 3 3 5 3 # # 5 8 8 3 > # # & H K H H 7 H &.*.I 0 X % % 1 1 0 e 7 - t v b j h 3 3 # 0 H M { *.m m i # # - > , 8 3 - 0 ",
"Z S 7 # & - 3 , , 2 2 2 u 3 5 2 3 - # & / ( F A p #.] ` H 3 # - - 3 > t c r , 8 u g u u ; > # v O.V  .( S S t # # - 3 3 8 3 ; 8 ",
"H C > # - 1 3 , 8 2 > > q 7 5 > 1 - O # i ] I I B *.R ] m X # > > 3 8 0 i u 3 3 e i k i > - * t $.C ` ] m m > X & > > > 2 & > t ",
"H C > # - 1 3 , 8 2 > > q 7 5 > 1 - O # i ] I I B *.R ] m X # > > 3 8 0 i u 3 3 e i k i > - * t $.C ` ] m m > X & > > > 2 & > t ",
"n z > # > 3 0 8 3 > - - 0 9 8 7 3 ; # # e 1.` D b 2.H  .m O & 3 3 0 t j v s t j d 5 t i 8 1 * 8 / z B D F F 3 X - 3 7 3 8 3 > 9 ",
"r 0 # # - 5 q k 0 , - - q 9 7 9 7 - & & 3 B i k g m r d t # - 8 8 t i b m j 2 t s t u i 3 > # ; s r u v r r - # - 4 8 2 > > & 0 ",
"t 0 # # - 5 q k 0 , - - q 9 7 9 7 - & & 3 B i k g m r d t # - 8 8 t i b m j 2 t s t u a 3 > # ; s r u v r r - # - 4 8 2 > > & 0 ",
"/ N - X # ; 2 3 , & & & 3 3 3 > 1 & # & - m n Z I m b j > X # > > 5 3 5 q q - 8 q 8 5 3 ; & . > :./ Z ..C C 3 . # - ; $ - # # 3 ",
"I z ; @ - 3 8 q > > k k b h B q q 0 > & - C C A H B H H 3 X > 5 5 0 - 3 D U H H b # , r 5 1 - 5 3.o.C %.F F 7 X & 3 5 > i g g v ",
"A k ; # ; 3 2 t e > k k M M C B m v t 3 # m m C M Z A S 3 # 3 a a c q Z *.C m i j 6 b k 5 - @ , *./ k D r r > + = 3 8 7 i d t t ",
"A k ; # ; 3 2 t e > k k M M C B m v t 3 # m m C M Z A S 3 # 3 a a c q Z *.C m i j 5 b k 5 - @ , *./ k D r r > + = 3 8 7 i d t t ",
"b g > # & > > 8 q q s s k m m M m k r 1 2 b n m n D Z C 5 # > w w j z C M i u 5 8 3 b s , & & 5 D b s m v v 3 # # > 3 , g s t t ",
"1.o.C b # & 3 3 > s v b j z b M m h 3 s 4.2.0.6.5.9.3.2.U B > 3 3 j i i t t q 0 q - k i > - ` 1.6.2.0.0.,.,.D Z 5 & 1 , g g t u ",
"O.Z F m # - 3 8 v 7 t t l z z k z i 1 k ;.O.` >.o.,.o.K K U > > > t 8 q r 0 0 0 q 3 q i 1 ; o.%.=.] >.,.R R Z Z 5 # > 3 8 0 0 0 ",
"O.Z F m # - 3 8 v 7 t t l z z k z i 1 k ;.O.` >.o.>.o.K K U > > > t 8 q t 0 0 0 q 3 q i 1 ; o.%.=.] >.,.R R Z Z 5 # > 3 8 0 0 0 ",
"u 0 7 > @ > 1 2 s u t t i z k q q t 3 3 q t e a u i i q 7 5 # > > 0 3 0 0 5 3 8 i > 0 q > & 5 u t t u a t t 7 , $ # > > > , 3 q ",
"r 0 , X # > 7 7 3 0 i i q r 7 3 3 8 3 & # g k i r t t 5 > X # 1 1 9 > ; 3 2 q t u > 8 q 1 - # i g k k i t t 7 X @ - 3 > 5 , , 7 ",
"S j 5 # # & 1 3 & & 3 3 7 8 3 , - - # o 5 1.,.( C ` Z i t # # - & - X . & 1 8 6 > # - , - # & ) ,.U U H / / i X # & - o & ; - , ",
"S j 5 O # & 1 3 & & 3 3 7 8 3 , - - # o 5 1.,.( C ` Z i t # # - & - X X & , 8 5 > # - , - # & ) ,.U U H / / i X # & - o & ; - , ",
"Q j r # & - # > g k z z 8 t s b b , & - 8 0.6.H I %.z z k # - q e i 8 8 8 C H H M m i - # > & %.5.%.6.o.m m q # # & # ; 0 3 0 u ",
"r 5 ; # > 9 > 8 C S Z Z k K U k m 0 9 9 - s g q q r 3 3 > # - 0 0 b F K ..o.m B g j N 8 q 6 1 5 i b B i 3 3 > # & 1 # t c t j c ",
"q 3 O # > 0 - 5 u k j j v b k g t 3 t q # # t D g q 5 > X & - 3 3 s v m F Z b k i v b 0 8 > 3 # 0 d m r 4 4 $ + & 1 - i v i i j ",
"q 3 # # > 0 - 5 u k j j z n k g t 3 t q # # t D g q 5 > X & - 3 3 s v m F Z b k i v b 0 8 > 3 # 0 d m r 4 4 $ + & 1 - i v i i j ",
"M 5 # # - 0 > 5 u i 7 7 g k u r 3 > 8 3 # t ..-.U g j 5 @ 1 2 8 8 r t u j j v B C B m j 8 > & # / 6.<.K t t # # & 3 , s i 0 0 t ",
"S 3 # & 3 3 ; > r u 0 0 0 0 d u d 8 # 4 & q 8.H #./ r - + 1 9 q q q t i v j i n g n b 5 3 3 > # Z S Z u 7 7 & # - 7 q a 7 9 5 8 ",
"S 3 # & 3 3 ; > r u 0 0 0 0 d u d 8 # 4 & q 8.H #./ r - + 1 9 q q q t i v j i n g n b 5 3 3 > # Z S Z u 7 7 & # - 7 e a 8 9 3 8 ",
"m 5 & & 3 7 - 0 i i r r t g b k n i 3 q & u y.r.t.5.k 3 # 1 3 r q s t i z g q t k m v , w 7 > # I ( C n u u & # - 3 2 e q 5 8 q ",
"A u $ - 3 q - 7 v n g g s m B b n t 6 8 # t 6.U C B D 0 # 3 9 k k z q e b b j j m k b 7 0 7 > & 1.0.` ] v v # # > 3 & 9 i q t t ",
"B 8 # & 1 > X 1 t i t t i b i i j q 2 7 # s 5.H ,.` z 5 # 1 3 t t i t j k t q i 8 7 s - - 2 - # ` o.V ` z z 1 + & 1 @ - 9 q 8 0 ",
"B 8 # & 1 > X 1 t i t t i b i i j q 2 7 # s 5.H ,.` z 5 # 1 3 t t i t j k t q i 8 7 s - - 2 - # ` o.V ` z z 1 + & 1 @ - 9 q 8 0 ",
"m 7 # X # # & , > - , , 3 , 8 3 3 3 ; > X i 5.#.0.%.f , X # # - - 3 1 - , 3 # & 0 t q 3 2 & # # D L C m u u - X # - - 3 t q - u ",
"V 7 # & - 3 d z z , v v b i C k t u i 8 - t ] / ` Z i 2 X , 0 B B ) i 0 Z H 5 d L b H F 8 - 4 & H r.] k , , & # * 1 q m F u Z ] ",
"B q # # > 3 0 t i 0 v v i i q 7 e u q 6 & q 3.) H U c 3 X ; 8 b b C u q C v 0 v s t m b 3 3 3 & K =./ g 7 7 # X - 6 t b Z M U C ",
"B q # # > 3 0 t i 0 v v i i q 7 e u q 6 & q 3.) H U c 3 X ; 8 b b C u q C v 0 v s t m b 3 3 3 & K =./ g 7 7 # X - 5 t b Z M U C ",
"k 5 # # 1 8 8 9 t 0 k k u t 3 3 3 t e 3 # r ,. .F Y u 2 # > 9 u u l d t k g > m v v m 2 3 7 - & A K D q u u & # 2 e g b B V C j ",
"g , # & 1 0 t e s 0 s s e t 3 3 3 q 8 - # q I ) -.F t 3 @ > 3 t e V s i v m 5 8 a k s k q > 1 > R C p m d d # # 3 0 t s k d v c ",
"x , X # > 7 5 8 8 2 i i q 5 q 8 5 0 8 , # e %.o.#.U b 5 @ - - 3 3 s d B C k 2 5 j d k z 3 1 1 ; ( *.V F u u & # > 9 q t k t 9 s ",
"x , X # > 7 5 8 8 2 i i q 5 q 8 5 0 8 , # q %.o.#.U b 5 @ - - 3 3 s d B C k 2 5 j d k z 3 1 , ; ( *.V F u u & # > 9 q t k t 9 s ",
"m 9 O # 1 0 8 t q 7 i i 8 8 u t t 0 5 3 # q o.o.,.) u 3 X & - > > t i 0 0 e 3 t s s k j 5 3 > > $.( V Z i i & + ; 6 q t s 6 3 q ",
"m < # # # 3 8 5 2 - 3 3 2 5 t 7 5 5 3 , + u 6.o.:.Z g 3 X & - > > 8 6 > 5 7 & 5 q q g d 8 2 - & I k g b 3 3 # # & 2 8 8 3 > 3 q ",
"m < # # # 3 8 5 2 - 3 3 2 5 t 7 5 5 3 , + u 6.o.:.Z g 3 X % - > > 8 6 > 3 7 & 6 q q g d 8 2 - & I k g b 3 3 O # & 2 8 8 3 > 3 w ",
"] 8 # # > , # - 0 0 t t u 3 , 5 5 - & 3 X q 9.2.:.B r 3 . X X # # & - & , , - > , , > ; O # @ - %.:.g B s s >   X @ # # - & % 3 ",
"k , X - q n 8 q B b B B C m v i t - 5 t > & d H D i - # @ # # 3 3 7 & k Z g l j t u t 3 t 0 w - g D B m 5 5 # # 1 8 # e v s 0 b ",
"x 3 # # # 8 3 r j 0 0 0 t u i t q & 5 t - 5 / <.:.n t > O , 8 d d g > N B k j g j k u i j 4 6 > n B | F 3 3 $ # - q > k d g B b ",
"x 3 # # # 8 3 t j 0 0 0 t u i t q % 5 t - 5 / <.:.n t > O , 8 d d g > N B k k g j k u i g 3 6 > n B | F 3 3 $ # - w > k d g N b ",
"z 0 # # # 3 ; q j t t t e s s t i - 3 t - r 7.} :.B q 3 # > 0 i i t - g s j i i u 0 e d t 3 1 ; <.5.K n q q ; X # > , g d 0 s k "
};
