/* XPM */
static char *_57446feeda84d2d94c7f84b39b338b8xcNqIRhv0K9E44Ze[] = {
/* columns rows colors chars-per-pixel */
"64 64 255 2 ",
"   c #0A0907",
".  c #04060C",
"X  c #060B0B",
"o  c #0B0C0C",
"O  c #160C06",
"+  c #130E0C",
"@  c #1C0C0A",
"#  c #07160E",
"$  c #0C140D",
"%  c #1C1206",
"&  c #15130B",
"*  c #14150A",
"=  c #1B150B",
"-  c #1C1A0B",
";  c #060916",
":  c #0B0D13",
">  c #110F13",
",  c #071716",
"<  c #0E1214",
"1  c #0C1D12",
"2  c #141414",
"3  c #191613",
"4  c #141B13",
"5  c #1B1A15",
"6  c #14151A",
"7  c #1A171A",
"8  c #161918",
"9  c #1C1C1A",
"0  c #280908",
"q  c #2C0B09",
"w  c #380708",
"e  c #350C0A",
"r  c #3B0C0A",
"t  c #221406",
"y  c #281807",
"u  c #23140B",
"i  c #2C130C",
"p  c #221B0B",
"a  c #2C1C0A",
"s  c #34120B",
"d  c #3C130B",
"f  c #351A09",
"g  c #3C1B0B",
"h  c #231C13",
"j  c #291A13",
"k  c #211E1A",
"l  c #361B11",
"z  c #1C220E",
"x  c #0C2317",
"c  c #132415",
"v  c #1B2415",
"b  c #152A16",
"n  c #1B2916",
"m  c #142519",
"M  c #1D2419",
"N  c #152B1A",
"B  c #1B2C1A",
"V  c #193017",
"C  c #1C331C",
"Z  c #2D230E",
"A  c #29280E",
"S  c #33230C",
"D  c #332C0E",
"F  c #3B280D",
"G  c #3E340F",
"H  c #222315",
"J  c #2B2D12",
"K  c #282814",
"L  c #24231D",
"P  c #29261D",
"I  c #242D1B",
"U  c #2B2A1E",
"Y  c #322612",
"T  c #332B14",
"R  c #3B2D14",
"E  c #362B19",
"W  c #23331D",
"Q  c #2A3719",
"!  c #2B351C",
"~  c #343312",
"^  c #393818",
"/  c #050C27",
"(  c #0D1124",
")  c #0D132C",
"_  c #141523",
"`  c #1B1B24",
"'  c #15182A",
"]  c #030933",
"[  c #0B1534",
"{  c #0B163A",
"}  c #171B34",
"|  c #141C3C",
" . c #231F26",
".. c #1E2334",
"X. c #1C233D",
"o. c #252421",
"O. c #292622",
"+. c #2C2A23",
"@. c #24232C",
"#. c #2B272A",
"$. c #2E2C2A",
"%. c #362B26",
"&. c #322E25",
"*. c #332E2B",
"=. c #2A3721",
"-. c #343126",
";. c #3A3225",
":. c #383B23",
">. c #353329",
",. c #3A362B",
"<. c #3D392D",
"1. c #3E3A2D",
"2. c #262837",
"3. c #312F36",
"4. c #353233",
"5. c #3E3B31",
"6. c #373438",
"7. c #420E0A",
"8. c #500F0C",
"9. c #451A07",
"0. c #43140B",
"q. c #4B140D",
"w. c #441B0C",
"e. c #4B1B0D",
"r. c #52170E",
"t. c #461D11",
"y. c #671F10",
"u. c #45230B",
"i. c #4A230C",
"p. c #492A0C",
"a. c #52240E",
"s. c #552C0D",
"d. c #5A2A0D",
"f. c #45340C",
"g. c #59320E",
"h. c #482513",
"j. c #4C2413",
"k. c #542312",
"l. c #592A13",
"z. c #463616",
"x. c #443C13",
"c. c #563816",
"v. c #6B2E0F",
"b. c #67380D",
"n. c #652A12",
"m. c #663715",
"M. c #6B3C12",
"N. c #773915",
"B. c #453927",
"V. c #423C2D",
"C. c #423E31",
"Z. c #473C34",
"A. c #513F38",
"S. c #39431B",
"D. c #2A4423",
"F. c #394425",
"G. c #474719",
"H. c #564618",
"J. c #56551B",
"K. c #76430E",
"L. c #684417",
"P. c #794915",
"I. c #715818",
"U. c #4B432E",
"Y. c #474A28",
"T. c #564827",
"R. c #465428",
"E. c #575529",
"W. c #454134",
"Q. c #4B4434",
"!. c #484737",
"~. c #4B4639",
"^. c #4E493B",
"/. c #574A33",
"(. c #524935",
"). c #534C3B",
"_. c #4E5331",
"`. c #585636",
"'. c #5B513D",
"]. c #65572C",
"[. c #72522A",
"{. c #66593B",
"}. c #5B6239",
"|. c #7B632A",
" X c #6C6833",
".X c #0C1946",
"XX c #121D42",
"oX c #111E4B",
"OX c #1B2345",
"+X c #162249",
"@X c #1B254B",
"#X c #192654",
"$X c #262B47",
"%X c #2C3148",
"&X c #353848",
"*X c #222D58",
"=X c #263256",
"-X c #30365D",
";X c #1F366A",
":X c #3B4052",
">X c #3A4262",
",X c #48484A",
"<X c #554B43",
"1X c #595443",
"2X c #5A5442",
"3X c #454856",
"4X c #56555A",
"5X c #645C45",
"6X c #695D47",
"7X c #726A46",
"8X c #786947",
"9X c #575863",
"0X c #5E6066",
"qX c #66656C",
"wX c #79787E",
"eX c #824D18",
"rX c #8F5711",
"tX c #8A5813",
"yX c #976515",
"uX c #A76C17",
"iX c #A9751A",
"pX c #B7791A",
"aX c #8B5C26",
"sX c #927031",
"dX c #AD7527",
"fX c #A6762A",
"gX c #877849",
"hX c #887753",
"jX c #8D7A53",
"kX c #718341",
"lX c #AF831F",
"zX c #81822C",
"xX c #AD8536",
"cX c #D2921D",
"vX c #E49F1F",
"bX c #CE9126",
"nX c #CB9524",
"mX c #DCA529",
"MX c #E3A929",
"NX c #F0C33B",
"BX c #96894D",
"VX c #92914E",
"CX c #978658",
"ZX c #A7915C",
"AX c #8F8471",
"SX c #A79463",
"DX c #B19C67",
"FX c #B7A16F",
"GX c #CF9D42",
"HX c #CDB579",
"JX c #767685",
"KX c #918F90",
"LX c #9C999F",
"PX c #ACA9AD",
"IX c #D0B682",
/* pixels */
"+.+.,.-.~.^.~.,.V.~.~.&.Q.Q.B.L -.,.-.<.-.O.W.C.,.5.,.O.O.+.>.+.+.+.,.,.Q.^.~.<.C.~.~.&.U.Q.V.L -.,.-.,.-.O.C.V.,.<.-.O.O.+.$.O.",
"L O.&.,.W.W.~.-.5.~.W.O.+.+.+.L &.-.-.&.L 9 -.-.9 O.9 7 L 7 9 L L O.&.<.W.W.~.>.C.W.W.O.+.+.+.9 -.-.-.&.L 9 -.-.9 O.5 5 L 7 9 L ",
"O.+.+.&.O.9 +.+.-.&.&.9 5 L P +.;.V.+.9 +.O.P O.+.,.-.L <.5.-.L +.&.+.&.O.9 +.+.-.-.&.9 5 L P +.;.V.+.9 +.P P O.+.<.-.L <.<.-.L ",
"V.,.V.V.+.&.&.W.C.-.W.O.9 k L -.<.V.<.+.-.+.O.,.5X^.^.<.^.1X1XC.C.V.V.V.+.-.&.W.Q.,.C.O.9 5 L -.,.Z.,.+.&.O.L <.5X^.^.<.~.1X).<.",
"C.<.,.-.L V.,.-.&.O.C.C.<.-.5 P ,.,.+.L L +.O.+.^.W.5.O.O.~.).~.Q.<.,.-.L V.<.>.>.O.W.W.<.-.5 P ,.<.+.L L P O.-.^.C.<.O.O.W.~.C.",
"L L O.+.O.+.-.O.+.L L W.'.Q.V.,.+.&.-.;.<.O.9 P -.>.W.5.&.+.<.&.O.L +.-.+.+.-.O.+.L L ~.).^.V.,.-.&.-.;.<.O.k L -.>.W.<.&.+.,.+.",
"~.L -.C.W.V.C.+.5 9 9 Q.1X).1XW.,.,.).).'.V.&.-.,.-.~.1X1X~.,.C.).L ,.Q.W.V.W.+.7 9 9 ~.1X).1XW.-.,.).).'.V.&.-.-.,.^.1X).W.,.,.",
"^.+.+.V.<.<.V.L 9 L L -.W.<.>.,.O.O.<.,.,.&.L +.L O.+.O.>.-.L L ).-.&.C.<.,.V.P 9 L L -.W.<.<.,.+.P <.,.,.+.L O.L O.&.O.>.*.L 9 ",
"O.V.Q.Q.).Q.).>.V.5X'.).C.<.k O.&.&.&.+.,.V.V.P L <.~.C.+.,.C.,.+.Z.Q.(.(.(.).,.W.5X'.).C.<.L P &.&.&.+.,.V.V.U L <.^.C.+.-.<.-.",
"+.Q.Q.V.5.W.~.<.).5X).).Q.C.+.-.<.,.<.&.<.,.W.+.W.1XW.5.,.<.,.+.&.Q.Q.V.V.Q.^.C.^.5X'.).Q.W.&.&.,.,.V.&.,.,.V.+.W.1X~.<.,.,.-.+.",
"L O.>.<.-.>.<.>.<.~.<.,.<.~.<.&.,.,.-.O.-.<.<.+.<.^.,.+.O.k 9 8 L O.-.<.,.,.<.,.,.~.<.,.,.Q.V.&.,.;.;.+.-.<.<.+.C.).5.+.L 9 7 7 ",
"2 8 O.O.$.+.O.9 o.$.+.L 9 k 7 2 2 2 2 8 O.O.9 8 9 L L L 8 2 7 7 8 8 O.+.+.$.O.9 o.>.o.L 7 9 7 2 2 < 2 2 O.O.9 8 M L o.L 2 2 2 5 ",
"a p.u.p.c.s.g.L.L.L.M.M.M.s.p.% 4 G G x.H.x.x.J.H.G x.x.x.G D $ 3 R Y R z.z.z.T.H.z.c.R z.E j o + f.R f.x.f.f.H.H.D f.f.f.D F * ",
"F L.i w.e.d.M.s.g.M.n.M.d.p.L.a v H.H J G.Q f.~ ~ G Q ~ K A c.4 3 c.7  .o.` R O.&.;.@.O.@.k c.> - H.- H R K R Y Z R h T H p f.- ",
"S p.q g F M.k.w.u.k.d u.g l p.u 4 f.$ c J m ^ n W ~ b J H K f.$ 2 R ) $X3.XX6.OX2.6.XX$.$X} z.> & F o 5 T < R 8 5 E 8 Z 5 5 S + ",
"y F 0 r s w.l.e.d 0.w.w.s i p.u - D 1 n 1 b C B m B W B n I D * 3 U ] #X+X+X=X=X+X#XOXXX#X{ &.3 + a . 6 : : 6 +.7 6 6 : H & p & ",
"y s l.fXe.q.d.P.GXm.l.q.j.u.f u * z b W B C W F.b c _.BXQ B p & 3  .X.5X$X@X$X+XOX} #X*X&XXXo.+ & % +.CXL 8 L R.Q 6 7 Q.BX: = & ",
"a g h.aX0.0.r n.fXv.r.q.k.w.g % - J _.gXb Q Q N x 1 W R.B 1 ~ & 3  .%XxX$X*X#XOX@X=XoX,XxXOX@.+ & p 9 5XL 9 6 ! M 7 7 +.,.: a % ",
"S u.0.w 0.m.m.r 8.q.q.r.q e i.% - ^ B F.C W C c :.Y.F.N m b ~ & 5 *..X+X+X@X=X#X*X*X#X$X$XoX6.= & p ; : 6 :.}.9 O.F.o.< : < Z = ",
"S i.w.w.d a.g.m.l.k.j.l.eXw.u.t - ^ S.C =.D.I gXBXBXSX7X-.b ~ & 5 4..X@X@X*X*X%X>X>X=X| #X+X,.3 = T F.W 6 _. X+.C.VXF.: 7 T Z % ",
"S i.0 r q.P.pXbXpXP.g.m.bXi.g u * J W W D.m 8XDX-.I 7XB.v n ~ * 5 4.Z.@X#X@X#X>XqX4XwX9X} | $.& - T F.:.7 E 9 >.o.+.8 6 8 : Y % ",
"a w.w.g.s lXnXbXnXMXi.w q.s a.t - ~ c G.C c CXHX<.x W K :.W A & k 6.XX+X%X&X&X&XOX' 2.KXqXXX$.& - ^ ; 8 6 L O.9 &.V.~.;.: : Z t ",
"y q b.pXq pXnXuXtXL.e M.s.r p.u * J B B Q 4 {.HXDX_.1 b BXF.~ - 5 3.oX2.&X:X%X_ ,X&X; 9XLX{ *.3 - R 8 O.<.8 O.6X6X'.jX(.! }.Z - ",
"t i s.eX9.yXMXmXlXq d bXP.q s.y - ~ x N C B M 8XZXHX8Xc W b ^ + 3 4.3...&X-XX.9XPXPX` 6.qX[ 6.& p T . `.VX9 k 8XU.8 8 9 W._.S % ",
"S p.O e.b.yXcXcXMXiXyXuXd r s.t - J Q.BXN W V # B.ZXHXCX1 W J   5 3.[ 2.=X} AXKXJXLX3X{.~..X4.& = z.I L ,.7 ,.<.L 2 3 8 : . S p ",
"a f j.M.i.p.yXuXcXpXtXd e e.u.% - J =.`.# ! 5X`.H ! ZXHX<.B J   & @.{ 2.XX3XKXKXLXPX9Xo.` .X*.3 + ].kXv : o V.jX6X{.L 6 L +.S p ",
"y f w.rXq.e tXK.uXcXlXP.P.w.a.t * J x 1 U.SXZXjXgXU {.HX/.# ^ & & O.#X[ 6.KXKXLXKX0X&X| XX/ k 2 * Y +.8 8 8XFXhXU.6XU : T.R.T = ",
"y f e.M.0 tXNXiXK.K.yXpXiXd u.% - ~ n M DXCX$ X P -.7XDX-., D + 5 6.+X( 4XqXqX9X3X3X%X..X.[ 4.= & p . 2 jXIXFX{.. U &.5 E 8 Z % ",
"a u.d.g.d mXMXrXK.g 0 0.d e u.% H G.m 5 jXDX`.<.(.gXCX/.5 m ~ * = 3./ 4XLXKXwX9X3X%X| 4.k [ *.= * Z . V.CX8X;.;.2 L &.2 2 . Z t ",
"F u.e P.tXcXmXtXyXuXi.8.e.w.u.% - ^ m /.H 8XZXZXCX8XU.$ Y.-.D * & O.9XKX4X@.6 2.' ) &Xo.7 ;X*.& - T : 8Xk ;.{.o . . &.: ! Y.Z p ",
"S u.0 l.e tXvXtXM.uX0.7.fXM.f t - J x 8X7X:.U.;.B.B.5 # 8X+.D - 2 *.&X_ ` _ 2.%X] @XO.k @.X.O.+ p A &.6X. . O.8 L L L B.`.Y.T p ",
"a g M.k.P.nXpXw.K.pXuXM.l.e.u.t + A 1 M U.{.{.{.`.B.n _.{.# D * 2 *.) ..4X} XXA.[.O.j O.2.) O.+ - T 7 hXP 2 &.,.Q.L < P 5 . Y - ",
"a u.fXl.b.vXa.w e.d.M.g q 0.u.% - J S.n 1 X <.hXhX8XgX{.v c ^ * 5 6./ 9X4X+ #.k B. .{ 2.X.{ 3.2 = Z . V.8X8X{.CXCX-.V.+.X 6 h + ",
"y f e d e rXbXyXr q q 0.s e f % p ~ n n n =.8XL v M v 1 $ c D - & O.&XqXX._ ` 4.*XZ.Z.oXOX| #.2 & G 5 . 2 2 o '.6X'.+.2 Y.-.Z p ",
"y g e r 0.q.P.s.e a.e.e.s q u.% = ~ N b 1 U U x C Q B C m x ~ + 3 O.| [ [ | +X+X=X2.$X#X2.{ *.2 = Z . 8 < : 8 7 6 : 7 o. X:.Z Z ",
"a u.0 fXfX7.q.n.k.r.7.m.dXe g % - ~ B BX}.c <.:.I W x F.BXm D + 3 @.&XsX| %X+X&X&X+X$X+X$X{ 4.2 - Z >.CXo.< P P o.`.Y.3 U X Z p ",
"y g w N.m.q.N.bXfXr 7.d.eXe w.% - ~ N  XR.n =.! M b C =._.m A   = @.3.6X| | #X&X&XoXOX| XX[ o.+ = Z L `.9 G.R.8 7 R.R.6 3 . Z = ",
"a i.e e r y.n.N.N.0.a.0.e e g % * J x x x V D.C C Y.Y.x 1 4 A + +  .] ] {.'.+XoX.X@X@X{ ~.[.` o * j . . 2 ^ S.8 6 8 7 : 5 L.p O ",
"t p.w.d r m.d.w w 0.a.r e d u.% $ ~ 4 B S.n x ].E.x n x m 4 D   o ;.' [ 2.2..X5X^..X} XX| #.&.o   Z 2 6 : 8 ; T.H.; 9 : : h Z + ",
"y p.i.a.0.w 7.N.P.d e e.d.d.u.t * f.K ~ J N Y.I.J.S.x n J J f.o 3 c.` #.' { <X].'.,X[ X.#.` z.+ + f.h Y 5 < B.H.H.:.X 5 Z 5 f.& ",
"0 u.s.a.a.q.g.b.P.b.8.a.s.s.w.@ 1 ~ x.D W =.I.^ ^ I.D.K D A A X : ;.B.;.} $X|.;.B.|.=XX.E E P ;   S z.z.P 9 I.R T I.O.k R R S   ",
"= s d.M.g.i.K.P.P.M.s.s.b.e.0 O o 4 ~ G.G.G.x.I.I.G.G.x.~ 4 # X . / 6.W.C.6.C.|.[.Q.W.Q.C.@.; .   o E z.^ ^ R L.I.z.^ z.z.h X . ",
"h 3 @ e.N.P.v.M.M.d.eXN.s @ + + 2 o # 1 F.J.G.x.x.G.J.^ 1 $ * 8 6 o ; [ &X`.,.*.%.Z.{.&X) ; : : o   . o E H.T S F z.H.E : X o 2 ",
"u = = & 0 d n.eXN.v.e @ + @ u @ 5 -.H & , 1 Q J.G.Q 1 1 4 v c 4 ` 6 : : ; [ %X/.Q.&X[ ; . : ; : 2 5 2   . : H z.z.P o X   2 o 2 ",
"i u u z.Y @ q v.e.@ + @ 0 z.c.@ =.8XY.c 4 2 , W v # - c m `. X1 '  .B._ 6 : / 2.} / : : 6 _ @.( 2 `.Y.2 & o X 3 2 .   o : U.T.: ",
"l z.i H.p.j j = u u @ i i c.c.@ M W I b v T.H * $ v =.v c ].E.c _  .O._ ) 6 _ / ; : _ _ / ].|.; 8 U H 5 & < 2 o X 4 M 2 8 T.B.8 ",
"|.xXh.s s Y s i l i |.m.i l i j I v 4 m v ~ b c b V n ! b n 1 B ' } ( o.#.) ) ) ) ) ) 6.' #.o.( 9 5 2 U L  X^ 7 2 I S.3 : 5 X 8 ",
"j.g.l.g 0.k.sX[.0.w.L.l.q l l u c 1 F.E.1 c m  X XW Q S.# B n , B.T.) @.2.OXOX X<X$X} &X' ) ( ) 7 ^ 9 7 7 zXE.7 5 H 6 <.T.6 E 3 ",
"q e r.t.t.k.sXaXd w.t.e.l.l j u c m ^ E.m c V  X Xb m B W c 1 1 #.&.} [ [ } OXfX|.| X.OXX.' ( ( 8 8 2 ;.L 6 3 8 +.].: :.T.: 5 2 ",
"s j.0.[.j.l d h.h.t.t.[.fXt.q u {.Y.X 1 B F.B n C B m :.BX:.c 4 ( ) _ 2.5.( | | %XOXoX<XsX_ _ _ : < : 8XU.8 k 5 -. X7 : . 2 8 8 ",
"h.sXi.w.q.L.P.d.t.L.L.l j.l F a ! H * $ I `.=.W =. Xb b ^ b ^ M @.` / ].|.2.X.| | 3X$X..&.' @.( P `.: 2 : Y.T.9 9 5 E : : ].K . ",
"0.w.h.d g m.P.q.j.l.h.d e.t.E j # # 1 c c 1 b n M I c b x # z 4 2.' ) ` 2.XX} } | %X2.) ) } } ) 5 -.8 < 2 2 7 9 8 L P < 2 E 2 : ",
"%.+.C.;.~.~.Z.,.C.).Q.&.U.T.B.L -.>.-.<.-.L <.<.-.,.-.O.O.O.$.+.#.$.5.>.,X^.~.<.C.,XQ.+.Z.Z.,.O.&.*.-.-.&.L <.<.-.,.+.O.O.O.+.O.",
"o.+.$.,.Q.^.1X,.W.^.Q.O.+.+.O.L -.,.,.-.L 9 -.-.L O.9 9 L 7 L o.L +.-.V.).).).<.C.^.Q.O.+.&.+.L &.-.-.-.L 9 -.&.L O.9 9 L 9 L O.",
"+.&.+.&.O.9 +.&.,.-.-.k 5 L P +.<.Q.&.9 +.L L O.-.W.>.L V.C.>.L &.-.-.;.+.9 &.-.,.-.-.9 5 L P &.<.Q.&.L +.P P O.-.W.>.L <.V.-.L ",
"W.V.V.C.>.-.-.Q.Q.,.~.+.O.L P <.C.Q.V.&.-.&.O.<.5X).^.<.^.5X1X~.Q.W.V.W.-.,.,.Q.~.<.~.+.L 9 L V.Q.Q.V.&.-.-.+.V.6X^.).<.~.1X1XW.",
"W.V.<.-.O.W.5.>.>.O.W.~.~.-.9 &.V.V.&.L L +.O.&.).W.5.O.*.^.^.^.Q.W.<.-.L ~.C.,.>.O.~.^.Q.>.8 &.V.V.&.L L +.O.-.).W.C.+.+.~.).~.",
"O.L +.&.+.+.>.O.+.L L ^.).~.V.<.&.&.-.;.<.O.k P -.-.~.5.>.&.<.>.+.P &.>.+.&.,.O.+.L O.).).~.<.,.-.-.;.,.V.O.k P -.>.W.5.-.&.,.&.",
").L ,.W.W.Q.Q.+.7 9 7 ~.1X).1X~.,.<.).).1XC.&.V.,.-.^.1X1X~.,.Q.1XO.,.Q.~.Q.Q.&.9 L 9 ~.1X).1XQ.,.<.).).1XC.&.<.-.>.^.1X1X~.<.<.",
"<X+.-.V.<.V.V.P 9 O.L >.W.C.<.<.+.O.C.<.<.&.L +.O.O.&.+.>.,.L L 1X>.&.V.<.V.Q.O.L O.P -.W.5.,.,.+.O.C.<.<.&.L &.L L +.O.,.>.O.k ",
"+.U.Q.(.).Q.).>.V.5X'.^.C.<.L O.&.-.&.+.<.V.V.+.O.<.^.W.&.>.<.,.O.U.(.).'.).1X>.C.5X1X).W.C.L O.&.&.-.+.<.<.V.+.O.<.^.C.&.>.<.,.",
"-.(.(.V.C.~.^.C.).5X'.^.~.5.+.-.,.<.V.-.C.<.~.&.~.1X^.W.5.5.,.$.-.(.(.C.V.Q.).C.).5X1X^.~.C.&.-.<.<.V.-.V.<.Q.&.~.1X^.W.<.C.,.-.",
"L +.>.>.*.,.W.,.>.C.,.>.-.W.<.&.,.,.-.+.-.<.<.+.C.).,.O.L 9 7 8 L O.-.>.&.>.C.<.-.W.,.>.-.Q.C.&.,.,.-.+.-.<.<.+.W.).,.O.L L 9 7 ",
"8 9 O.+.>.>.+.k O.-.+.O.L O.L 8 8 8 3 9 O.O.9 5 L O.+.O.5 8 7 5 2 7 O.+.-.>.+.k O.>.+.O.L L L 3 8 8 8 9 O.O.9 7 L O.+.O.5 3 7 9 "
};
