/* XPM */
static char *_9be7c2e05ba4028b92e156dae54e0c8r3xukB7Pu290y9aD[] = {
/* columns rows colors chars-per-pixel */
"64 64 256 2 ",
"   c #090907",
".  c #160B06",
"X  c #0A150B",
"o  c #19140B",
"O  c #030E1F",
"+  c #0B1619",
"@  c #151A17",
"#  c #1C1C14",
"$  c #250B05",
"%  c #27170B",
"&  c #361B0C",
"*  c #271D14",
"=  c #351F11",
"-  c #0C2514",
";  c #102C13",
":  c #172518",
">  c #1B3318",
",  c #29240E",
"<  c #38260E",
"1  c #232314",
"2  c #25231A",
"3  c #2A2719",
"4  c #372717",
"5  c #28351A",
"6  c #36341B",
"7  c #121D26",
"8  c #0E2E2E",
"9  c #182428",
"0  c #183726",
"q  c #1A2936",
"w  c #272A26",
"e  c #362C25",
"r  c #293428",
"t  c #383926",
"y  c #2B2C34",
"u  c #293837",
"i  c #353B38",
"p  c #452A17",
"a  c #4D2F14",
"s  c #443818",
"d  c #4F3523",
"f  c #473827",
"g  c #463B36",
"h  c #15461E",
"j  c #28471C",
"k  c #28541E",
"l  c #1A4628",
"z  c #194736",
"x  c #1B5430",
"c  c #304D2E",
"v  c #2A5627",
"b  c #375B26",
"n  c #364538",
"m  c #285736",
"M  c #376829",
"N  c #39742B",
"B  c #2B6435",
"V  c #376A35",
"C  c #387739",
"Z  c #4B451B",
"A  c #57461E",
"S  c #57531D",
"D  c #65501A",
"F  c #7C661E",
"G  c #464629",
"H  c #554825",
"J  c #4A5728",
"K  c #585429",
"L  c #434A3A",
"P  c #564D35",
"I  c #585837",
"U  c #694B23",
"Y  c #645529",
"T  c #725A27",
"R  c #665B36",
"E  c #715A34",
"W  c #446727",
"Q  c #49752A",
"!  c #4D6935",
"~  c #467736",
"^  c #7A6929",
"/  c #6F6A34",
"(  c #79723A",
")  c #0C2C47",
"_  c #162D49",
"`  c #1B3646",
"'  c #1A3957",
"]  c #253947",
"[  c #2A3B4C",
"{  c #1C3C67",
"}  c #113D72",
"|  c #1A4950",
" . c #28474A",
".. c #275B48",
"X. c #27465B",
"o. c #384950",
"O. c #275858",
"+. c #2A6645",
"@. c #346B46",
"#. c #387A49",
"$. c #317250",
"%. c #1A4F6E",
"&. c #2C4B65",
"*. c #2F5268",
"=. c #36556A",
"-. c #264A7A",
";. c #29557C",
":. c #385879",
">. c #1E6764",
",. c #336C6F",
"<. c #454546",
"1. c #525C47",
"2. c #4B5251",
"3. c #665D4F",
"4. c #516C4D",
"5. c #656545",
"6. c #6E704B",
"7. c #787847",
"8. c #777B59",
"9. c #565C66",
"0. c #526D72",
"q. c #6A786D",
"w. c #8B692C",
"e. c #936522",
"r. c #8A752B",
"t. c #967928",
"y. c #867636",
"u. c #977B32",
"i. c #A97B2E",
"p. c #887B47",
"a. c #837E52",
"s. c #A97E53",
"d. c #3C833C",
"f. c #498638",
"g. c #508A36",
"h. c #56983B",
"j. c #3C8449",
"k. c #3E8754",
"l. c #488845",
"z. c #489647",
"x. c #53944B",
"c. c #54955B",
"v. c #7D884E",
"b. c #788569",
"n. c #768B74",
"m. c #998327",
"M. c #978B39",
"N. c #A7862A",
"B. c #A98E37",
"V. c #B69435",
"C. c #ACA73E",
"Z. c #C29D38",
"A. c #C8AB3C",
"S. c #918F54",
"D. c #A69748",
"F. c #B49B47",
"G. c #B2924C",
"H. c #A89B55",
"J. c #BAA949",
"K. c #B7AF58",
"L. c #8B906E",
"P. c #989866",
"I. c #879577",
"U. c #9EA066",
"Y. c #99A675",
"T. c #AFAA6A",
"R. c #B6B268",
"E. c #A8A876",
"W. c #B9B676",
"Q. c #C8AF4A",
"!. c #C8B758",
"~. c #CDB968",
"^. c #C8BA75",
"/. c #BAC175",
"(. c #D8CA52",
"). c #DBC957",
"_. c #E5D05A",
"`. c #D8C865",
"'. c #CDC573",
"]. c #E7D36C",
"[. c #164C8B",
"{. c #195388",
"}. c #155995",
"|. c #265986",
" X c #32518A",
".X c #265A9A",
"XX c #3B6888",
"oX c #316E94",
"OX c #154EA1",
"+X c #1A5CA3",
"@X c #2C5AA9",
"#X c #1969AA",
"$X c #2869A7",
"%X c #3868A7",
"&X c #3675A8",
"*X c #396AB6",
"=X c #2C72B2",
"-X c #476788",
";X c #497884",
":X c #46769A",
">X c #547690",
",X c #637787",
"<X c #4978A8",
"1X c #5478A7",
"2X c #4770B0",
"3X c #4679B6",
"4X c #3672C6",
"5X c #447AC2",
"6X c #3683AD",
"7X c #3B87BC",
"8X c #548D8F",
"9X c #4C889C",
"0X c #578C97",
"qX c #6F8E92",
"wX c #4987A6",
"eX c #5789A8",
"rX c #5998A8",
"tX c #498BB1",
"yX c #5687B6",
"uX c #4994B9",
"iX c #5697BA",
"pX c #6592B1",
"aX c #62A9A1",
"sX c #64A6B2",
"dX c #7CC4B8",
"fX c #3688C7",
"gX c #488BC8",
"hX c #5297C5",
"jX c #59A4CA",
"kX c #67B0C9",
"lX c #899A89",
"zX c #95A993",
"xX c #ABAC8B",
"cX c #A8B589",
"vX c #B9B788",
"bX c #A9B897",
"nX c #B8B995",
"mX c #8CAAB0",
"MX c #ACBAAD",
"NX c #C5BB87",
"BX c #B9C18B",
"VX c #A3C093",
"CX c #B7C698",
"ZX c #B9C5A6",
"AX c #B0C5AD",
"SX c #CAC988",
"DX c #D6CB87",
"FX c #C8C696",
"GX c #D4D190",
"HX c #E7D989",
"JX c #C6D4A7",
"KX c #CED2B2",
"LX c #E2D9B2",
"PX c #A1BDC2",
"IX c #A2C6CA",
"UX c #C8D2C5",
/* pixels */
"q w & % & & % % < & = 4 4 4 4 < < < < < < = p p p p < < & & = % % & & < 4 p e w * * 4 4 4 < 4 4 e e e = * 3 * 3 2 % , , * % o # ",
"q 7 * & o o o * * . * q 7 1 1 G G c t n 6 G w w 9 9 . $ % . % = = & $ X q + 1 n u u u o.n n u : t # # % % o % * . = e e 2 % o 2 ",
"q 7 * & o o o * * . , q 7 1 1 G G c t n 6 G w w 9 9 . $ % . $ & = & $ X q + 1 n u u u o.n n u : t # # % % % % * . = e e 2 o o 2 ",
"' ) @ = $ $ = a & & y *.X.+ + 6 I I I I K t @ @ l 0 X . $ & p & & $   8 %._   n 4.4.4.1.4.n # 6 J 5 5 # % < < * . 4 e e e % o w ",
"%.| q @ . . $ & & # =.>XpX-X-X+ Y y.p.u.R X l l B c :   $ a a & & . 9 ;.oX&X' . 6.6.8.5.6.r 6 K I P P r % < p = & e g g f 4 o e ",
"%.%.' 8       $ o  .XX9XrX9X9X=.* ^ u.T o > C C l.g.B ;   $ & $ $ @ ;.&X&X$X%Xq 3 3 v.v.6 , K ( 7.6.6.I w o $ = 2 o.<.<.g f * e ",
"%.%.' 8       $ o  .XX9XrX9X9X=.* ^ m.T o > C C l.g.B ;   $ & $ $ @ |.&X&X$X%Xq 3 3 v.v.6 , Y ( 7.6.6.I w o $ = 2 o.<.<.g f * e ",
"oX|.;.%.7 7   o  .1XeXsXrXiXiXhXX., w.< - B l.l.x.h.~ M - . $     X.=XfX6X=X$X@XO O Z K o K 7.y.r.p.p./ J @ % * u 2.<.<.<.g * 4 ",
"oXoX,.,.| | # e :X0XeXhXiXhXhXjXiXu * ; x l.x.x.h.h.g.Q b X . ` ` &X7X7X6X*X@X*X-.-.# # s ( p.y.r.^ ^ ^ ^ J 4 f o.2.2.2.<.g * * ",
"oXoX,.,.| | # e :X0XeXhXiXhXhXjXiXu * ; x l.x.x.h.h.g.Q b X . ` ` &X7X7X6X*X@X*X-.-.# # s ( p.y.r.^ ^ ^ ^ J 4 f o.2.2.2.<.g * * ",
",.,.>.>.u u w 7 :.pXeXgXgXhXhXjXkX0.< > V x.g.g.g.h.g.Q M > e :X:X&X7X7X7X4X*X*X.X.Xr t Z y.y.y.r.t.t.m.^ Z y i 9.9.2.2.2.g * . ",
"@.,.>.| * * -.{ @ eXpXyXgXhXhXkXrX3 p.G > g.h.h.f.f.Q f.k 9 &.*.*.tXgXgXgX7X2X*X9 9 / ( 3 y.G.u.t.t.t.m.T 9 -.X.o.9.2.2.2.f * * ",
"! $.| w o.o.2X4X .i iXuXuXhXiXkXi y.FXE.3 V z.z.h.f.g.Q 3 *.XX] ] XXjXhXuX<X<X' K K R.S.P A N.t.m.N.N.t.4 { [.[.[ 0.9.9.2.d % * ",
"1.$.| w o.o.2X4X .i iXuXuXhXiXkXi y.FXE.3 V z.z.h.f.g.Q 3 *.XX] ] XXjXhXuX<X<X' K K R.S.P A N.t.m.N.N.t.6 %.[.{.[ 0.9.9.2.d % * ",
"@.+.: 9 %X%X3X*X*Xq o.dXkXkXkX=.s W.LXFX( : h.h.h.g.Q : [ 9X0X,.,.q :XjXiXjXXX6 P.P.W.E.P.5 D m.r.t.t.A ) }.}.}.{ 9.0.0.2.4 o * ",
"0 0 @  X*X*X%X%X*X%X9 8XIX;X;X1 S.W.FXW.~.R 5 5 h.g.5 7 :X9X8X0X0X0.q iXjXoX: L.xXxXK.W.E.q.# F m.Z Z 9 }.#X}.}.%.[ 9.9.d , # < ",
"3 @ { %X2X2X<XyXyXgX Xw ;X9 9 7.NXSXK.^.LXvXe e j b + XXpXrX0X0X0XrXo.] :Xq Y nXE.E.D.D.Y.zXo., D @ : } +X+X}.}.{.y d d a s , p ",
"3 @ { %X2X2X<XyXyXgX Xw ;X9 9 7.NXSXK.^.LXvXe e j b + XXpXrX0X0X0XrXo.] :Xq Y nXE.E.D.D.Y.zXo., D : : } +X+X}.}.{.y d d a s , p ",
"A w .X2X1X1X1XtXgXgX3X*.# K K FXJXK.M.H.W.FXE.E.6 4 *.iX0XeXqX8X8XeXpX&.9 f D.E.E.E.K.B.J.vXzXn * ' ' +X+X}.{.}.{.X.y y , S 6 a ",
"4 s ' 5X<X2X<XtXyXyX3X' G 6 6 E./.!.M.D.W.DX( ( r w ] iX0XaXmX0X0X>XeX&.s 6 w.N.M.M.!.K.(.C.y.t 0 9 9 [.+X}.{.}.{.&.w w # 6 4 4 ",
"Y N.< { gX5X3XtXtX3X-.t Y.n n c '.SXR.W.M.D.3 3 +.+.X =.rXaXaX8X8XwX&., ( 6.6 t.D.D.'.K.J.B.6 0 V 5 > 9 +X+X{.{.|.` e e 2.# * 4 ",
"Y N.< { gXgX3XtXtX3X-.t Y.n n c '.SXR.W.M.D.3 3 +.+.X =.rXaXaX8X8XwX&., ( 6.6 t.D.D.'.K.J.B.6 0 V > > 9 +X.X{.{.|.` r r 2.# * 4 ",
"M.F.u.3 .X.X%X:X*XoXw Y.ZXbXbXi 6.JXZXZXR.s 0 0 +.$.0 + 9XsX9XwXwX:Xw y.vXGX( H H.H.M.M.C.Y + m @.~ ~ : { .X|.;.X.w 0.0.q.<.# p ",
"S.R.R.r.q q $X&X&Xq 8.cXKXCXCXI.w P.JXJXI : +.+.@.k.$.- q wXwXwXwXq T Q.LX].DXt Y Y V.A.^ @ v C l.C C v @ ;..X;.o 9.qXqXq.3.y 2 ",
"S.R.R.r.q q $X&X&Xq 7.cXKXCXCXI.w P.JXJXI : +.+.@.k.$.- q wXwXwX<Xq T Q.LX].DXt Y Y V.A.^ @ v C l.C C v @ ;..X;.@ 9.qXqXq.3.r 2 ",
"M.!.D.B.A A _ &X` I Y.Y.ZXCXCXJXI.5 BXS.@ z #.#.c.@.#.$.- [ 6X` ' p !.~.~._.].xX6 6 M.B.# l B d.g.Q Q Q j 9 {.` <.rXqXqXq.9.u o ",
"N.N.V.V.i.i.3 q r I.bXvXCXCXCXBXCX1.H 3 0 l.l.l.k.#.@.k.B : ] 2 2 w.^.~.!._.FXJXL.L.6 6 - B f.~ W W W Q W > 7 f n.qXqXqX,X9.w , ",
"e.t.Z.Z.V.V.Y o b.MXAXvXcXJXJXFXCXcX4 : m j.z.z.z.C @.@.#.m < T T ^.LXDX~.NXZXKXFXFXf * l C f.g.! W W J J k * R zXqXqXqX0.0.u = ",
"e.t.Z.A.V.V.Y o b.MXAXBXcXJXJXFXJXcX4 : ..j.z.z.z.C @.@.#.m = T T ^.LXDX~.NXKXKXFXFXf * l C f.g.! W W J J k * R zXqXqXqX0.0.u = ",
"e.i.e.u.U U @ > i AXcXP.Y.cXcXBXY.I _ 9 z +.l.l.j.j.@.#.C : _ 3 4 G.~.].'.FXDX'.I I G K - N ~ ! ~ W W J b : q w q.mX,X,X>X0.u < ",
"i.i.V.u.1 1 z $.0 3.Y.S.VXAXAXAXv.y %X X@ x $.$.k.j.+.C j q XX' ' a Q.~.DX`.(.H.G G W.vXt > B V N b b M 5 w |.[ # ,X,X,X,X0.y = ",
"t.i.u.s 8 8 B l.$.: b./.zXKXKXzXw  X3X5X' : j.#.z.#.+.c w XX1X<X<Xq w.`.!.(.!.t P.P.KXKXnX2 m C M M M v # X.:.=.q g qXqX,X>X[ & ",
"t.i.u.s 8 8 C l.$.: 8./.zXKXKXzXw  X3X5X' : #.#.z.#.+.c w XX1X<X<Xq w.`.!.(.!.f P.P.KXUXnX2 m C M M M v # X.:.=.q g qXqX,X>X[ & ",
"e.N.D - m m h.x.$.m 3 S.ZXxXxXt { %X%X%X$Xu t t #.#.m @ =.1X1X1X1X-Xw N.].'.K 8.BXBXcXnXW.S.3 ~ Q b b 1 ' ;.|.&.&.w P P qX;Xi = ",
"U w.X h C C x.l.#.$.z e vX5.5.` $X<X&X=XgX<X9 9 l B : [ 1X1X1X1X1X1X:.3 !.7.n LXnXnXW.ZXCXGXE > M 5 5 q $X.X.X|.:.-.@ @ J 2.# 4 ",
"w 1 0 C z.z.l.4.#.j.$.0 t 9 9 |.&X3X1X*XtX1X:.:.: > q XXyX1XyX1X1X1X:X_ t i zXUXFXFXSXJXFXJXvXG ; 9 9 ;.&X=X.X|.;.-._ _ @ r * 4 ",
"w 1 0 C z.z.l.4.#.j.$.0 t 9 9 |.&X3X1X*X7X1X:.:.: > q XX1X1XyX1X1X1X:X_ t i zXUXZXZXBXJXFXJXvXG ; : 9 ;.&X=X.X|.;.-._ _ o r * 4 ",
"y 1 B f.z.z.f.~ j.l.j.m 3 ` ` &X7X7X>XwXuXiX3X3Xo.p *.<X1XeXiX<X<X<X:X-.w <.MXAXMXMXCX'.'.NXNXp.4 ] ] $X=X=X@X X XOX[.[.q 3 2 < ",
"9 7 r ~ 4.4.h.f.#.C V t S.t t X.uXwX9XtXiXjX-X-X> > q yXeXeXyX<X<X:X1X] / G 3.KXBXnXFXW.GXDXT.t r y y $X=X=X$X@X@XOX} } r 1.o < ",
"-. X2 v l.l.f.4.@.j.> a.LXvXvXr oXrXrXuXuXeXw w x #.: =.yX1XwX<X<X<XX.G NXnX: b.vXvXGXCXDXHXf ; B > > ` &X6X=X@X.X{.w w 5.qXi % ",
"-. X2 v l.l.~ 4.@.j.> a.LXvXvXr oXrXrXuXuXeXw w x #.: =.yXeXwXwX<X<XX.H NXnX: b.vXvXGXCXDXHXG ; B > > ` &X6X=X@X.X{.w w 5.qXi % ",
"@X2X:.X V V z.@.j.m K ~.LXLXLXa.q tXrXrXwX .j j #.l.4.@ oXtX:X<X<X X6 S.UXUXlXw T.T.'.FXGXS.; l M V V : %.#X=X$X#X` H H n.qXo.= ",
" X%X*X_ - - j.j.B 1 H._.`.NXFXGXG X.sXrX .1 V V l.l.x.b 9 :X<X:X<Xy t.`.ZXAXJX6.G G DXDXH.w l B g.V V c @ %.$XoX%.3 8.8.I.0.u p ",
" X%X*X_ - - j.j.B 1 H._.`.FXFXGXG X.sXrX .1 V V l.l.x.b 9 :X<X<X<Xy t.`.ZXAXJX6.G G DXDXH.w l B g.V V c o %.$XoX%.3 8.8.I.0.u p ",
"@X@X4X2Xq q j C : p.SXGX).DXDXGX'.r XX:.: v f.f.l.z.j.x.5 ] 3XX.' Y `.).DXKXGXSXt t 8.'.6 0 m C d.N N C > 9 .X;.3 5.I.I.n.0.2.p ",
"4X@X@X2X X X: - I ^.DX].`.).).`.HXH.w + l j.z.h.z.z.z.4.4.9 _ t t W.HXQ.).].`.LXnXnXG 6 - B C N C C C C V : q q 1.I.8.8.q.8Xo.p ",
"=X$X=XfXgXgX=.p P.bX'.].).).).`.HXK.4 - x #.#.#.k.k.#.#.j.m = p.p.bXvX!.J.Q.`.DXNXNXP . h d.#.#.M M M M M m 2 4 b.L.b.b.q.>X] e ",
"=X$X=XfXgXgX=.p P.bX'.].).).).`.HXK.4 - x #.#.#.k.k.#.#.j.m = p.p.bXvX!.J.Q.`.DXNXNXP . h d.#.j.M M M M M m 2 4 b.L.b.b.q.>X] e ",
"$X$X$X7XoXoXu @ 6.^.!._._._._.(.).f d 1 l @.@.@.@.l.C ~ g.r # i g vXDXR.).V.Q.).y.y.f d - x ..@.M N N M k l r 4 L S.b.b.qX>Xu e ",
"+X#X|.XXy y o.|.o D.Q.~.)._._._.y.6 P.I X B 4.4.x.l.~ ~ Z 9 %.7 9 ( '.'.].A.V.N.t t L.E.3 ; ....V N N b j : A K o 5.n.n.q.0.] w ",
"+X.X$X] u u &XiX' 6 J.~.Q.].].J.3 S.FXE.G : V V ~ C ! W @ | ,.| | 2 p.DX^.Q.Q.s 1.1.MXMXL.1 l m B v v b 5 H u.y.Z 3 q.q.q.0. .y ",
"+X.X$X] u u 6XiX| 6 J.~.Q.].].J.3 S.FXxXG : V V ~ C ! W @ | ,.| | 2 p.DX^.Q.Q.s 1.1.MXZXL.1 l m B v v b 5 H u.y.Z 3 q.q.q.0. .y ",
"}.#X;.@ ,.,.sXsXuX' R `.Q.!.!.t / D.CXxXE.t > > ~ ! ! : - $.,.>.O.q 6 Q.(.).Y i L.L.MXMXMX8.o v v b b > 4 N.V.m.^ s r r 6.0.i 4 ",
" X{.o *.oXoXwXsXkXtX9 ( ).K K Z J.J.^.E.bXL.o o j b 3 @ ..$.O.O.O.O.7 H (.D.1 b.xXxXMXPXPXPXy ; v j j : T y.N.m.r./ # # L q.i < ",
"' 9 ` oXrXrXrXwXwXwX;X9 K 1 1 H.K.V.F.nXxXU.5.5.X ; : ....O.O.,.,.O.O.@ E f 5.bXbXbXIXPXzXlX8.3 ; @ - S u./ t.m.^ R f f : n 2 < ",
"' 9 ` oXrXrXrXwXwXwX;X9 K 1 1 H.K.V.F.nXxXU.R 5.X ; : m +.O.O.,.,.O.O.+ E f 5.bXbXbXIXPXzXlX8.3 ; @ - S u./ r.m.^ R f f : n 2 = ",
"# 9 ,.,.9X9X0X9XwXaXaXO.* / / R.~.Q.J.vXE.E.W.W.G + 8 +.j.+.O. . . .| 0 2 P zXUXzXzXlXzXY.qXzXS.# 4 6 t.V.u.m.t.^ R U U d * % 4 ",
"4  .9X0X;X;X;X0X0XaX8Xo.4 R R !.`.J.J.W.vXxXP.P.6 % 0 #.4.$.$.......z z 4 P lXMXNXNXS.P.bXzXzXS.2 t t N.B.w.^ T R E U U d y 3 3 ",
"=  .9X0X;X;X>X0X0XaX8Xo.4 R R `.`.J.J.W.vXxXP.P.6 % 0 #.4.$.$.......z z 4 P lXMXNXNXS.P.bXzXzXS.2 6 t N.B.w.^ T R E U U d y 3 3 ",
"u * >.0.9.9.0X0.0.8Xo.6 / : : M.K.J.R.cXcXE.G G A F o  ...$.l.@.+.0 z 1 [ q I U.s.s.H.E.zXxXU.e ; - - T w.E K I E U d d 3 4.r 2 ",
"*.q 9 ,.c.c.8X0.8X=.1 / U.4.4.3 J.M.U.E./.I 6 6 V.Z.K - ....B m m x : u 1X-X# 8.H.H.D.L.bXvXR : B 0 0 1 w.R I I T U 3 3 1.4.u * ",
"&.X.7 u ,.,.8X0.;X9 J S.v.v.v.r G C.H.H.7.6 r.r.V.G.G.s 0 ..m z z r y -X-X-X&.e S.S.I.I.U.7.# v B c m : s E R Y U 4 G G 4.2.u * ",
"&.X.7 u ,.,.8X0.;X9 J S.v.v.v.r G C.H.H.7.6 r.r.V.G.G.s 0 ..m z z r y -X-X-X&.e S.S.I.I.U.7.# v B c c : s E R Y U 4 G G 4.2.u * ",
"&. .` @ O.O.;X;Xu c 6./ R v.v.v.: / M.v.e R B.B.F.F.V.w.* z z u u 7 &.1X:XXX:Xq G G Y.P.7.G : M W m m c @ A T D s w 3.5.I 1.9 * "
};
