/* XPM */
static const char *texture[] = {
/* columns rows colors chars-per-pixel */
"48 64 210 2 ",
"   c #030303",
".  c #090606",
"X  c #0C0807",
"o  c #070708",
"O  c #070809",
"+  c #0D0A0A",
"@  c #130D0C",
"#  c #1A0F0D",
"$  c #15100D",
"%  c #1A110E",
"&  c #141212",
"*  c #1B1413",
"=  c #1E1915",
"-  c #161718",
";  c #1D1B1B",
":  c #211614",
">  c #221916",
",  c #241C1A",
"<  c #291D1B",
"1  c #331F1E",
"2  c #25211E",
"3  c #2B211E",
"4  c #30201E",
"5  c #1F1F20",
"6  c #252221",
"7  c #2C2422",
"8  c #2B2825",
"9  c #272829",
"0  c #2D2A2A",
"q  c #322524",
"w  c #342926",
"e  c #3B2827",
"r  c #352B2A",
"t  c #3B2D2B",
"y  c #36312F",
"u  c #3D312E",
"i  c #2E2F31",
"p  c #3C3432",
"a  c #383534",
"s  c #3E3A38",
"d  c #422E26",
"f  c #422C2B",
"g  c #542C2D",
"h  c #48332D",
"j  c #433434",
"k  c #4C3534",
"l  c #443935",
"z  c #4A3935",
"x  c #463738",
"c  c #463B3A",
"v  c #4B3C3B",
"b  c #573934",
"n  c #523D3E",
"m  c #42403D",
"M  c #4B413E",
"N  c #56413B",
"B  c #5B453C",
"V  c #67463B",
"C  c #443F40",
"Z  c #454343",
"A  c #4D4342",
"S  c #4F4947",
"D  c #4B4A4A",
"F  c #544544",
"G  c #5C4645",
"H  c #544847",
"J  c #584B46",
"K  c #554B4B",
"L  c #5A4B4A",
"P  c #54504E",
"I  c #5C504E",
"U  c #524E51",
"Y  c #545254",
"T  c #5C5252",
"R  c #5E5855",
"E  c #5D5B5B",
"W  c #6A4D43",
"Q  c #654C49",
"!  c #774949",
"~  c #67554E",
"^  c #75574C",
"/  c #645554",
"(  c #6C5454",
")  c #655A56",
"_  c #645B5A",
"`  c #6A5A5A",
"'  c #775553",
"]  c #725C5C",
"[  c #69615D",
"{  c #77635A",
"}  c #5E5F60",
"|  c #625D61",
" . c #785F60",
".. c #6C6563",
"X. c #6A6666",
"o. c #736463",
"O. c #786866",
"+. c #726B6B",
"@. c #7B696A",
"#. c #77716F",
"$. c #706D73",
"%. c #757273",
"&. c #7D7372",
"*. c #7C7976",
"=. c #7E7C7A",
"-. c #805D4F",
";. c #86685D",
":. c #826264",
">. c #886E64",
",. c #836B6C",
"<. c #897469",
"1. c #92766A",
"2. c #877675",
"3. c #827B7B",
"4. c #8C7C7C",
"5. c #987B7C",
"6. c #A0786D",
"7. c #86827E",
"8. c #978277",
"9. c #A5816F",
"0. c #A68779",
"q. c #B1917E",
"w. c #827E82",
"e. c #858384",
"r. c #8B8484",
"t. c #8B8887",
"y. c #8D8B8B",
"u. c #978685",
"i. c #928B8B",
"p. c #8F908F",
"a. c #9A918A",
"s. c #958E90",
"d. c #959494",
"f. c #999696",
"g. c #9A9896",
"h. c #9C9C9B",
"j. c #A38C89",
"k. c #A89489",
"l. c #B79A8E",
"z. c #A99694",
"x. c #A29D9D",
"c. c #B19B92",
"v. c #BB9D91",
"b. c #9FA09E",
"n. c #A1A19E",
"m. c #BAA398",
"M. c #A29EA2",
"N. c #A4A4A3",
"B. c #A9A4A4",
"V. c #A7A9A6",
"C. c #AAA9A6",
"Z. c #AAA5A9",
"A. c #ACADAB",
"S. c #B4ACAC",
"D. c #AFB0AD",
"F. c #B1B1AE",
"G. c #B8B1AF",
"H. c #B1AEB1",
"J. c #B4B5B2",
"K. c #B6B6B4",
"L. c #B9B4B4",
"P. c #B7B8B5",
"I. c #B8B9B7",
"U. c #B9B6B9",
"Y. c #BABBB9",
"T. c #BCBCBB",
"R. c #BCBDBB",
"E. c #BEBFBC",
"W. c #C4A38E",
"Q. c #C7AA9B",
"!. c #CBB3A7",
"~. c #D2B8A7",
"^. c #CABAB3",
"/. c #C2BDBC",
"(. c #D8BFB0",
"). c #BFC0BD",
"_. c #C1C1BE",
"`. c #C0C1BF",
"'. c #CDC0BB",
"]. c #D9C3B6",
"[. c #E1CABC",
"{. c #C2BFC1",
"}. c #C2C3C1",
"|. c #C4C4C3",
" X c #C4C5C3",
".X c #C5C6C4",
"XX c #CAC6C5",
"oX c #C7C8C6",
"OX c #C8C9C7",
"+X c #CAC7C9",
"@X c #CACBC8",
"#X c #CCCDCB",
"$X c #CECFCD",
"%X c #D4C8C4",
"&X c #D2CECD",
"*X c #CFD0CE",
"=X c #D0D1CF",
"-X c #DED1C9",
";X c #CFCDD0",
":X c #D1CFD1",
">X c #D3D3D2",
",X c #D9D5D4",
"<X c #D8D7D7",
"1X c #D9D8D7",
"2X c #DDDAD9",
"3X c #E4CFC3",
"4X c #E1DEDE",
"5X c #E0DFE0",
"6X c #E4E3E3",
"7X c #E9E7E7",
/* pixels */
"e.t.y.p.d.f.h.h.N.N.C.A.A.F.J.J.K.K.I.I.I.I.I.I.K.K.J.J.F.F.D.A.A.C.V.N.N.N.b.h.h.h.g.f.d.d.d.p.",
"t.y.d.f.f.h.h.N.N.C.A.D.J.J.K.I.Y.Y.R.R.E.R.R.R.R.R.I.I.I.J.J.J.D.D.A.A.C.V.N.N.N.n.h.h.h.g.f.d.",
"y.d.f.h.h.b.N.V.A.A.F.J.K.I.Y.R.E.E.`.`.}.}.}.}.`.`.).E.R.Y.I.I.K.J.J.J.F.D.A.A.C.V.N.N.n.h.h.h.",
"d.f.h.h.N.N.V.A.D.J.J.K.Y.R.E.`.`.}.}. X X.X.X.X X X X}.`.`.E.R.R.Y.I.I.K.J.J.F.D.A.A.C.N.N.N.h.",
"f.h.h.N.N.C.A.D.J.K.I.Y.R.E.}.}. X.X.XoXOXOX@X@X@XOXOX.X.X X}.`.).E.E.R.R.Y.I.K.J.J.F.A.A.C.N.N.",
"h.h.N.N.C.A.D.J.K.I.Y.E.`.}. X.XOX.X.X#X$X$X$X$X$X$X$X@X@XOX.X X X}.}.`.`.E.R.Y.I.I.J.J.F.A.A.C.",
"h.N.N.C.A.D.J.K.I.Y.E.`.}. X.X.Xe.D D X.t.h.b.N.N.N.A.K.E.OX#X@XOX.X.X X X}.`.E.E.R.I.I.J.J.D.A.",
"N.N.C.A.A.J.K.I.Y.E.`.}. X.X@XJ.9 O     o + + @ & & - 5 0 D =.I.$X@X@XOXoX.X X}.`.).R.Y.I.J.J.F.",
"N.C.A.A.J.J.I.Y.R.E.}. X.XOX#XN.; O                         o i g.$X$X@X@XOX.X.X X}.`.E.Y.I.K.J.",
"V.A.A.F.J.K.Y.R.E.`.}..XoX@X$XC.; o                             5 h.>X$X#X@X@XOX.X X}.`.E.R.I.K.",
"C.A.D.J.K.I.Y.E.`.}. X.XOX@X*XA.;                             o o i K.>X$X$X@X@XOX.X X}.`.E.R.I.",
"A.D.J.J.K.Y.R.E.`.}..XOX@X#X=XA.;                               O o } *X=X*X$X@X@XOX.X X}.`.E.Y.",
"D.J.J.K.I.Y.E.`.}. X.X@X@X$X>XA.;         . . . + @ X           o O ; A.>X=X*X#X#XOXOX.X X}.`.R.",
"F.J.K.I.Y.R.E.}. X.XoX@X#X$X>XJ.5       . @ % < : d h $           O O %.<X>X=X$X#X@XOX.X X}.`.E.",
"J.J.K.Y.Y.E.).}. X.XOX@X#X*X>XR.9 @ + @ , t 1.;.h z b < @             Z $X>X>X*X$X#X@XOX.X X}.`.",
"J.K.I.Y.R.E.`.}..X.XOX@X$X*X>X Xs @ $ d W ^ v.Q.l.v.0.u ; O         o 6 R.>X>X=X$X#X@XOXOX X X}.",
"K.K.Y.Y.E.).}. X.XoX@X@X$X*X>X@XZ X = W ^ k { l.[.[.k.h t &           & N.<X>X>X*X$X@X@XOX X X}.",
"K.K.Y.Y.E.`.}. X.XOX@X@X$X*X>X=XP . , W W ' l.].3X[.>.k w ; &         + h.<X>X>X*X$X@X@XOX.X X}.",
"K.Y.Y.R.E.`.}. X.XOX@X@X$X*X>X=X..X 7 N h b ! 0.(.].1.h e = ;         + h.<X>X>X*X$X#X@XOX.X X}.",
"K.Y.Y.E.E.}.}..XoXOX@X@X$X*X>X$X3.* p B k ! 5.l.Q.~.0.V q & ; O       & A.<X>X>X*X$X#X@XOX.X X}.",
"I.Y.Y.E.).}. X.XOX@X@X#X$X*X>X>XC.8 c { B 1.Q.~.Q.W.9.N 3 , 6 +       9 }.<X>X>X=X$X#X@X@X.X.X X",
"Y.Y.R.E.`.}. X.XOX@X@X#X$X*X>X>XoXm 7 <.^ ;.0.q.0.6.-.d > & ; +   @   Y >X>X>X>X=X$X#X@X@XOX.X X",
"Y.Y.R.E.`.}..X.XOX@X@X$X$X*X>X>X<X*.O 3 { W V V V ^ W b q + = @ 8 q & f.<X>X>X>X=X$X#X@X@X.X.X X",
"Y.Y.E.E.}.}..X.XOX@X@X#X$X*X>X>X<XR.9   ) 1.b V -.9.q.^ u @ ; ; t w _ @X<X>X>X>X*X$X#X@X@XoX.X X",
"I.Y.E.E.}.}. X.XOX@X@X#X$X*X>X>X>X<Xe.  a k.B ;.l.Q.!.9.d * - 6 > > ..>X<X>X>X=X=X$X#X@X@X.X X X",
"Y.Y.E.E.}.}. X.XOX@X@X#X$X*X=X>X>X>X$XE = a.{ ;.v.!.~.Q.1.b , r q > 7 C.1X>X>X>X=X$X#X@XOX.X.X X",
"Y.Y.E.E.`.}. X.XoX@X@X#X$X*X*X>X>X>X<X@XX.+.>.Q 0.Q.~.].Q.0.8.L z 7 , K C.K. X$X=X$X#X@XOXoX.X X",
"I.Y.E.E.`.}. X.XoX@X@X#X$X*X*X>X>X>X>X<X>XG.8.G ;.l.Q.~.m.m.0.F t z j l K &.O.4.J.$X#X@XOXoX.X X",
"Y.Y.E.E.`.}. X.XoX@X@X#X$X*X*X=X>X*X$X<X<X>Xa.B ^ 8.v.l.!.W.{ H l c t t H O.@.O.o.Z.#X@XOXOX.X X",
"Y.Y.R.E.`.}. X.XoXOX@X@X#X*X*X=X>X#XK.D.}.*X8.W W >.m.!.].v.~ ` L e e t K a.4.2. .o.N.OXOXOX X}.",
"Y.Y.R.E.`.}. X.XoXOX@X@X#X$X*X*X$X@XA.t.E *.{ 1.1.1.!.].].!.+./ v q q z v 2.@.,. ./ ..F. X X X}.",
"Y.Y.R.E.).}. X.X.XoX@X@X@X$X*X#XI.f.X.Z 9 q @.m.m.c.c.'.-X<X3.H q q t H w o.@.( o.H A X.`.`./.}.",
"Y.Y.R.E.`.}. X X.XoX@X@X@X$X$X$XS.=.s + l <.j.k.c.z.C.<X6X6X3.l q e n v 7 z.u./ @.v K t g..XE.Y.",
"Y.Y.R.E.`.}. X X.XoX@X@X@X$X*Xg.s > . 8 7.c.2.o.m.XX2X6X7X7Xi.p f j / t > @.( O.o.L o.t ..}. XE.",
"I.Y.R.E.`.}. X X.XoXOX@X@X#X*Xt.w > 6 +.x.u.S X.L.&X2X4X6X4Xi.z v v ` , x ] Q ,.H @.2.v / F. X}.",
"I.I.R.E.`.`.}. X.X.XOX@X@X#X*Xx.u , %.A.B.X.P A.$X+X<X>X%X%X2.K F H ` e ] j.:.:.k u.O.F o.4. X}.",
"K.I.R.E.).`.}.}. X.XoXOX@X@XOX..* K J.{.Y.%.y.:X:X#X:X'.!.^.O.L L L n f :.z.5.( n u.F v 5.` I.`.",
"K.I.R.E.E.`.`.}. X.XoXOX@XoXN.s 8 h.#X.X@XR.+X:X;X+X#X/.^.XX+.K I ` j f  .2.5.( ] 2.j l j.Q B.}.",
"K.I.R.E.E.).`.}. X X.XOX@Xp.S 6 E {.;X.X:X#X>X:X$X@X.X{. X XX.H ` ` e G :.] u.] u.] k n z.G t. X",
"K.I.R.R.E.E.`.}. X X.XOXR.S 0 = w.{.#X.XXX#X;X#X+X.X/..X+X{...K i.&.q n ' ` 2.Q 2.z e ( u.n *.`.",
"K.I.R.R.R.E.`.`.}. X.XOXy.r ; ; e.{.#X/.+X#X.X{.{.U.L.R..XY.E S x.&.* j 4.( ,.,.,.q , G 4.v #.`.",
"K.I.Y.R.R.R.E.`.}. X.X}.R + . ; w.R.U.C.{.J.Z.x.f.d.h.A.U.Z.Y s s.o.* z z.,.` o.Q 7 , x o.F O.`.",
"K.I.Y.Y.R.R.E.`.`.}..XJ.v @ . = $.H.e.*.R.J.A.Z.N.h.f.h.M.t.S y 3.T * A S.` H F j 3 < l ) N [ R.",
"J.I.I.I.Y.R.R.).`.}..Xx.x < . @ Y e.Y 3.{.R.H.M.s.e.3.3.w.+.c 0 K r * A G.2./ F e 3 < z / v ) I.",
"J.K.I.I.I.Y.R.E.`.`. Xd.v t @ + 0 U E y.h.s.i.i.r.*.+.X.+...s 6 w * % q i.&.L F < , < A ` j H n.",
"J.J.J.I.I.I.R.R.`.`. X7.x x > X & Z w.Z.J.J.Y.R.U.J.Z.M.i.X.p 2 7 # * * L I t x , > < v ` t v g.",
"F.J.J.K.I.I.R.R.).`.`._ j A t @ + 6 %.U.#X<X<X<X<X<X>X#XH.%.p 2 , @ @ * z M w p < : < l K q t u.",
"J.J.J.I.I.I.R.R.R.`.I.S p v l * @ o 7 K 3.+X7X6X5X2X2X<X/.w.p * * + * : q x t w 3 : > u L t q ..",
"J.J.J.P.I.I.Y.R.R.`.C.p p A F < &   0 T 3.B./.+X&X&X&X>X Xh.Z @ @ + : > > w t 3 q : : t L e e J ",
"J.J.J.J.I.I.I.R.R.`.7.7 j v c 7 & 0 | _ 3.x.L.XX&X=X&X&X/.f.S = @ * > @ > < 7 , r , * w L e w x ",
"J.J.J.J.P.I.I.R.R.).y.8 c F l w & & | Z.U..X.X{.XX&X<X<X+XS._ * @ * @ + , : * < r < : w H q 3 t ",
"F.J.J.J.J.I.I.I.R.R.p.q T / c t a a C f.Y.{. X XXX+X=X&X@XJ.+.* @ @ . = < * @ * q < > q H < q e ",
"F.F.F.J.J.I.I.R.I.*.y 7 L L A q Y A.y.B..X&X>X>X&X&X&X&X=XY.3.6 +   + , * @ @ $ > < * * j , w p ",
"F.F.F.J.J.I.I.N.%.8 = 7 K A p , 6 ..&.r.S. X+X>X<X<X>X&X&X/.r.0 X . - < $ + : q t t q l z : < t ",
"D.F.F.J.J.I.r.P c q < q F t < 0 E *.x.{.+X&X&X&X>X<X<X<X&X Xy.r . @ 7 > + . < < q c H L q # , < ",
"F.F.F.J.I.g.S &.p 7 q q e 1 w e.U.R.R.XX#X>X<X<X1X1X2X4X2X+XN.p X 2 3 > + . c 7 * 7 c q # % , < ",
"F.F.J.J.N.S R ..< * < w e g ( s.M.d.d.Z.H.L./.XX+X&X&X&X+XY.i.p * 7 = < . . c K 7 3 7 < % % : , ",
"F.F.J.J.=.M I t q < < w j ! ! 4.U./.}..XXXXX@X=X1X2X4X2X>X`.i.r , < > <   X p ` ) v v < : : * , ",
"A.F.J.C.R [ J x l l u w p Q b n i.C.J.L.L.Y./.`.XX&X>X<X=X`.=.7 , * > 3 X @ p I 3.*.o.c , % % : ",
"A.D.J.t.y , & * * > M A r 7 f k q 3 7 7 7 8 r u j M / &.u.i._ = = $ * , @ * c ..+.+.K u < % % > ",
"A.A.J.7.2     @ @ @ 7 ..M < < t e > * $ X             . $ < 7 = = @ $ > @ * A 4.i.X.p 3 , # # q ",
"A.A.A.[ =   X + @ + @ c ) > % < 4 @ * > > > * +               $ % @ $ * % * 3 T r.3.l * * @ % K ",
"A.A.7.y < * + X @ X X > ) a @ % * X X @ @ $ % = > @ + X       @ % $ $ @ * * > r p < > @ % @ < 3.",
"C.A.e.c 2 & O X + . . @ a c 7 X @ @ 7 = . X X = 7 $ * > > $ X @ % % @ @ * $ * 7 7 < > @ > % t f."
};
