/* XPM */
static const char *texture[] = {
/* columns rows colors chars-per-pixel */
"58 64 220 2 ",
"   c #0A1D14",
".  c #021009",
"X  c #0E2219",
"o  c #13251C",
"O  c #162A1F",
"+  c #1B2C23",
"@  c #182722",
"#  c #212D25",
"$  c #222D2B",
"%  c #23352C",
"&  c #263B2C",
"*  c #2C3C34",
"=  c #283633",
"-  c #333C34",
";  c #373A38",
":  c #2D4434",
">  c #33453C",
",  c #3D4939",
"<  c #464D3C",
"1  c #56543E",
"2  c #635A3F",
"3  c #343F42",
"4  c #394445",
"5  c #3B4D44",
"6  c #394948",
"7  c #39534A",
"8  c #365452",
"9  c #37625A",
"0  c #3F6561",
"q  c #434C4D",
"w  c #404646",
"e  c #43544C",
"r  c #445449",
"t  c #575E4C",
"y  c #4C5C55",
"u  c #485756",
"i  c #545E5B",
"p  c #505C56",
"a  c #625945",
"s  c #4E6154",
"d  c #44625D",
"f  c #4C665C",
"g  c #54665C",
"h  c #55655B",
"j  c #577D59",
"k  c #686B5A",
"l  c #77725A",
"z  c #446563",
"x  c #4A6564",
"c  c #446A64",
"v  c #4A6B65",
"b  c #496669",
"n  c #4C6C6B",
"m  c #476C68",
"M  c #5B6B63",
"N  c #516C6D",
"B  c #586967",
"V  c #4C726B",
"C  c #5A7166",
"Z  c #53726D",
"A  c #5B736B",
"S  c #5D796F",
"D  c #526E71",
"F  c #547273",
"G  c #5A7574",
"H  c #547A74",
"J  c #5D7973",
"K  c #597779",
"L  c #5B7A7B",
"P  c #4F7370",
"I  c #626C64",
"U  c #666B67",
"Y  c #63736B",
"T  c #68786B",
"R  c #787868",
"E  c #637B73",
"W  c #6B7C74",
"Q  c #637C7C",
"!  c #6A7D7C",
"~  c #647575",
"^  c #717D75",
"/  c #757E7A",
"(  c #7B7D76",
")  c #817C68",
"_  c #5B837C",
"`  c #588076",
"'  c #74826B",
"]  c #64827C",
"[  c #69827E",
"{  c #6A8478",
"}  c #73847B",
"|  c #7C847B",
" . c #768477",
".. c #66826B",
"X. c #948A6A",
"o. c #8B9178",
"O. c #99937B",
"+. c #8D8971",
"@. c #A99D7A",
"#. c #657E80",
"$. c #6A7E81",
"%. c #5E8480",
"&. c #648382",
"*. c #6B8383",
"=. c #6C8986",
"-. c #718684",
";. c #728B86",
":. c #7A8D83",
">. c #758C8A",
",. c #7C8D8C",
"<. c #779288",
"1. c #7A9488",
"2. c #7E9792",
"3. c #71948B",
"4. c #78A898",
"5. c #818B83",
"6. c #8A8B85",
"7. c #82958C",
"8. c #8B938E",
"9. c #829B8C",
"0. c #9B9A86",
"q. c #839592",
"w. c #859B92",
"e. c #8C9C94",
"r. c #8C9D9A",
"t. c #899795",
"y. c #939B94",
"u. c #939D9B",
"i. c #979D98",
"p. c #918F82",
"a. c #A39D84",
"s. c #85A699",
"d. c #8CA499",
"f. c #84AC9D",
"g. c #8BA99D",
"h. c #8AA497",
"j. c #93A59B",
"k. c #9AA39E",
"l. c #95AA9E",
"z. c #96A79B",
"x. c #9EA081",
"c. c #ABA589",
"v. c #A6AB9B",
"b. c #AAA997",
"n. c #B2AC95",
"m. c #B1AE9A",
"M. c #B8B39A",
"N. c #B3AA8B",
"B. c #81AEA0",
"V. c #8CAEA1",
"C. c #9AA6A5",
"Z. c #94ACA2",
"A. c #9BACA4",
"S. c #9AA9A6",
"D. c #8CB1A4",
"F. c #8AB4A5",
"G. c #95B2A6",
"H. c #9CB1A6",
"J. c #95B5A8",
"K. c #9CB5AA",
"L. c #9EB8AD",
"P. c #A1ABA6",
"I. c #A3ADAB",
"U. c #AAAFAB",
"Y. c #ABABA4",
"T. c #A4B5AC",
"R. c #AAB4AD",
"E. c #A4B9AE",
"W. c #A8BAAE",
"Q. c #A4B1A6",
"!. c #BBB7A2",
"~. c #BCB9A4",
"^. c #B9BCAC",
"/. c #A6B2B1",
"(. c #ACB4B2",
"). c #A5BBB1",
"_. c #ABBBB2",
"`. c #AFBABB",
"'. c #B1BCB6",
"]. c #B4BCBA",
"[. c #B9BEBC",
"{. c #B1B7B4",
"}. c #C2BEAC",
"|. c #ACC0B6",
" X c #AEC1B8",
".X c #A7C1B4",
"XX c #B3C0B6",
"oX c #B4C3BB",
"OX c #BAC4BE",
"+X c #BAC9BD",
"@X c #C3C1AE",
"#X c #C4C6BB",
"$X c #C6C6B5",
"%X c #BDC4C2",
"&X c #BCCAC4",
"*X c #B7C6C3",
"=X c #BFD0C9",
"-X c #C1C6C4",
";X c #C3CAC5",
":X c #CACEC5",
">X c #C6CBC9",
",X c #CACDCC",
"<X c #C1C7C8",
"1X c #CDD0CE",
"2X c #C5D2CA",
"3X c #CACFD0",
"4X c #CED2D1",
"5X c #D2D5D4",
"6X c #D5D8D7",
"7X c #D4D7D8",
"8X c #D6D9DA",
"9X c #D9DBDD",
"0X c #D4D6CB",
"qX c #DDDFE1",
"wX c #DDDEE0",
"eX c #DFE0E2",
"rX c #DEE0E2",
"tX c #E1E2E5",
"yX c #E5E6E9",
"uX c #F0EEF1",
/* pixels */
"9X9X9X9X9X9X9X9X9X9X9X9X9X9X9X9X9X9X9X9X9X9X9X9X9X9X9X9X9X9X9X9X9X9X9X9X9X9X9X9X9X9X9X9X9X9X9X9X9X9X9X9X9X9X9X9X9X9X",
"9X9X9X9X9X9X9X9X9X9X9X9X9X9X9X9X9X9X9X9X9X9X9X9XqXqX9X9X9X9X9X9X9X9X9X9X9X9X9X9X9X9X9X9X9X9X9X9X9X9X9X9X9X9X9X9X9X9X",
"9X9X9X9X9X9X9X9X9X9X9X9X9X9X9X9X9X9X9X9X9X9X9X9X/./.tX9X8X9X9X9X9X9X9X9X9X9X9XqX9X9X9X9X9X9X9X9X9X9X9X9X9X9X9X9X9X9X",
"9X9X9X9X9X9X9X9X9X9X9X9X9X9X9X9X9X9X9X9X9X9X9XqX,.N (.8XtX9X9X8X9X9X9X9X8X9X9X,X9X9X9X9X9X9X9X9X9X9X9X9X9X9X9X9X9X9X",
"9X9X9X9X9X9X9X9X9X9X9X9X9X9X9X9X9X9X9X9X9X9X8XtX].Q Q >.`.7X9XeXqX9X9X9XqXtXr.-.9X9X9X9X9X9X9X9X9X9X9X9X9X9X9X9X9X9X",
"9X9X9X9X9X9X9X9X9X9X9X9X9X9X9X9X9X9X9X9X9X9X9X9XeX>.N Q *.2.r.].3X9XqXqX%X,.N q.eX9X9X9X9X9X9X9X9X9X9X9X9X9X9X9X9X9X",
"9X9X9X9X9X9X9X9X9X9X9X9X9X9X9X9X9X9X9X9X9X9X9X8XyXu.z Q >.=.] K Q >.t.q.K G K (.tX8X9X9X9X9X9X9X9X9X9X9X9X9X9X9X9X9X",
"9X9X9X9X9X9X9X9X9X9X9X9X9X9X9X9X9X9X9X9X9X9X9X8XtX/.v ;.>.[ ! *.*.=.&.Q B Q x %XeX9X9X9X9X9X9X9X9X9X9X9X9X9X9X9X9X9X",
"9X9X9X9X9X9X9X9X9X9X9X9X9X9X9X9X9X9X9X9X9X9X9X8XyXC.S w.] G Q >.>.*.*.! G F G 7X9X9X9X9X9X9X9X9X9X9X9X9X9X9X9X9X9X9X",
"9X9X9X9X9X9X9X9X9X9X9X9X9X9X9X9X9X9X9X9X9X9X9XeX9XG v d 9 z K $.Q N x F *.d r.uX9X9X9X9X9X9X9X9X9X9X9X9X9X9X9X9X9X9X",
"9X9X9X9X9X9X9X9X9X9X9X9X9X9X9X9X9X9X9X9X9XwX4X3Xt.E v.5.C u $.Q B C B Z J v ! I.[.9X9X9X9X9X9X9X9X9X9X9X9X9X9X9X9X9X",
"9X9X9X9X9X9X9X9X9X9X9X9X9X9X9X9X9X9X9X9X9XqX%XW x m.n.}.$XA z Y m.$X}.m.A m d 7.5XqX9X9X9X9X9X9X9X9X9X9X9X9X9X9X9X9X",
"9X9X9X9X9X9X9X9X9X9X9X9X9X9X9X9X9X9X9X9X9X8XtXu.J R k +.N.b.T N.c.o.O.M.0.v L q./.(.9X9X9X9X9X9X9X9X9X9X9X9X9X9X9X9X",
"9X9X9X9X9X9X9X9X9X9X9X9X9X9X9X9X9X9X9X9X8XtX[.d &.X.0.i.l @XM.X.< Y.R 1 N.F L Q (.4X9X9X9X9X9X9X9X9X9X9X9X9X9X9X9X9X",
"9X9X9X9X9X9X9X9X9X9X9X9X9X9X9X9X9X9X9X9X8X].W z #.p.@.O.0.$X~.l ( U.) X.O.F Q *.%XyX9XqX9X9X9X9X9X9X9X9X9X9X9X9X9X9X",
"9X9X9X9X9X9X9X9X9X9X9X9X9X9X9X9X9X9X9X9X9X,XW 7 G :.n.!.}.$X@Xn.a.X.@.c.C J -.K ~ 5X4X;X9X9X9X9X9X9X9X9X9X9X9X9X9X9X",
"9X9X9X9X9X9X9X9X9X9X9X9X9X9X9X9X9X9X9X9X9XtX%XC.N W ~.~.@X#X$X!.M.n.c.' Z ;.] Z Z q./.,X9X9X9X9X9X9X9X9X9X9X9X9X9X9X",
"9X9X9X9X9X9X9X9X9X9X9X9X9X9X9X9X9X9X9X9X9X9XqXyX[.y.!.^.$X#X^.~.!.n.+.f *.x 9 n *.S.tXqX9X9X9X9X9X9X9X9X9X9X9X9X9X9X",
"9X9X9X9X9X9X9X9X9X9X9X9X9X9X9X9X9X9X9X9X9X9X9X7XyX#Xm.@X$X$X}.~.n.c.o.A r.A 8 r.9X3X9X9X9X9X9X9X9X9X9X9X9X9X9X9X9X9X",
"9X9X9X9X9X9X9X9X9X9X9X9X9X9X9X9X9X9X9X9X9X9X9X9X,Xy.@X$X:X:X$XM.n.0.T A 9XtXT.%X9X9X9X9X9X9X9X9X9X9X9X9X9X9X9X9X9X9X",
"9X9X9X9X9X9X9X9X9X9X9X9X9X9X9X9X9X9X9X9X9X9X9XqXQ.v.p.^.v.v.@XM.c.' 9 n I.9XyXyXeX8X9X9X9X9X9X9X9X9X9X9X9X9X9X9X9X9X",
"9X9X9X9X9X9X9X9X9X9X9X9X9X9X9X9X9X9X9X9XeX9X7X>Xj.~.+.U # k m.0.0.T 9 V t.C.4X/.;XtX9X9X9X9X9X9X9X9X9X9X9X9X9X9X9X9X",
"9X9X9X9X9X9X9X9X9X9X9X9X9X9X9X9X9X9XqX7X-X,X>X,XQ.v.$X0.O.M.@.+.c.o.9 z t.:.C.P.* {.8X5X9X9X9X9X9X9X9X9X9X9X9X9X9X9X",
"9X9X9X9X9X9X9X9X9X9X9X9X9X9X9X9XqX9X5Xu.+ y 4X4X,Xz.} ! W y.~ x N N S E 7.8...+XW 5 =X*X;X5X9X9X9X9X9X9X9X9X9X9X9X9X",
"9X9X9X9X9X9X9X9X9X9X9X9X9X9X9X9X;XoX'.*XA.O M 5X{.~ b b b b b F D D ;.A.d.1.j 9.].+ A.=X*XoX2X9X9X9X9X9X9X9X9X9X9X9X",
"9X9X9X9X9X9X9X9X9X9X9X9X9X9X4XoX_. XoXXX2Xk.5 :.A n D N z Z W G N K K *.z.1.j _.&X& } &XOX_.T.8X9X9X9X9X9X9X9X9X9X9X",
"9X9X9X9X9X9X9X9X9X9X9X9X9X5X-X%X;X&X%X,X>XA.{ A F n G G n R  .Y u L B F K  .R.,X&X5 g oXW.).K.,XqX9X9X9X9X9X9X9X9X9X",
"9X9X9X9X9X9X9X9X9X9X9X9X5X>X4X,X>X,X4XOX>.F K F n D n -.[.| Y k 4 [ q = G k.#X>X2Xe 7 oXH.K.).>X9X9X9X9X9X9X9X9X9X9X",
"9X9X9X9X9X9X9X9X9X9X9X9X>X,X,X,X>X_.j.Q n F F N F D D (.S.G 6.[.B k - i ,X4X,X,X8Xy 5 &XK.f.V.>X9X9X9X9X9X9X9X9X9X9X",
"9X9X9X9X9X9X9X9X9X9X9X4X>X,X,X,X-X[ x n D b b n F D n F K C.,X5X>Xq @ ^ 9X>X,X,X9Xy e 5XK.4.J.,X9X9X9X9X9X9X9X9X9X9X",
"9X9X9X9X9X9X9X9X9X9X9X%X*X>X,X,X*.z n F D q.I./.7 x S.S.*X5X,X,X[.4 @ B 5X,X,X,X9Xu p 9XG.3.J.,X9X9X9X9X9X9X9X9X9X9X",
"9X9X9X9X9X9X9X9X9X9X5X%X&X;X5XC.m V n n =.&X5X9XM * 2X+X+X;X,X1X].q $ B 5X,X,X,X6X5 Y 8X3.` G.,X9X9X9X9X9X9X9X9X9X9X",
"9X9X9X9X9X9X9X9X9X9X>XOX%X5XI.N K V F n 2.J.).*Xe.O Q.oXXXOX;X1X].4 = U 4X,X,X,X,X% t.&X` 3.E.,X9X9X9X9X9X9X9X9X9X9X",
"9X9X9X9X9X9X9X9X9X5X;X%X5X].K &.L F D K f.V.G.J.H.O 7.&X+X,X,X1X].6 3 U 5X,X,X5X[.@ R.s.w.G.XX,X8X9X9X9X9X9X9X9X9X9X",
"9X9X9X9X9X9X9X9X9X,X,X>X].Q =.&.H G F V.D.D.D.D. X# Y 4X>X,X,X1X%Xi 4 I 1X,X>X5Xk.$ A.h.T.E.1X>X5X9X9X9X9X9X9X9X9X9X",
"9X9X9X9X9X9X9X9X4X-X5X%XG &.=._ %.F ,.oXV.F.B.V.).* i 8X,X,X,X1X%Xu * i >X,X>X9X/ > H.l.h._.%XoX,XqX9X9X9X9X9X9X9X9X",
"9X9X9X9X9X9X9X9X;X,X%XK L &.%.&.&.G E.oXJ.B.D.T.OXe e 8X,X,X,X5X].q = 6 %X4X>X9Xy e Z.7.z.oXoX_.%XqX9X9X9X9X9X9X9X9X",
"9X9X9X9X9X9XqX2X>X;XQ K %._ %._ F ;._.W. XG.G.).2XM > 5X,X,X,X5Xi.3 = 4 ].5X,X,X* W A.j.T.E._._.OXqX9X9X9X9X9X9X9X9X",
"9X9X9X9X9XqX4XE.oXq.F F ` _ H V n A.E.).).E.G.T.5X/ * 5X,X,X,X5X/ 4 = u >X,X5X{.+ P.H.A.g.j.E._.].9X9X9X9X9X9X9X9X9X",
"9X9X9X9X9X5X-X_.2.L F V H _ H c *.'.oX_.H.G.D.G.&X5.% 4X,X,X,X1XB 6 $ U 5X>X9X5.> *Xh.Z.H._.'.].OX8X9X9X9X9X9X9X9X9X",
"9X9X9X9XwX-X,X(.&.&.F H H H V c g.OXOXoX).g.s.T.4X8.# ,X1X,X1X-Xp 4 = ( 6X>X9Xs M .XH.+X&XOX)._.%X8X9X9X9X9X9X9X9X9X",
"9X9X9X9X5X>X(.*.&._ _ H G V c ] +X,XOXoX Xg.g.).1X8.@ %X>X>X4X[.q 6 ; ( 6X,X1X- { V.H.%X]._.P.R.>X9X9X9X9X9X9X9X9X9X",
"9X9X9X9X(.W.*.L ] _ _ Z V V n d.8X,XOX_.).g.g.).:Xy.@ [.,X,X5X[.q 4 ; 6.6X5XR.+ h.j.t.e.k.R.].{.3X9X9X9X9X9X9X9X9X9X",
"9X9XqX4Xk.W.q.Z L K F V V n #.].tX>XoX_.W.J.s.W.0Xi.@ OX5X,X4X[.q q ; 6.5X2X} > ^.R.4X>X5XeX9X4X4X9X9X9X9X9X9X9X9X9X",
"9X9X9X5XQ.W.z.>.F F F F F n 7.4XeX,XoX_.T.G.g.l.0Xk.@ [.4X,X4X%Xq q ; 8.4XoXy I +Xw.k.C.].(.1.r.tX9X9X9X9X9X9X9X9X9X",
"9X9X9X4XA.P.T 5.r.F D b m ,.R.9X9X4X%XOX_.K.L.g.K.e.@ [.5X,X,X,Xi w - Y.;X X5 | .X<.| u.<.c 9 [ 9X9X9X9X9X9X9X9X9X9X",
"9X9X9X9X(.| ( U y.r.t.q.A.(.,XqX9X5X>X,X>X;X;X*XL.} @ (.4X,X,X6Xt.; U :X&X*X* :.J.l.(.] 9 c m G 5X9X9X9X9X9X9X9X9X9X",
"9X9X9X9X9Xi.| U.y.i.{.OX].R.8X9X9X5X;X1X,X,X,X,X5Xe.o 2._.;X,X5X{.; y.&X1X{.@ h.E.P.v c c c c v >XqX9X9X9X9X9X9X9X9X",
"9X9X9X9X9XtX[.(.{.W.].].U.OXeX8XqX4X{._.W.#X1X,X5XI.o w.V.T.;X,XOXI Z.*X8Xu.% Z.E.5X;.c m m c z ].tX8X9X9X9X9X9X9X9X",
"9X9X9X9X9X9XeX4X%X].%X-X2X9X9X9X9X7X_.).H.l.XX>X5X(.O Q.;XoX>X,X-XU.%X;X5X/ & J.[.5X[.A V V V z T.tX8X9X9X9X9X9X9X9X",
"9X9X9X9X9X9X9X9X9X8X5X8X9X9X9X9X9X9X{.W.W.E.h.K.5X].O U.5X,X,X,X>X>X-X>X9XT > *X,X;X5X;.v V V z r.yX8X9X9X9X9X9X9X9X",
"9X9X9X9X9X9X9X9X9X9X9X9X9X9X9X9X9X8X_.T.W.'.oXZ.H.A.@ P.5X,X,X,X,X-X>X,X1XI e 5X-X;X5XT.v Z V c [ qX9X9X9X9X9X9X9X9X",
"9X9X9X9X9X9X9X9X9X9X9X9X9X9X9X9XqX4XA.l.G._.%X*X_.e.o y.5X,X,X>X,X;X,X,X;Xr 5 4X>X>X,X4X*.J Z c Z 7X9X9X9X9X9X9X9X9X",
"9X9X9X9X9X9X9X9X9X9X9X9X9X9X9X9XqX%X_.'.H.A.oXoX>Xk.X 8.8X>X>X>X>X-X>X;X+X5 > ,X1X%X,X5X/.Z { c z <XqX9X9X9X9X9X9X9X",
"9X9X9X9X9X9X9X9X9X9X9X9X9X9X9X9X5XW.oXoX_.E.E.'.).} o t.5X,X1X,X,X-XoX). X> + ;X;XoX;X,X5X[ A S 9 I.tX8X9X9X9X9X9X9X",
"9X9X9X9X9X9X9X9X9X9X9X9X9X9X9X9X4XT._.T.H.A.H.H.J._   :.oX].%XOX-X,XW.W.z.% % :.).G.%X,X5XA.0 E z 2.tX8X9X9X9X9X9X9X",
"9X9X9X9X9X9X9X9X9X9X9X9X9X9X9X9X6XZ.g.s.f.D.J.G.F.7 . e _.oXoX].>X-X-X;XW :.A.E J.s.,X,X,X>XF m c *.qX9X9X9X9X9X9X9X",
"9X9X9X9X9X9X9X9X9X9X9X9X9X9X9X9X5XK.D.B.4.4.f.).{ f <.C j._.E.E.{.>X>X_.g :.w.A w.OX1X,X,X5Xq.b m J 8X9X9X9X9X9X9X9X",
"9X9X9X9X9X9X9X9X9X9X9X9X9X9X8XyXP.E .XL.J.G.G.w.f <.1.E :.W.A.T.oX+X;Xj.C j.l.e i 9X,X,X,X5X].D n C -XqX9X9X9X9X9X9X",
"9X9X9X9X9X9X9X9X9X9X9X9X9X9X8XtX].+ g 7.1.9.w.f w.Z.H.j.W oX_._.&XXX>XW h z.g   Y 6X,X,X,X,X,X#.F A C.tX8X9X9X9X9X9X",
"9X9X9X9X9X9X9X9X9X9X9X9X9X9X9XqX4X5 O + + & > 5 W :.A.:.s 7.z.e.M ^ } % X C { X | 8X>X,X,X4X[.F D N q.tX9X9X9X9X9X9X",
"9X9X9X9X9X9X9X9X9X9X9X9X9X9X8XtX[.: : & # O o o   > j.% O X } * @ Y h X + h }  .^ ,X,X,X,X5X/.m m Z -.9X9X9X9X9X9X9X",
"9X9X9X9X9X9X9X9X9X9X9X9X9X9X8XtX].% O & < , & * * y 9.5 % O h M r y r < t 5.k R | OX4X,X,X5X].n v Z Z -XqX9X9X9X9X9X",
"9X9X9X9X9X9X9X9X9X9X9X9X9X9X8XtX].% X + - , t 8.T t  .C , s : s  .r T R a e.( 2 | [.4X,X,X,X,XQ z Z d A.tX8X9X9X9X9X"
};
