/* XPM */
static const char *texture[] = {
/* columns rows colors chars-per-pixel */
"64 45 243 2 ",
"   c #0A0113",
".  c #130A1C",
"X  c #170D21",
"o  c #1C1224",
"O  c #1D1429",
"+  c #1E1A2E",
"@  c #1E1C32",
"#  c #21162B",
"$  c #23192D",
"%  c #2C1B2B",
"&  c #251C33",
"*  c #2A1E35",
"=  c #291D36",
"-  c #1A253B",
";  c #2B2A2A",
":  c #2B233B",
">  c #262638",
",  c #352538",
"<  c #2D3337",
"1  c #323436",
"2  c #302E2F",
"3  c #402B3D",
"4  c #1C2941",
"5  c #2C2A44",
"6  c #272B44",
"7  c #332B44",
"8  c #352D48",
"9  c #382B45",
"0  c #2B3348",
"q  c #3B324C",
"w  c #353549",
"e  c #2C3854",
"r  c #3B3651",
"t  c #3D3A54",
"y  c #3D3D58",
"u  c #343954",
"i  c #473648",
"p  c #423B55",
"a  c #453C58",
"s  c #543C50",
"d  c #683C4A",
"f  c #523E66",
"g  c #3D425D",
"h  c #3B4A55",
"j  c #344248",
"k  c #264B6A",
"l  c #3D4562",
"z  c #3D4A65",
"x  c #364A67",
"c  c #3B516D",
"v  c #2A5A79",
"b  c #3A5976",
"n  c #2E506F",
"m  c #39637F",
"M  c #43425C",
"N  c #4C465A",
"B  c #55455B",
"V  c #485359",
"C  c #4D4E52",
"Z  c #664C5B",
"A  c #74565B",
"S  c #6C4851",
"D  c #424662",
"F  c #474A66",
"G  c #574966",
"H  c #45536B",
"J  c #5C5468",
"K  c #445773",
"L  c #585875",
"P  c #645769",
"I  c #735866",
"U  c #655976",
"Y  c #644E6A",
"T  c #586369",
"R  c #57637B",
"E  c #4F6168",
"W  c #686779",
"Q  c #766776",
"!  c #6A767D",
"~  c #706B74",
"^  c #83555E",
"/  c #845D64",
"(  c #8C6669",
")  c #93666D",
"_  c #886E76",
"`  c #946B70",
"'  c #9A757A",
"]  c #8C7575",
"[  c #A4767B",
"{  c #A56C74",
"}  c #83665D",
"|  c #AA8C79",
" . c #A28373",
".. c #3F7C9A",
"X. c #476783",
"o. c #546785",
"O. c #557893",
"+. c #50738F",
"@. c #686987",
"#. c #746A86",
"$. c #6A748C",
"%. c #777688",
"&. c #647694",
"*. c #767A96",
"=. c #817B85",
"-. c #977884",
";. c #9A7D93",
":. c #A57C84",
">. c #7B868B",
",. c #698399",
"<. c #788799",
"1. c #7895A8",
"2. c #6A8CA4",
"3. c #53839F",
"4. c #68B2CD",
"5. c #838289",
"6. c #86838A",
"7. c #968488",
"8. c #8D8D93",
"9. c #868998",
"0. c #918C96",
"q. c #96969C",
"w. c #98969D",
"e. c #97969B",
"r. c #88959B",
"t. c #A98789",
"y. c #B58587",
"u. c #B59A88",
"i. c #B4968A",
"p. c #B68E91",
"a. c #AC9799",
"s. c #B79997",
"d. c #A98E8F",
"f. c #8A96A7",
"g. c #9D9CA3",
"h. c #989AA6",
"j. c #A19EA4",
"k. c #B89CA3",
"l. c #88A7B6",
"z. c #98A7B6",
"x. c #92A1A9",
"c. c #A1A0A7",
"v. c #A4A3AA",
"b. c #A9A8AF",
"n. c #ABA4AA",
"m. c #B7A6A8",
"M. c #ACABB2",
"N. c #A5ABB7",
"B. c #B1AEB5",
"V. c #BCADB6",
"C. c #AAB2BB",
"Z. c #B4B3BA",
"A. c #BAB9BF",
"S. c #B7B4BA",
"D. c #BAB0AC",
"F. c #C39B99",
"G. c #C2AA9A",
"H. c #C1A695",
"J. c #C79DA3",
"K. c #C7AAA7",
"L. c #D7AAAA",
"P. c #CAB4A8",
"I. c #D6BCAC",
"U. c #CAB7B5",
"Y. c #D5BCB6",
"T. c #C3ACB2",
"R. c #E1B7B9",
"E. c #DCC6BB",
"W. c #DDC8BA",
"Q. c #D9C3B3",
"!. c #DCC1AF",
"~. c #E3CDBD",
"^. c #E4C6B8",
"/. c #F1D3BA",
"(. c #92B3C4",
"). c #AAB7C6",
"_. c #BCBCC3",
"`. c #B3BBC8",
"'. c #AFAEC9",
"]. c #C5BCC5",
"[. c #D3BCC7",
"{. c #BAC4CE",
"}. c #ABC7D5",
"|. c #B8C8D4",
" X c #BBD1D7",
".X c #BCD8E5",
"XX c #8ACDE5",
"oX c #C4C5CA",
"OX c #C6C5CA",
"+X c #D8C9C4",
"@X c #CDCDD2",
"#X c #C6C9D7",
"$X c #D3CDD3",
"%X c #CCD4DB",
"&X c #D3D2D6",
"*X c #D4D5DA",
"=X c #DBD4DD",
"-X c #DBDADD",
";X c #D8D7D7",
":X c #DDD4CC",
">X c #E4CDC4",
",X c #E6D2C4",
"<X c #EAD6C8",
"1X c #F2DDCD",
"2X c #F3D9C7",
"3X c #E7D9D6",
"4X c #F2DDD2",
"5X c #FDE1CC",
"6X c #FCECDB",
"7X c #F8E5D4",
"8X c #F3E8D9",
"9X c #C6D9E2",
"0X c #DEDDE1",
"qX c #D6DBE5",
"wX c #E2DDE3",
"eX c #E2DEE9",
"rX c #DAE4E9",
"tX c #D6EAF0",
"yX c #E3E2E5",
"uX c #E6E5E9",
"iX c #E8E5EA",
"pX c #E4EAED",
"aX c #EBEAED",
"sX c #E8E2E7",
"dX c #FEF4E3",
"fX c #FAF9E9",
"gX c #EEEDF1",
"hX c #E5EAF3",
"jX c #F2EEF1",
"kX c #EBF1F4",
"lX c #F5F5F6",
"zX c #F6F5F6",
"xX c #F4F3F5",
"cX c #F6F7F8",
"vX c #F5F9FB",
"bX c #FCFCFD",
"nX c #FCFCFD",
"mX c #FFFFFF",
"MX c #FEFEFE",
"NX c #FDFEFE",
"BX c #FEFEFE",
"VX c #FAF9F6",
"CX c #F3EAE9",
/* pixels */
"=X=X=X=X=X=X=X=X=X=X=X=X=X=X=X=X=X=X=X=X=X=X=X=X@X].`.qXhXeXvXbXnXnXjXbXbXbXbXjXwX0X=X=X=X=X=X=X=X=X=X=X=X=X=X=X=X=X=X=X=X=X=X=X",
"iXiXiXiXiXiXiXiXiXiXiXiXiXiXiXiXiXiXiXiXiXiXiX0X%X'.'.#X#XeXeXiXbXjXxXbXbXbXbXnXlXgXiXiXiXiXiXiXiXiXiXiXiXiXiXiXiXiXiXiXiXiXiXiX",
"zXzXzXzXzXzXzXzXzXzXzXzXzXzXzXzXzXzXzXzXzXzXnX0X'.'.`.uXuXaXiXvXjXaXxXxXbXnXbXbXcXxXaXyXpXzXzXzXzXzXzXzXzXzXzXzXzXzXzXzXzXzXzXzX",
"bXbXbXbXbXbXbXbXbXbXbXbXbXbXbXbXbXbXbXbXbXvXrX`.z.).qXgXsX&XsXiXwXsXjXbXzXjXbXnXgXwXyXaXvXbXbXbXbXbXbXbXbXbXbXbXbXbXbXbXbXbXbXbX",
"bXbXbXbXbXbXbXbXbXbXbXbXbXbXbXbXbXbXbXbXbXbXxX_.z.#XqXiXwX$X=XwXsXjXcXiXaXbXbXbXxXgXcXbXbXvXbXbXbXbXbXbXbXbXbXbXbXbXbXbXbXbXbXbX",
"bXbXbXbXbXbXbXbXbXbXbXbXbXbXbXbXbXbXbXbXbXvX{.f.N.{.oX$XwX$XiXjXxXwX=XjXbXbXjXwXsXuX*X#X{.rXbXbXbXbXbXbXbXbXbXbXbXbXbXbXbXbXbXbX",
"bXbXbXbXbXbXbXbXbXbXbXbXbXbXbXbXbXbXbXbXbXkXqX|.9.N.M.g.-X=XwXaX3XyXaXnXzX=X=XaXvX*X{.%XkXbXbXbXbXbXbXbXbXbXbXbXbXbXbXbXbXbXbXbX",
"bXbXbXbXbXbXbXbXbXbXbXbXbXbXbXbXbXbXbXbXbXbXpXz.).9._.g.&XaX=X=XxXaXxXzXvXxXjXuX%X{.|.rXvXbXbXbXbXbXbXbXbXbXbXbXbXbXbXbXbXbXbXbX",
"bXbXbXbXbXbXbXbXbXbXbXbXbXbXbXbXbXbXbXbXbXbX%Xf.N.{.A.B.wX].OXwX$XaXcXyX-XOXj.h.C.`.|.9XtXbXbXbXbXbXbXbXbXbXbXbXbXbXbXbXbXbXbXbX",
"bXbXbXbXbXbXbXbXbXbXbXbXbXbXbXbXbXbXbXbXbXbXpX`.<.z._.n.U.$XV.yXzX$XCXCX].B.v.N.).|.hXvXvXbXbXbXbXbXbXbXbXbXbXbXbXbXbXbXbXbXbXbX",
"bXbXbXbXbXvXbXbXbXbXbXbXbXbXbXbXbXbXbXbXbXbXbXC.,.).h.B.s.T.k.k.:X3X+X].Z.j.w.f.}.}..XtXvXbXbXbXbXbXbXbXbXbXbXbXbXbXbXbXbXbXbXbX",
"bXbXbXbXbXbXbXbXbXbXbXbXbXbXbXbXbXbXbXbXbXbXbX%X<.f.%Xk.C.4.0.J.k.K.:.(.XX[.T.b.l.9XhXnXbXbXbXbXbXbXbXbXbXbXbXbXbXbXbXbXbXbXbXbX",
"bXbXbXbXbXbXbXbXbXbXbXbXbXbXbXbXbXbXbXbXbXbXbXpXx.a.`.A.Q <.<.;.3XU.I f.N.].V.3X)..XbXnXbXbXbXbXbXbXbXbXbXbXbXbXbXbXbXbXbXbXbXbX",
"bXbXbXbXbXbXbXbXbXbXbXbXbXbXbXbXbXbXbXbXbXbXbXkX*X<Xa.v.W B J Q Y.a.q J J j.T.oX}.kXbXbXbXbXbXbXbXbXbXbXbXbXbXbXbXbXbXbXbXbXbXbX",
"bXbXbXbXbXbXbXbXbXbXbXbXbXbXbXbXbXbXbXbXbXbXbXbXbXbX:Xn.T.Q 0.Y.Y.dXm.7.T.U.;XvXkXbXbXbXbXbXbXbXbXbXbXbXbXbXbXbXnXnXbXbXbXbXbXbX",
"bXbXbXbXbXbXbXbXgXpXbXbXbXbXbXbXbXbXbXbXbXbXbXbXbXbXiX,.D.6XdX4XY.6XdXdX5Xv.rXbXbXbXbXbXbXbXbXbXbXbXbXbXbXbXbXbXrXl. XbXbXbXbXbX",
"bXbXbXbXbXbXbXbX%Xz.vXbXbXbXbXbXbXbXbXbXbXbXbXqX).<.@.L Q ,X1X,X>X+X,X1XF.U %.f.z.}.9XkXvXbXbXbXnXbXbXbXbXbXbXbXbXrXqXbXbXbXbXbX",
"bXbXbXbXbXbXbXbXbXbXbXbXbXbXbXbXbXbXbXbXcX`.,.o.o.o.U L Y t.Q.2XE.,X2XF.d.Y #.*.,.2.3.3.}.bXbXbXvXbXbXbXbXbXbXbXbXbXbXbXbXbXbXbX",
"bXbXbXbXbXbXbXbXbXbXbXbXbXbXbXbXbXbXbX`.+.b o.&.*.*.@.G Q p.' s.~.!.( i.s.J %.*.*.&.O...tXbXbXbXbXbXbXbXbXbXbXbXbXbXbXbXbXbXbXbX",
"bXbXbXbXbXbXbXbXbXbXbXbXbXbXbXbXbXbX).v b o.@.@.@.U Y G t.F.t.) ` ^ / /._ G J W @.&.+.2.vXbXbXbXbXbXbXbXbXbXbXbXbXbXbXbXbXbXbXbX",
"bXbXbXbXbXbXbXbXbXbXbXbXbXbXbXbXnXnXl.v b H F U U U f Q L.p.P.y.^ S i.I.B G #.$.$.&.+.}.bXvXbXbXbXbXbXbXbXbXbXbXbXbXbXbXbXbXbXbX",
"vXvXvXvXvXnXnXnXnXnXvXvXvXvXvXvXvXbXcX2.v c z H J Y ;.R.L.y.I.!.U.a.0.0.9.#.%.%.$.$.O.|.bXbXvXvXvXbXvXvXnXnXnXnXnXnXvXvXvXvXvXvX",
"vXnXvXvXvXvXvXvXvXvXvXkXzXvXvXvXvXvXvXxX+.b K F F M -.L.J.:.i.K.dXVXfXfXbX;X#.#.$.$.R X.1.rXbXbXbXvXvXvXvXvXvXvXvXvXvXvXvXvXvXvX",
";XuXnXvXzXzXcXzXzXcXcXvXbXvXzXzXzXzXvXbXZ.x H F F F r %.y.` P 7.Y.>X<X4XfX8Xn.T.9.L L o.X.O.l.(.pXbXbXbXnXcXzXzXzXcXcXcXcXcXcXzX",
"g.h._.uXvXzXzXzXzXzXzXxX9XgXzXxXvXbX0X<.x e l F D p J W N a U 1X6XdX6XdX+XE.Y.7XW G R R o.X.b v O.1.(. XrXxXnXvXzXxXzXzXzXzXzXzX",
"! ! ! >.C.zXxXxXxXxXxXxX%XrXxXzX0X1.n k x g 0 w q q q N a Q 7.J.^.K.U.7XU.4XU.,X-.D L L H K K K b n v m +.1.).qXxXzXxXxXxXxXxXxX",
"8.T E E h r.zXgXgXgXxXgXxXzX{.,.v k n c z F M 7 9 8 p p r 6.E.Q -.-.<X,X<XE.4X>XR.t.F L M g F l z H K c x n c X.1.%XxXxXgXgXgXgX",
"xXOXe.q.6.>.yXaXaXaXaXaXaXaXjX,.k b c z l g M r q q 8 i 8 0.<XJ ~ J.L.Y.6XE.6XE.L.1Xd.u t w r 8 u l g g z H H c n o.z.iXaXaXaXaX",
"aXxXxXaXxXaXaXaXaXaXaXaXaXaXaXo.k c z l D g t t 9 t a p M :X>XG =.p.d.4X1XE.6XK.J.>X7Xa.t y t t t y M D D D F H H z x h.aXaXaXaX",
"iXyXyXyXyXiXiXiXyXiXyXyXyXiXwXK x z g g y M t t 8 : M a ~ dXa.p p Z s.6X>X<X7Xs.F.,X2X1Xt.a y M a y a y a M M D D F l H @XaXiXiX",
"yXyXyXyXyXyXyXyXyXyXaXaXyXyX-Xc u g g y r 8 t t 8 = p a P Y.-.D a G >X6XY.7X7Xd.:.^.5X2XI.' B u t t t t t t t y y D w W 0XyXyXyX",
"0X0X0X0X0X0X0X0X0X-X1.z.yXaX0XF e g y t t 8 5 t 8 = p p P L.-.D a m.dXW.a.6XE.U.s.s _ W.^.[ ) B u t r r r r r r t 5 w oXyX0X0X0X",
"-X-X-X-X-X-X-X-X-XyX<.k $.N.N.u 6 w u t t t 5 8 q = t r Q R._ 8 7.7X6X7.K.7XP.7X~.* 5 G Y Z I Z u r q q q q q 8 = = M.yX-X-X-X-X",
"C.@X-X*X-X-X-X-X&X&Xv.x x e e e : : 5 7 7 8 7 : q & 8 p s.1XP.-.U.6Xa._ ,XW.Y.dX_ O 7 W B a a s w 6 7 9 9 = = & : b.yX*X*X;X-X*X",
"@X@X&XC.2.O.o.o.R K x x z g y u 8 = $ & 8 7 = & 8 $ 7 q K.7X7XE.,XI.Z m.<XP.1XE., & $ a W G G B i 0 q 8 = = : N A.0X$X&X*X&X&X&X",
"@X@X@X@Xz.&.b x x x g e 0 5 5 7 7 5 : : : : 8 & : # : 5 7.7X1XW.1Xs.t.E.,XP.7Xd.# : : & 5 p N G B w 7 7 8.A.M.@X&X@X@X@X@X@X@X@X",
"OXOXOXOX$X@X9.K x e 6 - @ & : : 9 s i i : O : 8 $ o = & P 1X<X2X~.p.K.1XP.K.>X' , & 8 7 : - H 9.P 8 7 v.&X@X@XOXOXOXoX_._._._.B.",
"].oXoX_._._.h.R l g t t i 9 i 9 i [ { ^ S i % = : o * $ N <X,X,X,XP.Y.~.s.Y.s.' , o 7 7 0 0 z oXS.P g.@X_._._.oXoX_.N.h.r.>.>.>.",
"A.A.A.A._._.oXB.@.9.M.Z.=.9 B s , ` y.[ ) d d s , # $ % B ,X~.~.~.~.~.P.Y.P.Y.s.% O : 5 5 4 H A._.oX_.Z._.A.A.A.A.B.r.! E V h h ",
"B.B.Z.B.B.Z.B.B.Z.M.M.A.c.U N B 9 A y.[ / ' G.G.i.' _ ` d.W.W.W.W.W.Q.W.W.P.7., X : : 5 > 4 W A.M.B.M.M.Z.Z.B.B.M.g.>.E h j w w ",
"b.M.b.b.b.b.b.b.M.M.b.b.M.M.0.Q J Z y.( i.!.I.I.Q.Q.s.K.Q.I.I.I.I.Q.Y.K.] ,   X = : : > 6 6 >.B.v.M.M.b.b.M.b.v.q.%.T V j w 1 1 ",
"c.c.g.j.c.c.j.g.j.g.j.c.j.v.B.v.~ , ) t.I.P.P.P.P.P.G.P.P.s.t.[ t.t.I , . . O $ = > > > 6 0 8.v.c.c.c.c.c.c.c.g.5.T C 1 < < < < ",
"w.e.e.e.e.e.e.w.w.w.g.g.g.6.C #   o ` H.G.H.G.G.G.G.G.G.G.i.' ( A , . . X O & $ & & + > 6 4 %.g.e.w.e.q.w.g.w.0.! C 1 < < < 2 2 ",
"8.8.8.8.8.8.8.8.>.%.%.5.J > J P $   A u.u.u.u.u.u.u.u.u.u.u.( i # X o . o $ $ O $ o @ > > - W 0.8.8.8.8.8.8.8.5.~ C 1 2 < 2 ; ; ",
"6.5.=.5.5.5.5.! %.W H V : J 0.8.P w S  .| | | | | | | | | } % X o o . . O + + o . o @ - - - T 6.5.5.5.6.5.5.=.~ J i 1 2 2 2 ; ; "
};
