/* XPM */
static char *cab90220ab65408ec38678cab878adc5JQ9FaGN3Pdiu4szX[] = {
/* columns rows colors chars-per-pixel */
"64 64 184 2 ",
"   c #0C0903",
".  c #080708",
"X  c #060809",
"o  c #0D0D0D",
"O  c #130D03",
"+  c #110F0C",
"@  c #0F100E",
"#  c #1B1303",
"$  c #14120D",
"%  c #1A150D",
"&  c #1D180E",
"*  c #0E0F10",
"=  c #0F1010",
"-  c #141413",
";  c #181714",
":  c #171817",
">  c #1A1A16",
",  c #161718",
"<  c #171918",
"1  c #1D1D1A",
"2  c #241701",
"3  c #281C0A",
"4  c #221D14",
"5  c #201F1A",
"6  c #34240B",
"7  c #252015",
"8  c #2B2417",
"9  c #23221D",
"0  c #2A251C",
"q  c #2D291E",
"w  c #322511",
"e  c #3B2C14",
"r  c #332B1C",
"t  c #382E1D",
"y  c #3E321C",
"u  c #262521",
"i  c #292621",
"p  c #2C2A23",
"a  c #232328",
"s  c #2E2C28",
"d  c #312E25",
"f  c #382F20",
"g  c #312E29",
"h  c #343127",
"j  c #3A3325",
"k  c #353229",
"l  c #3A362B",
"z  c #3E392E",
"x  c #383630",
"c  c #3E3A30",
"v  c #402E11",
"b  c #443315",
"n  c #45361C",
"m  c #48371E",
"M  c #47381D",
"N  c #4B381B",
"B  c #453923",
"V  c #413B2E",
"C  c #4B3E29",
"Z  c #433D32",
"A  c #5C441D",
"S  c #47412F",
"D  c #4C422C",
"F  c #534225",
"G  c #53442D",
"H  c #5B472E",
"J  c #57482E",
"K  c #5A4A2C",
"L  c #464133",
"P  c #4B4435",
"I  c #4F4837",
"U  c #474338",
"Y  c #4C4638",
"T  c #4F4839",
"R  c #514733",
"E  c #5A4730",
"W  c #544935",
"Q  c #5A4C33",
"!  c #534B3B",
"~  c #594E3B",
"^  c #57503E",
"/  c #5B513E",
"(  c #614C27",
")  c #6E5329",
"_  c #635233",
"`  c #62543C",
"'  c #69573D",
"]  c #6C5A3C",
"[  c #715831",
"{  c #7B6137",
"}  c #7A6239",
"|  c #46464B",
" . c #48474B",
".. c #4D4B4C",
"X. c #564F40",
"o. c #544F4D",
"O. c #575040",
"+. c #5C5342",
"@. c #55504D",
"#. c #5E564F",
"$. c #615642",
"%. c #645A45",
"&. c #6A5D46",
"*. c #655C49",
"=. c #695E4A",
"-. c #695D50",
";. c #6D6047",
":. c #6D624B",
">. c #716246",
",. c #7D6B46",
"<. c #72654D",
"1. c #76694E",
"2. c #7A6B4C",
"3. c #736651",
"4. c #766A52",
"5. c #7C6E52",
"6. c #7A6C54",
"7. c #7A6D54",
"8. c #7A6F59",
"9. c #7E7053",
"0. c #7E7155",
"q. c #7E7159",
"w. c #806131",
"e. c #83693A",
"r. c #826E49",
"t. c #887147",
"y. c #83714C",
"u. c #89734E",
"i. c #947642",
"p. c #837355",
"a. c #817456",
"s. c #877857",
"d. c #8C7957",
"f. c #817359",
"g. c #83755A",
"h. c #86775A",
"j. c #86795D",
"k. c #897A5D",
"l. c #8D7E5E",
"z. c #967E52",
"x. c #937E59",
"c. c #877A60",
"v. c #8E7E61",
"b. c #8C7D62",
"n. c #907E64",
"m. c #FFBE32",
"M. c #FDC131",
"N. c #9A8054",
"B. c #9C855F",
"V. c #A6844A",
"C. c #A38656",
"Z. c #AA8955",
"A. c #A58A5D",
"S. c #B4945F",
"D. c #8E8164",
"F. c #8F8065",
"G. c #918162",
"H. c #938265",
"J. c #958666",
"K. c #998664",
"L. c #988867",
"P. c #948569",
"I. c #998768",
"U. c #97886C",
"Y. c #9A8A6C",
"T. c #9D8D6C",
"R. c #9D8D71",
"E. c #9F9175",
"W. c #A58D63",
"Q. c #AF9364",
"!. c #A8916A",
"~. c #A08F71",
"^. c #A49474",
"/. c #A29478",
"(. c #A89878",
"). c #AB9B7A",
"_. c #B59D71",
"`. c #B19F7F",
"'. c #F4F45B",
"]. c #FBFB62",
"[. c #B5A483",
"{. c #B8A884",
"}. c #C0AF8C",
"|. c #EEEEC1",
/* pixels */
"+.$.%.$.P / =.;.%.l l z 7.5.;.h.h.v.c =.7.%.4.a.$.<.7.5.=.k l P P v.1.7.1.V / z %.1.<.H.L z W d d %.U.k.5.<.<.4.$.z g.$.L %.P 9 ",
"+.$.%.$.P / =.;.%.l l z 7.5.;.h.h.v.c =.7.%.4.a.$.<.7.5.=.k l P P v.1.7.1.V / z %.1.<.H.L z W d d %.U.k.7.<.<.4.+.z g.%.L %.P 9 ",
"/ ! W d.7.V <.4.~ d d +.5.<.1.$.$.3.J.P +.P c ;.$.P $.%.V 5 ~ ! ! &.0.;.1.P z L 1.7.<.=.l ^ ~ j j 4.l.G.j.j.h.~ F.g.q L +.+.l 9 ",
"/ V %.5.h.~ ;.+.1 - - j <.d.H./ / 0.p.7.z k Y *.=.X.L z 1 ! j.=.=.L 7.1.&.z o o 9 ^ 1.I %.h.:.~ ~ L.l.l.a.1.1.7.).1.z L %.l 1 o ",
"! P ;.&.a.:.0 ; o > > 9 > ^ :.F.F.j.4.7.$.*.Y.f.G.T.g.$.P k.&.7.7.1.~ +.9 o o > - - k +.J.9.5.&.&.a.l.l.<.=.=.`.k.%.<.P d 1 - - ",
"! P ;.&.a.:.0 ; o > > 9 > ^ :.F.F.j.4.7.$.*.Y.f.G.T.g.$.P k.&.7.7.1.~ +.9 o o > - - k +.J.9.5.&.&.a.l.l.<.=.=.`.k.%.<.P d 1 - - ",
"^ 7.$.;.7.~ o o - $ $ 1 - o k v.v.7.f.7.^ l :.1.s.9.1.z L 7.<.q.q.7.P X o - o - > - . V G.<.<.1.1.<.G.F.%.+.+.T.7.%.%.~ o o - - ",
"l L 7.l.~ $ - > > - - 9 i 9 o ! ! F.4.! :.<.=.D.h.<.$.%.+.P 7.f.f.$.; - > 1 > > 9 9 1 X $.U.7.L L z j.<.! L L %.0.4.:.1 o > 1 1 ",
"l L 7.l.~ $ - > > - - 9 i 9 o ! ! D.4.! :.<.=.F.h.<.$.%.+.P 7.f.f.$.; - > 1 > > 9 9 1 X $.U.7.L L z j.<.! L L %.0.4.:.1 o > 1 1 ",
"=.I P =.9 . - 1 > - - > u u - - - ~ :.7.j.h.$.+.Z P ~ ~.v.^ z =.=.p X 1 9 9 1 > 9 5 9 - : :.$.z z :.;.! f.U.U.! S ! d o > > > 1 ",
"d.9.~ ; o o > 1 9 > > > 1 > o - - o 8.d.:.7.:.z ! l :.^.f.v.=.i i o o 9 i p 9 > > 5 1 - - > :.k.k.s.$.~ U.v.v.0.%.1 X - 1 > 9 9 ",
"a.1.~ - - o u u i 0 0 9 p 9 - 1 1 o z 0.4.1.7.$.1./ H.H.g.k.%.9 9 - - p h k i 9 0 u p - > : 7.G.G.j.~ j v.h.h.g.<.1 o - 9 9 i 9 ",
"a.1.~ - - o u u i 0 0 0 p 9 - 1 1 X z 0.4.1.7.$.1./ H.H.g.k.%.9 9 - - p h k i 9 0 u p - > : 4.l.l.h.~ k v.h.h.g.<.1 o - 9 9 i 9 ",
"$.:.V X - o 9 i u u u i u u 5 9 9 - @ ;.d.g.4.L ! I v.f.h.j.l o o 1 - 5 d p p p i u h 1 i = P K.L.9.` :.^.k.k.0.+.o - > > 0 9 9 ",
"4.:.1 o - X > 9 i d d k p 4 + > > ; o ~ h.%.~ Z P P P L 4.4.- - - > o p c k l c l 9 u o 9 - f K.K.x.>.Q a.Y.T.7.p - > - 9 u i p ",
"P I - - - - > 1 1 - - 4 8 4 O % % O   8 ~ ;.f.;.k v.v.! P Z X - - - - p l d > i l d p 9 > % % W W J D G Q W W %.1 o - - 1 9 1 - ",
"P T - - - - > 1 1 - - 4 8 4 O % % O   8 ~ ;.f.;.k v.v.! P Z X - - - - p l d > i l d p 9 > % % W W J D G Q W W %.1 o - - 1 9 1 - ",
"P I - - - - > 1 1 - ; 7 8 3 O # # O O r / >.g.;.k v.v.! P Z X - - - - p k d > i l d d 9 4 & # K K F F G Q Q W %.1 o - - 1 9 1 - ",
"%.k > > 9 s p d d ; > j B n w 2 2 # # 4 p.p.9.7.k 7.H.J.0.l o : : u u l c h > Z +.+.~ ~ j t # b b { [ z.A.>.>.W ; - 1 9 0 k p 1 ",
"1.k - > 1 p 0 0 q f j Q B M e v v 6 3 w x.x.p.1.I F.k.j.7.p - 1 1 s 9 Z X.z 0 k L ~ P W r r 3 [ [ Z.e.C.N.u.y.P - - 1 p i k s 5 ",
";.9 - 1 u p 0 k p r r J F F N |.|.b 6 w _ B.d.h.=.J.a.k.%.o - 9 9 i k l P L s i Z W $.~ t y e ) ) |.i.Z.A.,.2.q - > 9 9 9 i > 9 ",
";.9 - 1 u p 0 k p r y K K ( A '.'.A v e ] W.d.h.=.J.a.k.%.o - 9 9 i k l P L s i Z W $.` j m b w.w.'.V.S.S.y.2.q - > 9 9 9 i > 9 ",
"^ 9 - 9 i l k p 0 8 r Q _ H ].].].].H y _ _.K.4.$.R.7.v.%.$ > p p l Z ! +.I Z ! T j W ` J F H ].].].].H C.N.d.j $ 1 s h p k p 9 ",
"l - - 1 d z ~ z p q r Q _ E M.].].M.H n D 2.~ ^ ! %.V T Z - 1 k k Z P +.%.! i Z I L W ` D C E M.M.].M.E t._ E 8 - 1 s k i 9 9 > ",
"l - - 1 d z ~ l p 0 r Q Q _ E m.m.F m y C 2.~ ^ ! %.V T Z - 1 k k Z P +.%.! i Z I Z W / C B m E E m.} } r.Q W 0 - 1 s k i 9 9 > ",
"*.1 o - 5 i i 0 4 4 8 B C G G 3.3.n e t r 2.&.1.0.%.+.! 9 o - 9 9 d p d z z 1 k z l j j f t w G G 3.Q.N.!.p.2.j o - 1 5 ; 1 - - ",
"^ 5 = 1 i k z 9 9 / ` &.' u.V -.=.K B r q 1.1.1.7.=.7.7.p o 9 d d l 1 i 3.q.7.7.+.> q P C j t V V -.Q.u.!.p.p.l o > s d 9 P W ! ",
"~ 5 - 5 s i Z c 9 ^ / 1.2.y.k #.#.>.W z 5 ;.&.;.&.<.1.1.i - p U U X.z <.J.:.%.P ! d $./ j q 4 k k #.B.] p.G D 0 * < p k k P T Z ",
"~ 5 - 5 s i Z c 9 ~ ^ ;.>.2.g @.@.o.P k > &.%.;.&.<.1.1.i - p U U X.z <.J.:.%.P ! d $.^ k 0 ; g g @.o.` 5.D D 9 * < p k k P T Z ",
"! 9 - > 9 9 k z z I I ~ &.&.s ..../ ..i i +.$.%.$.3.<.:.d - 9 c c ! ^ :.&.P L d k p +.I 0 1 5 s s ..%...%.+.+.p - - 9 i 0 ! I Z ",
"v.;.+.- > p p 9 I +.+.! / $.a  . .! a I ~.R.(.(.^.(.E.R.q.=.9 s s ! P P Z Z z l z 1 ~ P 9 1 k.a a  .R.a ).Y.Y.3.<.d > u 0 ! ! Z ",
"<.4.%.- 1 p k +.k Z Z ^ ^ | | | | | | ~ I.n.j.U.v.Y.v.7.7.q.9 9 9 Z k z V l l l z p z P u 5 | | | | | | T.p.p.<.<.d - 9 s k l l ",
"<.4.%.- 1 p k +.k Z c ^ a a a a a a a a I.n.j.U.v.U.v.7.7.q.9 9 9 Z k z Z l l l z p z P u a a a a a a a a a.p.<.<.d - 9 s k l l ",
"l k 9 = 9 u i Y L Z Z P ^ ~ z z z Z i p z Z c U L P P z k d - 9 9 l p l l d d k P 9 l z 9 > d L Z Z Z L U Z Z k 0 ; - 9 9 9 0 i ",
"l 0 o - 9 h k i l P P z V k p p p k i > - ! ~ P V Z Z d 9 o - u u k 9 5 s i z Z L 9 k z u 1 - P P ! ~ ~ P Z Z k o = 1 i 9 d 0 0 ",
"! d - - > u i > > p p k k p 0 1 1 1 - @ d T.T.h.;.j.<.P Z - - 1 > 1 o X > 0 k d 9 - 1 0 1 - > j.j.Y.q.q.4.f.f.P o - > 1 @ > 5 1 ",
"! d $ - > u i > > p p k k p 0 1 1 1 - @ d T.T.h.;.j.<.P Z - - 1 > 1 o o > 0 k d 9 - 1 0 1 - > j.j.Y.q.q.4.f.f.P o - > 1 @ > 5 1 ",
"! V - > 1 - 9 ! ~ ^ ^ k Z I +.+.+.0 > 1 k ).(.7.0.P.^ ^ ~ - 1 z z P k k k :.7.7.&.%.P 1 - 9 > H.H.^.H.(.v.%.%.z - - > = 5 l i l ",
"f 5 - 9 k 9 k :.1.<.<.~ 7.q.~ %.%.l k k 1 I ! z z V p i 9 - 1 l l +.4.7.v.v.%.=.! ! *.k z g u d d P +.=.P p p 9 - > u - Z X.Z ! ",
"s - - 9 l 1 d L ~ ! ! +.$.~ ! Z Z p Z z - - Z 3.! z d 9 o > 1 p p Y +.%.4.<.+.~ P +.+.l k u p - - l T %.V s s ; * > u 1 P +.P P ",
"s - - 9 l 1 d L ~ ! ! ^ $.~ W V Z p Z z - - Z 3.! z d 9 o > 1 p p Y +.%.4.<.+.~ P +.+.l k 9 p - - l T %.V s s ; * > u 1 P +.P P ",
"d - - 1 l 9 d L P k k ! ~ L Z p p 9 k p - Z v.P.q.! ! d = u i k k z Z L ! ! O.=.:.=.%.! k 9 > - - j.).Y.7.Z Z - - > p 0 Y P l l ",
"p - > p p 5 9 V L l l l l T L I T k - s > z /.7.F.g.V 1 * u k c z z Z L +.! P $.! +.+.d s p 9 - - <.1.<.L h h > * 1 h z P k l d ",
"p - > p p 5 9 V L z l l l I L I T k - s > z /.7.F.g.V 1 * u k z z z Z P +.! P $.! +.+.d s p 9 - - <.1.<.L h h > = 1 h z P k l d ",
"d > > s h 1 l P P V V Z ! +.~ $.$.P s z > L }.[.{.^.~ p - u p V V I Z P ^ ! z Z ~ %.+.0 c h 9 - - 0.h.:.$.L L > = 1 p i c z d k ",
"L ; 1 i z 1 k +.$.! ! I %.=.+.$.$.Z g k - Z ).q.:.=.3.l - i l ~ ~ / z c +.+.! ! $.~ +.k l h 9 > > T.).j.k.+.+.- - u p > l P z Z ",
"k - > 0 9 o u Z P Z Z P +.P P ! ! z i h - Y ^.7.Y.j./ d - 0 p Z Z P Z ! ~ Z z P k h I 1 1 u 1 - - j.v.:.j.^ ^ u * > u = 1 k z k ",
"k - > u 9 o u Z P Z Z P +.P P ! ! z i h - Y ^.7.Y.j./ d - 0 p Z Z P Z ! ~ Z z P k h I 1 1 u 1 - - j.v.:.j.^ ^ 9 * > u = 1 k z k ",
"k - > u 9 o u Z P Z Z P +.P P ! ! z i h - Y ^.7.Y.j./ d - 0 p Z Z P Z ! ~ Z z P k h I 1 1 i 1 - - j.v.:.j.^ ^ 9 * > u = 1 k z k ",
"k - + - - > 0 9 1 0 0 p 0 k p p p p 5 9 o P ^.F.(.H.R 0 o - - 1 1 p u 1 0 p - > l Z z s i > - - - 3.8.:.%.L L 1 o - 1 1 i Z z 1 ",
"k - > 5 p T ^ ^ 0 +.+.+.P :.~ Z Z L P k 1 Z k.f.j.<.P i * u l =.=.j.P l <.7.d T 8.+.4.3.k 1 s > > 7.[.k.~ 0 0 > - , u z %.4.L <.",
"z - - 9 s l Z P l +.+.P P z k c c L z g > z E.j.7.q.X.s o 5 k +.+.:.L z ;.+.l +.I Z %.+.i p s > > 7.L.g.! h h ; o 1 d Z +.<.&.q.",
"z - - 9 s l Z P l +.+.P P z k c c L z g > z E.j.7.q.X.s o 5 k +.+.:.L z ;.+.l +.I Z %.+.i p s > > 7.L.g.! h h ; * 1 s Z +.<.&.q.",
"d - - u k k l Z l ~ ~ P Z p i d d Z c i - V Y.v.4.q.L i $ 9 k L L ^ T Z ~ T 9 %.+.+.%.i p h 1 > > 1.7.3.z L L > - i c T +.=.:.:.",
"0 - > u l Z c I l Y Y c Z p i p p z k 1 - z 0.j.P.4.Z p = 9 p Z c :.I P +.%.d k U ~ Y ~ z 9 i 9 9 a.:.I %.T T - - p l Z I ~ T +.",
"0 o - 9 h d k k i P P z d z k d d l k 0 - z H.v.F.q.+.d = 1 1 s s Y T =.:.~ i d ! T ~ ^ p u 0 5 5 h.J.:.4.L L > - 9 k z Z ~ Z l ",
"0 o - 9 h d k k i P P z d z k d d l k 0 - z F.v.F.q.+.d = 1 5 s p I T =.:.~ i d ! T ~ ^ p u 0 5 5 h.J.:.4.L L > - 9 l z Z ~ Z l ",
"l $ - u l k Z z h P P k k L Z Z Z l d i - z v.v.Y.j.L p o > 1 9 9 Z P l l c s Z Y I ~ ! d p 9 9 9 G.h.:.<.P P > = 9 g z Z I g s ",
"q - - - i k d i 1 p p i d Z h d d d i 0 * L (.v.U.<.! p o > 1 9 9 k d 9 p h > d z z ! T k i 1 > > 0.~ ! +.p p - - > i k k s 9 s ",
"q - - - i k d i 1 p p i d Z h d d d i 0 * L ^.v.U.<.! p o : 1 9 9 k d 9 p h > d z z T T k i 1 > > 0.~ ! +.p p - = > i k h p 9 s ",
"j - - 9 0 - 1 z l Z Z L s 0 d d d 1 > i o z ).R.U.=.V p X o o - - > 1 > 0 0 1 9 0 0 9 5 $ - = 1 1 H.U.! =.Y Y 9 . o = - - 1 > : ",
"0 o 1 z $.k z =.+.=.=.:.%.+.P Z Z 1 d Z 9 > T 7.3.P 1 - @ - - i i h > ~ <.! ^ ! Z L Z s Z l x 1 1 ! 3.=.%.d d - - u h - z +.I l ",
"p - - - k s Z ! l l l Z L P Z z z > d Z 1 d g.Y.U.$.Z 9 $ 0 k T T ! 9 *.=.~ ~ T ! ~ L P ! p g 9 9 $.=.c.4.p p ; - 1 z 9 ~ T T =.",
"p - - - k p Z ! l l l Z L P Z z z > d Z 1 d g.Y.U.$.Z 9 - 0 k T T ! 9 *.=.~ ! T ! ~ L P ! s g 9 9 $.=.c.4.p p ; - 1 z 9 ~ T ! =."
};
