/* XPM */
static char *_c28ff354a8b4793f29a44024205d7f6u361Zwshb3Cpq7Ks[] = {
/* columns rows colors chars-per-pixel */
"64 64 165 2 ",
"   c #090703",
".  c #0D0A04",
"X  c #130E06",
"o  c #130E08",
"O  c #151007",
"+  c #181007",
"@  c #161009",
"#  c #1C140B",
"$  c #1F180D",
"%  c #1C1913",
"&  c #20170D",
"*  c #23190E",
"=  c #291C0F",
"-  c #241C12",
";  c #2A1E11",
":  c #2E2114",
">  c #24211A",
",  c #2B251B",
"<  c #2B281D",
"1  c #342415",
"2  c #392716",
"3  c #3B2817",
"4  c #362618",
"5  c #392718",
"6  c #322B1E",
"7  c #3C2A19",
"8  c #2F2A20",
"9  c #332D22",
"0  c #363124",
"q  c #3B3425",
"w  c #363228",
"e  c #3C3629",
"r  c #3F392B",
"t  c #402A17",
"y  c #422E1A",
"u  c #46311D",
"i  c #4B331E",
"p  c #51371F",
"a  c #443422",
"s  c #4C3520",
"d  c #4D3924",
"f  c #433C2D",
"g  c #483F2E",
"h  c #533B24",
"j  c #5A3E26",
"k  c #533E28",
"l  c #453E31",
"z  c #46402F",
"x  c #4A412F",
"c  c #5B4127",
"v  c #544029",
"b  c #5B442B",
"n  c #5F492F",
"m  c #474031",
"M  c #4C4433",
"N  c #4F4835",
"B  c #4D4638",
"V  c #4F4838",
"C  c #514735",
"Z  c #5D4730",
"A  c #534936",
"S  c #5E4930",
"D  c #554C3A",
"F  c #594F3B",
"G  c #57503C",
"H  c #5C523D",
"J  c #604227",
"K  c #61442A",
"L  c #624A2E",
"P  c #694B2E",
"I  c #654C32",
"U  c #6A5135",
"Y  c #61553F",
"T  c #62583F",
"R  c #715132",
"E  c #735939",
"W  c #5D5441",
"Q  c #615642",
"!  c #655A45",
"~  c #695D46",
"^  c #655C49",
"/  c #6A5E49",
"(  c #6D6146",
")  c #6D624B",
"_  c #726247",
"`  c #72654D",
"'  c #75684F",
"]  c #7A6A4F",
"[  c #6D6452",
"{  c #6F6854",
"}  c #726651",
"|  c #756952",
" . c #7A6D54",
".. c #7A6E59",
"X. c #7E7056",
"o. c #7D715A",
"O. c #7B7361",
"+. c #817257",
"@. c #83755B",
"#. c #86795E",
"$. c #8A7B5F",
"%. c #807763",
"&. c #867962",
"*. c #8A7A61",
"=. c #8B7C63",
"-. c #8F7D62",
";. c #8A7E66",
":. c #8C7D64",
">. c #8E7F65",
",. c #8A7F68",
"<. c #907F63",
"1. c #8F8165",
"2. c #8F826B",
"3. c #918166",
"4. c #928467",
"5. c #948368",
"6. c #958568",
"7. c #94856A",
"8. c #97876D",
"9. c #98876B",
"0. c #9A876F",
"q. c #96896D",
"w. c #9A8A6F",
"e. c #9B8D6F",
"r. c #928771",
"t. c #958A73",
"y. c #9D8D71",
"u. c #9C8D72",
"i. c #9C8F76",
"p. c #9F9174",
"a. c #9C9179",
"s. c #A08F71",
"d. c #A29172",
"f. c #A29375",
"g. c #A89577",
"h. c #A49579",
"j. c #A7967C",
"k. c #A6987D",
"l. c #AA9B7D",
"z. c #A69A81",
"x. c #AC9E81",
"c. c #B09F85",
"v. c #AEA083",
"b. c #B2A385",
"n. c #B7A686",
"m. c #B7A887",
"M. c #B4A388",
"N. c #B2A58A",
"B. c #B6A98C",
"V. c #B9AB8C",
"C. c #B5AA92",
"Z. c #BBAD91",
"A. c #BEB195",
"S. c #BFB39A",
"D. c #C0AF94",
"F. c #C2B394",
"G. c #C7B796",
"H. c #C3B69A",
"J. c #C6B99C",
"K. c #C1B6A0",
"L. c #C3B9A0",
"P. c #CCBEA1",
"I. c #CEC0A2",
"U. c #D0C3A6",
"Y. c #D5C9AE",
/* pixels */
"% D ) D D ..) F | ' ` ` A ` #. .<.-.-. .` A  .e.i.i.A.P.M.~ 4.3.3.w.g.@.X.M  . .l.0.9.+.5.5.5.! ! 1.8...) ) / e } i.@.) ) ) ) ` ",
"% H g x x W D F ~ ` ....W *.| ! ' ....+...C  .d.G.G.n.e.3.=.w.6.4.$.f.y.q.m ....+.` @.) ~ H H ) ;.` 2.1.` ` W e  .) ~ ` ` @.@.@.",
"% H g x x W D F ~ ` ....W *.| ! ' .. .+...C  .d.G.G.n.e.3.=.w.6.4.$.f.y.q.M ....+.` @.) ~ H Y ) ;.` 4.1.` ` W e  .) ~ ` ` @.@.@.",
"# A A Q Q W H H D / ) ) W +._ H F D D @.3.m H b.d.d.e.@...y.w.@.@.+.' w.>.B @.@.X.+.! ! ! H H ..3.! C $.@.@.D 9 &.Q !  . .X.$.*.",
"% W F H H Q D ! ) !  . .H | 3.' C x x ! | e ! s.$.$.w...~ +.@.| | ` | f.>.m i.i.1.| | ..3.` ` H ' ! ! / >.>.F W @.` )  . .X.@.*.",
"- / F W W D ` ` ~ | +.+.W Q *.H A T T H A 6 / @.=.=.&.) H Q _ ....-.-.j...M  . .~ F +.8.@.....X.X.X.@.}  . .Q 9 F F ) ~ ~ | | ) ",
"- / F W W D ` ` ~ | +.+.W Q *.H A T T H A 6 / @.=.=.*.) H Q _ ....-.-.j. .m  . .~ F +.8.@.....X.X.X.@.}  . .Q 9 F F ) ~ ~ | | ) ",
"- l f D D !  .| / | ` ` a f H x A ' ' | F 9 A ` ! ! >.@.` ~ '  . .5.*.y. .f Q Q | X. ...) X.X.| Q ) >.$.| } e < ) f f Q Q ` ~ D ",
"% B N r r H | ) M ` | | M ` Y x Q ' ' | _ m / $. . .| $.+.` ' | | 6.6.=.Q f A A @.>.| X.X.| | / Q X.2. .X.X.e 6 ` ! D H H G m M ",
"% B N r r H | ) M `  . .M ` Y x Q ' ' | _ m / $. . .| $.+.` ' | | 6.6.=.Q f A A @.>.| X.X.| | / Q X.2. .X.X.e 6 ` ! D H H G x M ",
"< H N B M m F H D W X.X.B ! ) Q ( ) ) ) +.g Q | W W D ' ` ' ~ ` ` 6.@...! 9 9 9 A x f Q H W W e F W B m m m e < m e r f f f q f ",
"% e r 0 0 9 e B M 9 f f , 0 m M q f f H Q 6 r Q ~ ~ f D 6 a q 6 6 D x q A W C C w [ O.Q m Q Q ^ V B , 0 ....8.y.w.>.../ / ^ Q } ",
"B / } r r M F W Q 9 W W @.` ! x M [ [ | 6...&.h.N.N.K.C.;.` f / / t.t.,.C.H.B.B.x.P.V.Z.y.f.f.*.<.@.A M F.F.h.+.+.@.*.z.z.z.@.6.",
"B / } r r M F W Q 9 W W @.` ! x m [ [ | 6...&.h.N.N.K.C.;.) f / / t.t.,.C.H.B.B.x.P.V.Z.y.f.f.*.<.@.A M F.F.h.+.+.@.*.l.z.z.@.6.",
"F | @.@.@.D H Q / B | | f.1.#.~ ) ;.>.} / ` @.H a.a.P.h.e.-.) y.y.A.Z.b.Z.f.f.f.f.z.6.N.S.h.h.-.+.X.) o.j.j.` H | ) y.f.f.@.) ..",
"f Q D ! ! H W  .H r ) ) >.=./ !  .M M H 1.6.| B W W @. .X.*.) B.N.p.z.x.B.x.4.4.1.y.@.2.4.6.6.6.| =.` ;.x.x.@.`  .4.1.*.*. .Q / ",
"m H W Q Q ! ! H H l ^ ^ | f.X.Q ` | | ` +. .~ _ ~ ~ p.b.y.q.&.D.D.i.@.j.Z.b.y.y.h.;.@.o.+.) ) -.-.f.} D f.f.f.$. . .6.w.w.) C Q ",
"m H W Q Q ! ! H H l ^ ^ | f.X.Q ` | | ` +. .~ _ ~ ~ p.b.y.q.&.D.D.i.@.j.Z.b.y.y.h.;.@.o.+.) ) -.-.f.} D f.f.f.$. ...6.w.w.) C Q ",
"r ! ! Q Q H / A ! f } } 1. .X.1.3.-.-.~ H (  .@.] ] p.V.h...D x.x.f.p.k.h.8.1.1.Z.a.} D ! ) ) X.@.e.@.D @.@.h.@.| _ ..l.l.X.D H ",
"f } ` H H F H A ) l @.@.>.A } l.b.f.f.' H ( 3.9.$.$.f.b.+.~ } V.V.y.b.v.s.3.y.y.X.y.) H ~ F F )  .' ! ^ 4.4.h.6.@.+.X.y.y.H H _ ",
"e D ~ D D ) ! D } M | | 6.) @.6.h.3.3.e.>.@.f.h.h.h.p.h.'  ...l.l.6.h.y. .| ) ) ~  ...h. .Y Y Q ! #.| ) w.w.6.y.y.4.! H H H ` &.",
"e D ~ D D ) ! D } M | | 6.) @.6.h.3.3.e.>.@.f.h.h.h.p.h.'  ...l.l.6.h.y. .| ) ) ~  ...h. .Y Y Q ! #.| ) w.w.6.y.y.4.! H H H ` &.",
"e D H H H D A H ~ M ` ` =.#.w.f.y.X.X.w.b.>.6.@.+.+.3.e.$.! f X.X.| ~ #.@.3. . .3.X.! @.@.+.+._ ) #.F B @.@.+.w.h.+.) Q Q } 1.3.",
"9 B B F F l w F W > m m ) C `  .` x x H Q Q Q f e e H ,.| W f W H B e Q ` ..| | | D f W F A A x f W l 9 D D m W Q D D e e f F ^ ",
"9 B B F F l w F W > m m ) C `  .` x x H Q Q Q f e e H ,.| W f W W B e Q ` ..| | | A f W F A A x f W l 9 D D m W Q D D e e f F ^ ",
"< F A | | >.&.i.l.t.r.r.2.o.o.o.%.F F , ^ %.} x.N.N.i.A.Z.t.a.q.q.z.p./ 6 Q ) ) W W H w [ ;.;.&.2.x.8.8.i.i.6.6.) [ ^ V V D ) W ",
"r | ! Q Q  .) ..$.e.V.V.V.H.G.m.F.y.y.m h.F.v.q.p.p.e.V.l.h.y.6.6.x.q. .@.5.@.@.+.| @.H h.w.w.y.h.+.y.h.6.6.p.x.q.x.1.1.1.d.y.f.",
"w ~ ~ / / Q / #.@.6.l.l.f.B.n.l.e.=.=.f ' l.J.C.h.h.p.4.4.-.l.b.b.b.=.Q p.-.Y Y ! ! +.D &.q.q. .l.) +.@.*.*.6.f.k.8./ ` ` 3.9.f.",
"w ~ ~ / / Q / #.@.6.l.l.f.B.n.l.e.=.=.f ' l.J.C.h.h.p.4.4.-.l.b.b.b.=.Q p.-.Y Y ! ! +.D &.q.q. .l.) +.@.*.*.6.f.k.8./ ` ` 3.9.f.",
", F _ / / C ~ @.6.f.d.d.b.B.l.F.d.h.h.D ` 4.y.v.v.v.y.h.d.w.h.B.B.N.x.@.&.6./ / Q ` | M Q e.e.y.p.4.*. .....6.p.b.i.8.8.8.>.h.y.",
"w Y  .@.@.F C ! =.1.#.#.v.B.l.b.b.#.#.Q l.+.)  .6.6.h.v.V.l.h.l.l.f.-.A | 3.! ! Q  .@.Y o.h.h.f.y.f.d.6.=.=.y.q.6.f.x.c.c.y.X.q.",
"f / / @.@...| | y.>.q.q.v.f.V.n.h.y.y.Q #.6.=.l.b.b.y.f.x.p.f.l.l.w.@./ W ~ ! ! ~ ~ $...@.1.1.| f.w.-.#.=.=.>.*.6.6.y.l.l.y.=.| ",
"f / / @.@...| | y.>.q.q.v.f.V.n.h.y.y.Q #.6.=.l.b.b.y.f.x.p.f.l.l.w.@./ W ~ ! ! ~ ~ $...@.1.1.| f.w.-.#.=.=.>.*.6.6.y.l.l.y.=.| ",
"f ) ! +.+.+.X.|  .@.p.p.x.f.f.b.$.=.=.B H ( Q $.-.-.1.p.l.d.d.d.d.8.X.X.) | ) ) ) Q ~ F ) l.l.e.-.#.=.X.` ` -.3.h.p.@.*.*.*.@.@.",
"B | ) *.*.>.| @.#. .#.#.h.l.b.b.3.p.p.) @.6.' ' @.@.6.3.w.-.6.w.w.6.@.C | -.@.@.#.@.` ) W b.b.h.$.X.X.! ) ) ;.y.y.4.-. . .` =.#.",
"9 D Q ` ` / ) ! ) | X.X.6.w.l.l.3.X.X.e ' @.| ) A A ~ ` H M ) H H D ! 0 C ) | | ` | @.D r | | @.9...! B l l M ! ! ) ! A A m D m ",
"9 D Q ` ` / ) ! ) | X.X.6.e.l.l.1.X.X.e ' @.| ) A A ~ ` H M ) H H D ! 0 C ) | | ` | @.D r | | @.9...! B l l M ! ! ) ! A A m D m ",
"M ..' *.*.6.@.;. .9 F F | ..| ) o.{ { W [ D W e l l B F 2.[ 6.a.a.;.2.6.8.&.;.;.6.A 9 ^ a.z.z.r. .H N.o.) ) X.B , F Q W W ,.2.r.",
"B @.$.@.@.@.| @.@.m @.@.=.o.C.L.p.A.A.Y.I.N.I.^ t.t.V.v.H.;.y.I.I.n.V.V.V.f.*.*.f./ f y.B.J.J.U.B.N.F.h.....w.;.^ x.@. . .b.n.h.",
"f ~ ` | | / W X...w } } &.&.N.b.6.v.v.B.n.b.Z.Q *.*.n.l.l.f.w.l.l.l.l.x.b.y.+.+.$.&.F ) &.v.v.B.Z.k.l.d.@.@.2.X.} y.| 3.3.y.y. .",
"f ~ ` | | / W X...w } } &.&.N.b.6.v.v.B.B.b.Z.Q *.*.n.l.l.f.w.l.l.l.l.x.b.e.+.+.$.&.F ) &.v.v.B.Z.k.l.d.@.@.2.X.` y.' 3.3.y.y. .",
"f ) ~ ) ) ` Q } [ l 4.4.x.t.x.q.l.f.f.h.V.n.b.W t.t.B.B.x.f.w.w.w.f.q.b.v.e.h.h.#.y.~ D X.l.l.b.x.o.2.f.y.y.1.+.W  .X.( ( ~ ..@.",
"0 H ! } } D ! X.! D 3.3.=.' 6.1.f.y.y.X.v.b.H.} ` ` b.b.p.w.&.@.@.6.w.i.@.y.h.h.>.! M ` @.6.6.l.x.| A &.=.=.` &. .H F H H A Y ' ",
"0 H ! } } D ! X.! D 3.3.=.' 6.1.f.y.y.X.v.b.H.} ` ` b.b.p.w.&.@.@.6.w.i.@.y.h.h.>.! M ` @.6.6.l.x.| A &.=.=.` &. .H F H H A Y ' ",
"< M W ! ! m A | m 0 #.#.3.@.e.f.f.l.l.h.l.k.y.W o.o.i.8.=.4.>. . .` 3.1...3.8.8.@.Y B | +.' ' 1.d.) A 3.6.6.#.) ) Q ` ] ] H A ` ",
"0 D D ! ! A x / f f ' ' | +.-.y.f.d.f.f.6.@.+.W / / ) +...@.w.3.3. ...6.-. .....' ~ F | ~ ` ` #.$.) ) $.9.9.*.D D ) +. . .f x Q ",
"9 B B A A D m Q l 6 H H / ) ` ` &. ...) o.) ) e A A W ~ ! W D / / X.H ~  .) ! ! ) D 8 H M ! ~ ~ H Q N M Q Q ` w 6 H Y M M q r z ",
"9 B B A A D m Q l 6 H H / ) ` ` =... .) o.) ) e A A W ~ ! W D / / X.H ~  .) ! ! ) D 8 H M ! ! ~ H Q N M Q Q } w 6 H Y M M q r z ",
"- a a d d a a v k k n n L n b L I I I S I E E L n n n I S b v I I U n n b v Z Z b k k b k c c n b c b b v v S v k b k k k d u d ",
"# : : 1 1 2 5 3 y u y y y y y 7 t y y y y p d j h h i i i i h p p u u u u s j j y 2 s y y u u h p i s u i i y 3 y y u t t 3 7 3 ",
". o X X X X X X . X X X X X X # # $ $ $ X # # # # # & $ + # # # # @ # @ # $ & & # # $ @ # # # # # # # # # # # . O # & # # @ # @ ",
". o X X X X X X . X X X X X X # # $ # $ X # # # # # & $ + # # # # @ # @ # $ & & # # $ @ # # # # # # # # # # # . O # & # # @ # @ ",
"o & & - - : ; : = : 3 3 ; 1 1 2 2 2 2 5 y y 7 7 3 3 7 7 y u 7 t t t 4 7 7 7 y y 2 7 y 7 7 t t 7 7 7 5 3 7 7 y 1 1 1 : 1 1 : : : ",
"- 4 4 7 7 y y d d s i i s s i j h h h h c P c R K K c j c c h K K P c J J K J J j c i h h K K K J j j h c c j j c j s u u 2 2 7 ",
"o # # $ $ $ $ & & $ X X X @ X # - = = * $ $ # # # # @ # # # * # # & * & & * & & & & # # # # # # # & * & $ $ & $ $ $ # # # # # # ",
"o # # $ $ $ $ & & $ X X X @ X # - = = & $ $ $ # # # @ # # # * # $ & * & & * & & & & # # # # # # # & * & $ $ & $ & & # # # # # # ",
"  X o # @ @ # o . # O O @ $ @   $ $ $ o X @ # . X X @ # # $ #   . X # O X X @ @ . $ & # X O O X   # @ X X X # X X # # # # $ # . ",
"o - $ ; ; - - & @ : - - & : - @ 2 : : * * ; ; O * * * ; : 1 1 @ @ & ; = $ & & & X : ; 1 1 ; ; & X ; - & * * - & $ : ; ; ; & & X ",
"o - $ ; ; - - & @ : - - - : - @ 1 : : * * ; ; O * * * ; : 1 1 @ @ & ; = $ & & $ X : ; 1 1 ; ; & X ; - & * * - $ $ : ; ; ; & & X ",
"# : - 1 1 : ; ; * 5 : : 1 7 1 $ s u u 2 1 5 2 # 2 2 5 5 2 2 u & & 3 y 2 * ; 5 5 & u 7 7 2 1 1 1 X 3 y 1 1 1 4 = 5 u : 1 1 ; ; # ",
"# 1 ; 2 2 1 1 1 = 7 2 2 5 y 4 $ d y y 2 1 3 y & 2 2 7 2 2 2 h : : 1 y 2 ; 2 u u * y u 7 3 1 1 5 # u y 1 2 2 5 : 2 i 2 1 1 ; : # ",
"# 2 : 5 5 2 2 2 * 7 1 1 y u 5 & h y y 5 2 3 7 = u u 7 2 7 3 h ; ; 1 y 7 5 2 y y # y u 7 y 5 5 2 * h y 7 2 2 7 : = i 2 4 4 1 1 # ",
"# 2 : 5 5 2 2 2 * 7 1 1 y u 5 & h y y 5 2 3 7 = u u 7 2 7 3 h ; ; 1 y 7 5 2 y y # y u 7 y 5 5 2 * h y 7 2 2 7 1 = i 2 4 4 1 1 # ",
"& 5 2 5 5 2 3 3 = 2 7 7 7 u 7 & j i i 7 3 3 2 = d d 5 2 y 7 d 7 7 7 s a y 4 y y * u u 7 y 7 7 2 & i u u 2 2 7 * & i 2 7 7 2 1 # "
};
