/* XPM */
static char *d6561a88e80341d0ea347ba04483f47c8vDXTQJ5er4HxTqO[] = {
/* columns rows colors chars-per-pixel */
"64 64 205 2 ",
"   c #090703",
".  c #0D0A04",
"X  c #130E06",
"o  c #130E08",
"O  c #151007",
"+  c #181007",
"@  c #161009",
"#  c #1C140B",
"$  c #1F180D",
"%  c #1C1913",
"&  c #20170D",
"*  c #23190E",
"=  c #291C0F",
"-  c #241C12",
";  c #2A1E11",
":  c #2E2114",
">  c #26231B",
",  c #2B251B",
"<  c #342415",
"1  c #392716",
"2  c #3B2817",
"3  c #362618",
"4  c #392718",
"5  c #322B1E",
"6  c #3C2A19",
"7  c #2D2925",
"8  c #232328",
"9  c #332D22",
"0  c #312C2A",
"q  c #363124",
"w  c #3B3425",
"e  c #363228",
"r  c #3C3629",
"t  c #3F392B",
"y  c #422E1A",
"u  c #442D19",
"i  c #46311D",
"p  c #4B331E",
"a  c #4C3C1E",
"s  c #51371F",
"d  c #443422",
"f  c #4C3520",
"g  c #423924",
"h  c #4D3A23",
"j  c #433C2C",
"k  c #483F2D",
"l  c #533B24",
"z  c #5A3E26",
"x  c #533E28",
"c  c #453E31",
"v  c #46402F",
"b  c #4A412F",
"n  c #5B4127",
"m  c #53412B",
"M  c #5B452B",
"N  c #57492F",
"B  c #5F492F",
"V  c #474031",
"C  c #4C4433",
"Z  c #4F4835",
"A  c #4D4638",
"S  c #4F4838",
"D  c #514735",
"F  c #5B4730",
"G  c #534936",
"H  c #5C4B32",
"J  c #554C3A",
"K  c #594F3B",
"L  c #57503C",
"P  c #5C523D",
"I  c #61442A",
"U  c #624B2D",
"Y  c #6E552C",
"T  c #654C32",
"R  c #695637",
"E  c #61543E",
"W  c #62583F",
"Q  c #715132",
"!  c #765E35",
"~  c #735A39",
"^  c #77613D",
"/  c #7C653C",
"(  c #444346",
")  c #4C4848",
"_  c #504B48",
"`  c #5D5441",
"'  c #59514A",
"]  c #615642",
"[  c #655A45",
"{  c #6A5D45",
"}  c #655B49",
"|  c #6A5E49",
" . c #6D6146",
".. c #6D624B",
"X. c #746345",
"o. c #7B6744",
"O. c #7D6946",
"+. c #72654D",
"@. c #76684E",
"#. c #7B6B4E",
"$. c #6D6451",
"%. c #6F6854",
"&. c #726651",
"*. c #756952",
"=. c #7A6D54",
"-. c #7A6E59",
";. c #7E7056",
":. c #7D7159",
">. c #7B7361",
",. c #84693A",
"<. c #8D703E",
"1. c #92723D",
"2. c #826B44",
"3. c #896E41",
"4. c #836E4C",
"5. c #8C7244",
"6. c #84704E",
"7. c #8B734C",
"8. c #947A4C",
"9. c #987A48",
"0. c #827255",
"q. c #8A7654",
"w. c #8D7854",
"e. c #83755B",
"r. c #86795E",
"t. c #8A7A5D",
"y. c #937C54",
"u. c #997E52",
"i. c #927D5A",
"p. c #867961",
"a. c #8B7C63",
"s. c #8A7F68",
"d. c #907F63",
"f. c #FFBE32",
"g. c #FDC131",
"h. c #9D8153",
"j. c #95805C",
"k. c #9B835B",
"l. c #A48552",
"z. c #AF8D55",
"x. c #A98A58",
"c. c #8E8165",
"v. c #8E826A",
"b. c #918165",
"n. c #928266",
"m. c #9A8663",
"M. c #9D8A67",
"N. c #94856A",
"B. c #99876C",
"V. c #96896D",
"C. c #9A8A6D",
"Z. c #9B8A6E",
"A. c #928771",
"S. c #958A73",
"D. c #9C8D72",
"F. c #9F9175",
"G. c #9C9179",
"H. c #A58C60",
"J. c #A18E6C",
"K. c #AE9363",
"L. c #AA956E",
"P. c #B59664",
"I. c #B59A6C",
"U. c #A18F71",
"Y. c #A29275",
"T. c #A89677",
"R. c #A49679",
"E. c #A6987D",
"W. c #AA9878",
"Q. c #AA9B7D",
"!. c #B49C73",
"~. c #B19D7A",
"^. c #B8A37B",
"/. c #C3A46E",
"(. c #C6AA7A",
"). c #D1AF79",
"_. c #D8B47B",
"`. c #F4F45B",
"'. c #FBFB62",
"]. c #A69A81",
"[. c #AC9E81",
"{. c #B09F85",
"}. c #AEA083",
"|. c #B2A385",
" X c #BAA886",
".X c #B3A58A",
"XX c #B6A98C",
"oX c #B9AB8C",
"OX c #B5AA92",
"+X c #BBAD91",
"@X c #BEB195",
"#X c #C1AE88",
"$X c #D3B581",
"%X c #C0AF94",
"&X c #C4B495",
"*X c #CDBA97",
"=X c #C3B69A",
"-X c #C6B89B",
";X c #C9B899",
":X c #C2B7A0",
">X c #CCBEA1",
",X c #E2C08B",
"<X c #CEC0A2",
"1X c #D3C6AA",
"2X c #EEEEC1",
/* pixels */
"% J ..J J -...K *.@.+.+.G +.r.=.d.a.a.=.+.G =.C.D.D.@X>X.X{ b.b.b.C.T.e.;.C =.=.Q.B.B.0.N.N.N.[ [ c.V.-.....| r &.D.e.........+.",
"% P k v v ` J K { +.-.-.` a.*.] @.-.=.0.-.D =.Y.;X;X XC.b.a.C.N.b.t.Y.D.V.C -.-.0.+.e...{ P E ..a.+.v.c.+.+.` r =...| +.+.e.e.e.",
"% P k v v ` J K { +.-.-.` a.*.] @.-.=.0.-.D =.Y.;X;X XC.b.a.C.N.b.t.Y.D.V.V -.-.0.+.e...{ P P ..a.+.v.c.+.+.` r =...| +.+.e.e.e.",
"# G G ] ] ` P P J | ....` 0.+.P J K J e.b.V P |.Y.Y.C.e.-.D.C.e.e.0.@.C.a.A e.e.;.0.[ ] ] P P -.b.[ D t.e.e.J 9 p.[ ] =.=.;.t.a.",
"% ` K P P ] J [ ..] =.=.P *.b.@.D b C [ =.w ] U.t.t.C.-.{ 0.e.=.=.+.=.Y.a.V D.D.v.*.=.-.b.+.+.P @.[ [ | a.a.K ` e.....=.=.;.e.a.",
"- | K ` ] J +.+.{ *.0.0.` ] a.P G W W P G 5 | e.a.a.p...P ] +.-.-.a.a.E.=.C =.=.{ K 0.V.e.-.-.;.;.;.e.&.=.=.] 9 K K ..| | *.*...",
"- | K ` ` J +.+.{ *.0.0.` ] a.P G W W P G 5 | e.a.a.p...L ] +.-.-.a.a.E.=.V =.=.{ K 0.V.e.-.-.;.;.;.e.&.=.=.] 9 K K ..| | *.*...",
"- c j J J [ =.*.| *.+.@.g j P v G @.@.=.K 9 G ..[ [ a.e.+.{ @.=.=.b.a.D.=.j ] ] =.;.=.-...;.;.*.] ..a.t.*.*.r 5 ..g k ] ] +.| J ",
"% A Z t t P *...C +.=.=.C +.E b ] @.@.=.+.V { t.=.=.*.t.0.+.@.=.=.N.N.a.] j G G e.a.*.;.;.=.=...] ;.v.=.;.;.r 5 +.[ J P P L v C ",
"% A Z t t P *...C +.=.=.C +.E b ] @.@.=.+.V | t.=.=.*.t.0.+.@.=.=.N.N.a.] j G G e.a.*.;.;.=.=...] ;.v.=.;.;.r 5 +.[ J P P L v C ",
", P Z A C V K P J ` ;.;.A [ ..]  .......0.k ] *.` ` J @.+.@.{ +.+.N.e.-.] 9 9 9 J C g ] P ` ` r K ` A V V V r , V r t k j k w k ",
"% r t q q 9 r A C 9 k k , q V C q g g P P 5 t ] { { k J 5 g q 5 5 G v q G ` D D e $.>.] k ` ` ] A A > q -.-.V.D.C.a.-.| | } ] &.",
"A | &.t t C K ` ] 9 ` ` e.+.] k c ....&.v.*.p.R..X.X:XOXa...j | | S.S.s.OX=XoXoX[.>XXXoXC.D.D.e.t.0.C C &X&XR.0.0.e.a.].].].e.N.",
"A | &.t t C K ` ] 9 ` ` e.+.] k k ..| +.c.*.p.R..X.X:XOXa...j | | S.S.s.OX=XoXoX[.>XXXoXM.C.C.0.w.0.D C &X&XR.0.0.e.a.].].].e.N.",
"K =.e.e.e.J P ] | A *.*.Y.b.r.{ { q.q.{ { +.e.P G.G.>XR.C.a...D.D.@X+X|.+XY.Y.Y.Y.Q.b. X+XJ.J.q.4.4.+.e.E.E.+.P *...D.Y.Y.e.| -.",
"j ] J [ [ P ` =.P t ....b.a.X.~ O.h a U i.m.#.G ] ` e.=.;.a...XXXXF.].[.oX[.b.b.b.Y.r.b.i.y.y.y.o.i.@.b.|.[.e.+.=.b.c.a.a.=.] | ",
"V P ` ] ] [ [ P P c | | =.Q.q.R / / ! ^ 7.7.X.O.X.{ F.|.D.V.p.%X%XD.e.E.+X|.D.D.Q.b.t.w.7.! Y 9.h.I.#.P T.Y.Y.t.=.=.N.C.C...D ] ",
"V P ` ] ] [ [ P P c | | 0.~.i.^ 3.5.<.<.u.8.o.2.X. .F.|.C.V.p.%X%XD.e.E.+X|.D.D.Q.m.j.y.u.,.,.l.x.I.0.E W.Y.Y.t.=.=.N.C.C...D ] ",
"t [ [ ] ] P | G [ k &.=.M.w.k.K.P.z.2X1.,.5.y.k.q.0.Y.XXY.-.J [.[.Y.F.E.R.V.c.b.;X~.q.! 3.9.2Xl.x.I.k.E t.t.W.e.*.+.-.Q.Q.;.K P ",
"j &.+.P P K P G ..c e.t.M.R y._.,X_.`.z.<.9.I.L.m.b.Y.|.0.{ &.oXoXD.|.}.U.b.D.Y.t.!.w.3.9.1.`.l.z.h.4.#.M.M.R.N.e.0.;.D.D.P P +.",
"r J | J J ..[ J &.C *.=.J.6.x./.M '.'.'.M K.(.^.^.Q.Y.R.@.=.-.Q.Q.N.R.D.=.=...@.X.y.k._.M '.'.'.B P.j.0.L.J.N.D.D.b.[ P P P +.p.",
"r J | J J ..[ J &.C *.=.J.6.H./.F g.'.g.F K.(.^.~.Q.Y.R.@.=.-.Q.Q.N.R.D.=.=...@.X.y.k.$XF g.'.g.F P.j.6.L.J.N.D.D.b.[ P P P +.p.",
"r J P P P J G P { C +.@.m.m.!.(.).F f.).,XI.I.j.t.e.b.C.t.] g ;.;.&.{ r.e.b.=.0.M.i.4.K.P.F f.l.l.K.X.E t.r.0.C.Y.0...] ] &.c.b.",
"9 A A K K c e K ` > V V @.E q.k.u.m +.5.5.2.o.m j g P s.*.` j ` P A r ] +.-.*.=.0.E H O.2.m +.! R o.K g L J V ` ] J J w w g K } ",
"9 A A K K c e K ` > V V +.K 6.y.y.j } 2.O.o.X.b g r P s.*.` j ` ` A r ] +.-.*.=.-.P N X.^ j } R T X.F w J J V ` ] J J w w g K } ",
", K G *.*.a.p.D.Q.S.A.A.N.e.a.t.b.r ' i @.b.-.|..X.XD.@X+XS.G.V.V.].F.| 5 ] ....` ] { h 0.r ' M.J. XU.C.Y.D.N.N...$.| S S J ..` ",
"t *.[ ] ] =...-.t.C.oXoXoX;X*X#X*X0 _ _ ~.*X XV.F.F.C.oXQ.R.D.N.N.[.V.=.e.b.e.e.0.=.r.{ Q.0 _ _ ~.r.Y.T.N.N.F.[.V.[.c.c.c.Y.D.Y.",
"e { { | | ] | r.e.N.Q.Q.Y.oX X^.Y.7 ) v ( Q.-XOXR.R.F.b.b.a.Q.|.|.|.a.] F.a.E E ] ] 0.L a.7 ) 0.( +.0.e.a.a.N.Y.E.V.| +.+.b.B.Y.",
"e { { | | ] | r.e.N.Q.Q.Y.oX XQ.( ( ( ( 8 Q.-XOXR.R.F.b.b.a.Q.|.|.|.a.] F.a.E E ] ] 0.J ( ( ( ( 8 ..0.e.a.a.N.Y.E.V.| +.+.b.B.Y.",
", K +.| | D { e.N.Y.Y.Y.|.XXQ.8 8 8 8 8 8 8 D.}.}.}.D.R.Y.C.R.oXoX.X[.e.p.N.| | ] +.=.8 8 8 8 8 8 8 a.=.-.-.N.F.|.D.V.V.V.a.R.D.",
"e E =.e.e.K D ] a.c.r.r.}.XXQ.|.|.r.r.] Q.0...=.N.N.T.}.oXQ.R.Q.Q.Y.a.G *.b.[ [ ] =.e.E :.R.R.Y.D.Y.Y.N.a.a.C.V.N.Y.[.{.{.D.;.V.",
"k | | e.e.-.*.=.D.a.V.V.}.Y.oX XR.D.D.] r.N.a.Q.|.|.D.Y.[.F.Y.Q.Q.C.e.| ` { [ [ { | t.-.e.c.c.*.Y.C.a.r.a.a.a.a.N.N.D.Q.Q.D.a.*.",
"k | | e.e.-.*.=.D.a.V.V.}.Y.oX XR.D.D.] r.N.a.Q.|.|.D.Y.[.F.Y.Q.Q.C.e.| ` { [ [ { | t.-.e.c.c.*.Y.C.a.r.a.a.a.a.N.N.D.Q.Q.D.a.*.",
"k ..[ 0.0.0.;.=.=.e.F.F.[.Y.Y.|.a.a.a.A L  .] t.a.a.c.F.Q.Y.Y.Y.Y.V.;.;...=.......] { K ..Q.Q.C.a.r.a.;.+.+.a.b.R.F.e.a.a.a.e.e.",
"A *...a.a.a.*.e.r.=.r.r.T.Q.|.|.b.F.F...e.N.@.@.e.e.N.b.C.a.N.C.C.N.e.D *.a.e.e.r.e.+...` |.|.T.t.;.;.[ ....a.D.D.b.a.=.=.+.a.r.",
"9 J ] +.+.| ..[ ..=.;.;.N.C.Q.Q.b.;.;.w @.e.=...G G { +.P C ..P P J [ q D ..*.*.+.*.e.J t *.*.e.M.-.[ A c c C [ ] ..[ G G V J V ",
"9 J ] +.+.| | [ ..=.;.;.N.C.Q.Q.c.;.;.w @.e.=...G G { +.P C ..P P J [ q D ..*.*.+.*.e.J t *.*.e.M.-.[ A c c C [ ] ..[ G G V J V ",
"C -.@.a.a.N.e.a.=.9 K K *.=.*...:.%.%.` $.J ` r c c A K v.$.N.G.G.s.v.N.V.p.a.a.N.G 9 | G.].].A.=.P .X:.....;.A , K ] ` ` s.v.A.",
"A e.t.e.e.e.=.e.e.V e.e.a.:.OX:XG.@X@X1X<X.X<X| S.S.oX}.=Xa.D.<X<X XXXoXXXY.a.a.Y.| k D.XX-X-X1XoX.X&XY.-.-.C.a.| [.e.=.=.|. XR.",
"j { +.*.*.| ` ;.-.e &.&.p.p..X|.N.}.}.XX X|.+X] a.a. XQ.Q.F.V.Q.Q.Q.Q.[.|.D.0.0.t.p.K ..p.}.}.XX+XE.Q.Y.e.e.v.;.&.D.*.b.b.D.D.=.",
"j { +.*.*.| ` ;.-.e &.&.p.p..X|.N.}.}.XXXX|.+X] a.a. XQ.Q.Y.C.Q.Q.Q.Q.[.|.C.0.0.t.p.K ..p.}.}.XX+XE.Q.Y.e.e.v.;.+.D.@.b.b.D.D.=.",
"j ..| ....+.] &.$.c b.b.[.S.[.V.Q.Y.Y.R.oX X|.` S.S.XXXX[.Y.C.C.C.Y.V.|.|.C.Y.Y.r.D.{ J ;.Q.Q.|.[.:.v.Y.D.D.c.0.` =.;. ...{ -.e.",
"q P [ &.&.J [ ;.[ J b.b.a.@.N.c.Y.D.D.;.}.|.=X&.+.+.|.|.F.C.p.e.e.N.C.D.e.D.R.R.a.[ C +.e.N.N.Q.[.*.G p.a.a.+.p.=.P K L L G E @.",
"q P [ &.&.J [ ;.[ J b.b.a.&.N.c.Y.D.D.;.}.|.=X&.+.+.|.|.F.C.p.e.e.N.C.D.e.D.R.R.a.[ C +.e.N.N.Q.[.*.G p.a.a.+.p.=.P K L L G E @.",
", C ` ] ] V G *.V q r.r.b.e.C.Y.Y.Q.Q.R.Q.E.D.` :.:.D.V.a.b.a.=.-.+.b.c.-.b.V.V.e.E A =.0.@.@.c.Y...G b.N.N.r.....] +.#.#.L G +.",
"q J J [ [ G v | k j @.@.=.0.a.D.Y.Y.Y.Y.N.e.;.` | | ..0.-.e.C.b.b.=.=.N.a.=.-.-.@.{ K *.{ +.+.r.t.....t.M.M.a.J J ..0.=.=.k v ] ",
"9 A A G G J V ] c 5 P P | ..+.+.a.=.-...:.....r G G ` | ] ` J | | ;.P | =...[ [ ..J 7 L C [ | { P ] Z C ] ] &.e 5 P E C C w t v ",
"9 A A G G J V ] c 5 P P | ..+.+.a.-.=...:.....r G G ` | [ ` J | | ;.P | =...[ [ ..J 7 L C [ [ { P ] Z C ] ] &.e 5 P E C C w t v ",
"- d d h h d d m x x B B U B n U T T T H T ~ ~ U B B B T H M m T T R B B M m F F M x x n x n n B n n M n m m H m x M x x x h i h ",
"# : : < < 1 4 2 y i y y y y y 6 u y y y y s f z l l p p p p l s s i i i i f z z y 1 f y y i i l s p f i p p y 2 y y i y y 2 6 2 ",
". o X X X X X X . X X X X X X # # $ $ $ X # # # # # & $ + # # # # @ # @ # $ & & # # $ @ # # # # # # # # # # # . O # & # # @ # @ ",
". o X X X X X X . X X X X X X # # $ $ $ X # # # # # & $ + # # # # @ # @ # $ & & # # $ @ # # # # # # # # # # # . O # & # # @ # @ ",
"o & & - - : ; : = : 2 2 ; < < 1 1 1 1 6 y y 6 6 2 2 6 6 y i 6 y y y 1 6 6 6 y y 1 6 y 6 6 y y 6 6 6 4 2 6 6 y < < < : < < : : : ",
"- 3 3 6 6 y y h h f p p f f p z l l l l n T n Q I I n z n n l I I T n I I I I I z n p l l I I I I z z l n n z z n z f i i 1 1 6 ",
"o # # $ $ $ $ & & $ X X X @ X # - = = * & $ # # # # @ # # # * # # $ * & & * & & & & # # # # # # # & * & $ $ & $ $ $ # # # # # # ",
"o # # $ $ $ $ & & $ X X X @ X # - = = * & $ # # # # @ # # # * # # $ * & & * & & & & # # # # # # # & * & $ $ & $ & & # # # # # # ",
"  X o # @ @ # o . # O O @ $ @   $ $ $ o X @ # . X X @ # # $ #     X # O X X @ @ . $ & # X O O X   # @ X X X # X X # # # # $ # . ",
"o - $ ; ; - - & @ : - - & : - @ 1 : : * * ; ; O * * * ; : < < @ @ & ; = $ & & & X : ; < < ; ; & X ; - & * * - & $ : ; ; ; & & X ",
"o - $ ; ; - - & @ : - - - : - @ < : : * * ; ; O * * * ; : < < @ @ & ; = $ & & $ X : ; < < ; ; & X ; - & * * - $ $ : ; ; ; & & X ",
"# : - < < : ; ; * 4 : : < 6 < $ f i i 1 < 4 1 # 1 1 4 4 1 1 i & & 2 y 1 * ; 4 4 & i 6 6 1 < < < X 2 y < < < 3 = 4 i : < < ; ; # ",
"# < ; 1 1 < < < = 6 1 1 4 y 3 $ h y y 1 < 2 y & 1 1 6 1 1 1 l : : < y 1 ; 1 i i * y i 6 2 < < 4 # i y < 1 1 4 : 1 p 1 < < ; : # ",
"# 1 : 4 4 1 1 1 * 6 < < y i 4 & l y y 4 1 2 6 = i i 6 1 6 2 l ; ; < y 6 4 1 y y # y i 6 y 6 4 1 * l y 6 1 1 6 : = p 1 3 3 < < # ",
"# 1 : 4 4 1 1 1 * 6 < < y i 4 & l y y 4 1 2 6 = i i 6 1 6 2 l ; ; < y 6 4 1 y y # y i 6 y 4 4 1 * l y 6 1 1 6 < = p 1 3 3 < < # ",
"& 4 1 4 4 1 2 2 = 1 6 6 6 i 6 & z p p 6 2 2 1 = h h 4 1 y 6 h 6 6 6 f d y 3 y y * i i 6 y 6 6 1 & p i i 1 1 6 * & p 1 6 6 1 < # "
};
