/* XPM */
static char * patronus_04[] = {
"64 64 16 1",
"a c #EBFAFF",
"b c #A0DCFF",
"c c #5AAAFF",
"d c #509BF1",
"e c #4D95EB",
"f c #478CE3",
"g c #4589E0",
"h c #4080D8",
"i c #3E7ED5",
"j c #3D7BD3",
"k c #3975CD",
"l c #356FC8",
"m c #346DC6",
"n c #336CC4",
"o c #3168C1",
"p c #FF00FF",
"pppppppppppppppppppppppppppppppppppppppppppppppppppppppppppppppp",
"pppppppppppppppppppppppppppppppppppppppppppppppppppppppppppppppp",
"ppppppppppppppppppppppppomlmopppppppppomlmoppppppppppppppppppppp",
"pppppppppppppppppppppppnkjijknpppppppnkjijknpppppppppppppppppppp",
"ppppppppppppppppppppppokhgfghkopppppokhgfghkoppppppppppppppppppp",
"pppppppppppppppppppppnkjgedegjmpppppmjgedegjknpppppppppppppppppp",
"ppppppppppppppppppppokhgfdadfilppppolifdadfghkoppppppppppppppppp",
"ppppppppppppppppppppmjgeddadfhknppnkjhfdaddegjmppppppppppppppppp",
"pppppppppppppppppppplifdadadeghkookhgfedadadfilppppppppppppppppp",
"ppppppppppppppppppppmjgedadadegjmmjgeddadadegjmppppppppppppppppp",
"ppppppppppppppppppppokhgedaaadfhkkhfdaaaadeghkoppppppppppppppppp",
"pppppppppppppppppppppnkhgedaadegjjgedaaadeghknpppppppppppppppppp",
"ppppppppppppppppppppppnkhfdaaadfiifdaaaadfhknppppppppppppppppppp",
"pppppppppppppppppppppppmjgedaadfhhfdaaadegjmpppppppppppppppppppp",
"pppppppppppppppppppppppokhfdaadeggedadadfhkopppppppppppppppppppp",
"pppppppppppppppppppppppnkjgedaadffdaaddegjknpppppppppppppppppppp",
"ppppppppppppppppppppppokhgffdaadeedaadfgfghkoppppppppppppppppppp",
"ppppppppppppppppppppppmjgedeedaaddaadegedegjmppppppppppppppppppp",
"ppppppppppppppppppppppcifdbdbdaabbaadeedbdcilppppppppppppppppppp",
"ppppppppppppppppppppppmjgedbddbbbbbbbddbdegjmppppppppppppppppppp",
"ppppppppppppppppppppppokhfdbbbbbaaabbbbbdfhkoppppppppppppppppppp",
"pppppppppppppppppppppppmjgedbbbaaaaabbbdegjmpppppppppppppppppppp",
"ppppppppppppppppppppppomkhfdbbaaaaaaabbdfhkopppppppppppppppppppp",
"pppppppppppppppppppppnkjhgedbbaaaaaaabbdfilppppppppppppppppppppp",
"ppppppppppppppppppppokhgfedbbbaaaaaaabbdfilppppppppppppppppppppp",
"ppppppppppppppppppppmjgeddbbbbbaaaaabbbdfilppppppppppppppppppppp",
"pppppppppppppppppppplibdbbbbbbbbaaabbbdegjllmopppppppppppppppppp",
"pppppppppppppppppppplifdbbbbbbbbbbbbbdeghiiijkmopppppppppppppppp",
"ppppppppppppppppppppmjgedbbbbbbbbbbbdegfffffbhjknpcppppppppppppp",
"ppppppppppppppppppppokhfdbbbbbbbbbddefedddddefghknpppppppppppppp",
"ppppppppppppppcpppppnkhfdbbbbbbbbbbbdddbbbbbddeghknmlmoppppppppp",
"pppppppppppppppppppnkhgeddbbbbbbbbbbbbbbbbbbbbdeghkjijknpppppppp",
"ppppppppppppppppppnkhgedbbbbbbbbbbbbbbbbbbbbbbbdeghgfghkoppppppp",
"pppppppppppppppppokhgedbbbbbbbbbbbbbbbbbbbbbbbbbdefedegjmppppppp",
"pppppppppppppppppmjgedbbbbbbbbbaaabbbbbbbbbbbbbbbdddbdfilppppppp",
"ppppppppppppppppokhfdbbbbbbbbaaaaaaabbbbbbbbbbbbbbbbdegjmppppppp",
"ppppppppppppppppmjgedbbbbbbbbaaaaaaabbbbbbbbbbbbbbbbdfhkoppppppp",
"pppppppppppppppplifdbbbbbbbbaaaaaaaaabbbbbbbbbbbbbbdegjmpppppppp",
"pppppppppppppppplifdbbbbbbbbaaaaaaaaabbbbbbbbbbbbbdeghkopppppppp",
"pppppppppppppppplifdbbbbbbbbaaaaaaaaabbbbbbbbbbbbbdfhknppppppppp",
"pppppppppppppppplibdbbbbbbbbaaaaaaaabbbbbbbbbbbdbdegjmpppppppppp",
"pppppppppppppppplifdbbbbbbbbabaaaaaabbbbbbbbbbdedeghkopppppppppp",
"ppppppppppppppppmjgedbbbbbbbbbaaaabbbbbbbbbbddbgfghknppppppppppp",
"ppppppppppppppppokhfdbbbbbbbbbabbbbbbbbbbbbbdfghijknpppppppppppp",
"pppppppppppppppppmjgedbbbbbbbbbbaabbbbbbbbbdegjklmoppppppppppppp",
"pppppppppppppppppokhgedbbbbbbbbbabbbbbbbbbdeghkopppppppppppppppp",
"ppppppppppppcpppppnkhgedbbbbbbbbbbaabbbbbbbdfilppppppppppppppppp",
"pppppppppppppppppppnkhfdbbbbbbbbbbabbbbdbbbdfilppppppppppppppppp",
"pppppppppppppppppppplifdbbbdbbbbbbbbaabdbbbdfilpppppcppppppppppp",
"pppppppppppppppppppplifdbbbdbbbdddddabbdbbbdfilppppppppppppppppp",
"pppppppppppppppppppplifdbbbdbbbdfffdbbaabbbdfilppppppppppppppppp",
"pppppppppppppppppppplifdbbbdbbbdfifdbbabbbbdfilppppppppppppppppp",
"pppppppppppppppppppplifdbbbdbbbdfifdbbbdaabdfilppppppppppppppppp",
"pppppppppppppppppppplifdbbbdbbbdfifdbbbdabbdfilppppppppppppppppp",
"pppppppppppppppppppplifdbbbdbbbdfhfdbbbdbbbdfhkopppppppppppppppp",
"pppppppppppppppppppplifdbbbdbbbdegfdbbbdbbbdegjmpppppppppppppppp",
"pppppppppppppppppppplifdbbbbbbbbdffdbbbbbbbbdfilpppppppppppppppp",
"pppppppppppppppppppplifdbbbbbbbbdffdbbbbbbbbdfilpppppppppppppppp",
"pppppppppppppppppppplifdbbbbbbbbdffdbbbbbbbbdfilpppppppppppppppp",
"ppppppppppppppppppppmjgeddddddddeggeddddddddegjmpppppppppppppppp",
"ppppppppppppppppppppokhgffffffffghhgffffffffghkopppppppppppppppp",
"pppppppppppppppppppppnkjiiiiiiiijkkjiiiiiiiijknppppppppppppppppp",
"ppppppppppppppppppppppomllllllllmoomllllllllmopppppppppppppppppp",
"pppppppppppppppppppppppppppppppppppppppppppppppppppppppppppppppp"
};
