/* XPM */
static char * patronus_03[] = {
"64 64 22 1",
"a c #EBFAFF",
"b c #A0DCFF",
"c c #529EF4",
"d c #4F99EF",
"e c #4B92E9",
"f c #498FE6",
"g c #4589E0",
"h c #4487DE",
"i c #4385DC",
"j c #3F80D7",
"k c #3C7BD3",
"l c #3C7AD2",
"m c #3B78D0",
"n c #3975CE",
"o c #356FC8",
"p c #346EC7",
"q c #326BC4",
"r c #3068C1",
"s c #2F66BF",
"t c #2E64BD",
"u c #2D63BC",
"v c #FF00FF",
"vvvvvvvvvvvvvvvvvvvvvvvvvutuvvvvvvvvvvvutuvvvvvvvvvvvvvvvvvvvvvv",
"vvvvvvvvvvvvvvvvvvvvvvvsqpopqsvvvvvvvsqpopqsvvvvvvvvvvvvvvvvvvvv",
"vvvvvvvvvvvvvvvvvvvvvvronlklnorvvvvvronlklnorvvvvvvvvvvvvvvvvvvv",
"vvvvvvvvvvvvvvvvvvvvvsomjihijmosvvvsomjihijmosvvvvvvvvvvvvvvvvvv",
"vvvvvvvvvvvvvvvvvvvvronjgfefgjnqvvvqnjgfefgjnorvvvvvvvvvvvvvvvvv",
"vvvvvvvvvvvvvvvvvvvsomjifdcdfilpuvsplifdcdfijmosvvvvvvvvvvvvvvvv",
"vvvvvvvvvvvvvvvvvvvqnjgfecacehkorronkhecacefgjnqvvvvvvvvvvvvvvvv",
"vvvvvvvvvvvvvvvvvvuplifdccacegjmoomjigecaccdfilpuvvvvvvvvvvvvvvv",
"vvvvvvvvvvvvvvvvvvtokhecacacdfgjnnjgfedcacacehkotvvvvvvvvvvvvvvv",
"vvvvvvvvvvvvvvvvvvuplifdcacacdfillifdccacacdfilpuvvvvvvvvvvvvvvv",
"vvvvvvvvvvvvvvvvvvvqnjgfdcaaacegjjgecaaaacdfgjnqvvvvvvvvvvvvvvvv",
"vvvvvvvvvvvvvvvvvvvsomjgfdcaacdfiifdcaaacdfgjmosvvvvvvvvvvvvvvvv",
"vvvvvvvvvvvvvvvvvvvvromjgecaaacehhecaaaacegjmorvvvvvvvvvvvvvvvvv",
"vvvvvvvvvvvvvvvvvvvvvrolifdcaaceggecaaacdfilorvvvvvvvvvvvvvvvvvv",
"vvvvvvvvvvvvvvvvvvvvvvqnjgecaabdffbcacacegjnqvvvvvvvvvvvvvvvvvvv",
"vvvvvvvvvvvvvvvvvvvvvsomjifdcaaceecaaccdfijmosvvvvvvvvvvvvvvvvvv",
"vvvvvvvvvvvvvvvvvvvvvqbjgfeecaacddcaacefefbjnqvvvvvvvvvvvvvvvvvv",
"vvvvvvvvvvvvvvvvvvvvuplifdcddcaaccaacdfdcdfilpuvvvvvvvvvvvvvvvvv",
"vvvvvvvvvvvvvvvvvvvvtokhecbcbcaabbaacddcbcehkotvvvvvvvvvvvvvvvvv",
"vvvvvvvvvvvvvvvvvvvvuplifdcbccbbbbbbbccbcdfilpuvvvvvvvvvvvvvvvvv",
"vvvvvvvvvvvvvvvvvvvvvqnjgecbbbbbaaabbbbbcegjnqvvvvvvvvvvvvvvvvvv",
"vvvvvvvvvvvvvvvvvvvvvsolifdcbbbaaaaabbbcdfilosvvvvvvvvvvvvvvvvvv",
"vvvvvvvvvvvvvvvvvvvvronljgecbbaaaaaaabbcegjnqvvvvvvvvvvvvvvvvvvv",
"vvvvvvvvvvvvvvvvvvvsomjigfdcbbaaaaaaabbcehkosvvvvvvvvvvvvvvvvvvv",
"vvvvvvvvvvvvvvvvvvbqnjgfedcbbbaaaaaaabbcehkotvbvvvvvvvvvvvvvvvvv",
"vvvvvvvvvvvvvvvvvvuplifdccbbbbbaaaaabbbcehkopqsvvvvvvvvvvvvvvvvv",
"vvvvvvvvvvvvvvvvvvtokhbcbbbbbbbbaaabbbcdfikklnoqsvbvvvvvvvvvvvvv",
"vvvvvvvvvvvvvvvvvvtokhecbbbbbbbbbbbbbcdfghhhijlnorvvvvvvvvvvvvvv",
"vvvvvvvvvvvvvvbvvvuplifdcbbbbbbbbbbbcdfeeeeebgijmorutuvvvvvvvvvv",
"vvvvvvvvvvvvvvvvvvvqnjgecbbbbbbbbbccdedcccccdefgjmopopqsvvvvvvvv",
"vvvvvvvvvvvvvvvvvvromjgecbbbbbbbbbbbcccbbbbbccdfgjmlklnorvvvvvvv",
"vvvvvvvvvvvvvvvvvromjgfdccbbbbbbbbbbbbbbbbbbbbcdfgjihijmosvvvvvv",
"vvvvvvvvvvvvvvvvsomjgfdcbbbbbbbbbbbbbbbbbbbbbbbcdfgfefgjnqvvvvvv",
"vvvvvvvvvvvvvvvvqnjgfdcbbbbbbbbbbbbbbbbbbbbbbbbbcdedcdfilpuvvvvv",
"vvvvvvvvvvvvvvvsolifdcbbbbbbbbbaaabbbbbbbbbbbbbbbcccbcehkotvvvvv",
"vvvvvvvvvvvvvvvqnjgecbbbbbbbbaaaaaaabbbbbbbbbbbbbbbbcdfilpuvvvvv",
"vvvvvvvvvvvvvvuplifdcbbbbbbbbaaaaaaabbbbbbbbbbbbbbbbcegjnqvvvvvv",
"vvvvvvvvvvvvvvtokhecbbbbbbbbaaaaaaaaabbbbbbbbbbbbbbcdfilosvvvvvv",
"vvvvvvvvvvvvvvtokhecbbbbbbbbaaaaaaaaabbbbbbbbbbbbbcdfgjnqvvvvvvv",
"vvvvvvvvvvvvvvtokhecbbbbbbbbaaaaaaaaabbbbbbbbbbbbbcegjmosvvvvvvv",
"vvvvvvvvvvvvvvtokhbcbbbbbbbbbaaaaaaabbbbbbbbbbbcbcdfilorvvvvvvvv",
"vvvvvvvvvvvvvvtokhecbbbbbbbbbaaaaaaabbbbbbbbbbcdcdfgjnqvvvvvvvvv",
"vvvvvvvvvvvvvvuplifdcbbbbbbbbbbaaabbbbbbbbbbccbfefgjmosvvvvvvvvv",
"vvvvvvvvvvvvvvvqnjgecbbbbbbbbbbbbbbbbbbbbbbbcefghijmorvvvvvvvvvv",
"vvvvvvvvvvvvbvvsolifdcbbbbbbbbbbbbbbbbbbbbbcdfijklnorvvvvvvvvvvv",
"vvvvvvvvvvvvvvvvqnjgfdcbbbbbbbbbbbbbbbbbbbcdfgjnopqsvvvvvvvvvvvv",
"vvvvvvvvvvvvvvvvsomjgfdcbbbbbbbbbbbbbbbbbbbcehkosuvvbvvvvvvvvvvv",
"vvvvvvvvvvvvvvvvvromjgecbbbbbbbbbbbbbbbcbbbcehkotvvvvvvvvvvvvvvv",
"vvvvvvvvvvvvvvvvvvrokhecbbbcbbbbbbbbbbbcbbbcehkotvvvvvvvvvvvvvvv",
"vvvvvvvvvvvvvvvvvvtokhecbbbcbbbcccccbbbcbbbcehkotvvvvvvvvvvvvvvv",
"vvvvvvvvvvvvvvvvvvtokhecbbbcbbbceeecbbbcbbbcehkotvvvvvvvvvvvvvvv",
"vvvvvvvvvvvvvvvvvvtokhecbbbcbbbcehecbbbcbbbcehkotvvvvvvvvvvvvvvv",
"vvvvvvvvvvvvvvvvvvtokhecbbbcbbbcehecbbbcbbbcehkotvvvvvvvvvvvvvvv",
"vvvvvvvvvvvvvvvvvvtokhecbbbcbbbcehecbbbcbbbcehkosvvvvvvvvvvvvvvv",
"vvvvvvvvvvvvvvvvvvtokhecbbbcbbbcegecbbbcbbbcegjnqvvvvvvvvvvvvvvv",
"vvvvvvvvvvvvvvvvvvtokhecbbbcbbbcdfecbbbcbbbcdfilpuvvvvvvvvvvvvvv",
"vvvvvvvvvvvvvvvvvvtokhecbbbbbbbbceecbbbbbbbbcehkotvvvvvvvvvvvvvv",
"vvvvvvvvvvvvvvvvvvtokhecbbbbbbbbceecbbbbbbbbcehkotvvvvvvvvvvvvvv",
"vvvvvvvvvvvvvvvvvvtokhecbbbbbbbbceecbbbbbbbbcehkotvvvvvvvvvvvvvv",
"vvvvvvvvvvvvvvvvvvuplifdccccccccdffdccccccccdfilpuvvvvvvvvvvvvvv",
"vvvvvvvvvvvvvvvvvvvqnjgfeeeeeeeefggfeeeeeeeefgjnqvvvvvvvvvvvvvvv",
"vvvvvvvvvvvvvvvvvvvsomjihhhhhhhhijjihhhhhhhhijmosvvvvvvvvvvvvvvv",
"vvvvvvvvvvvvvvvvvvvvronlkkkkkkkklnnlkkkkkkkklnorvvvvvvvvvvvvvvvv",
"vvvvvvvvvvvvvvvvvvvvvsqpoooooooopqqpoooooooopqsvvvvvvvvvvvvvvvvv"
};
