/* XPM */
static char * dark_wraith_bob_02[] = {
"64 64 48 1",
"a c #D7CAB9",
"b c #8D8178",
"c c #756A63",
"d c #615957",
"e c #564C4A",
"f c #464347",
"g c #413A3E",
"h c #3A373F",
"i c #363239",
"j c #342E33",
"k c #2E2C33",
"l c #2B282F",
"m c #28252C",
"n c #262226",
"o c #212028",
"p c #1F1E24",
"q c #1C1A22",
"r c #1A161B",
"s c #16151C",
"t c #14131A",
"u c #131219",
"v c #121015",
"w c #0F0E14",
"x c #0D0D12",
"y c #0C0A0E",
"z c #0A090D",
"A c #08090C",
"B c #090709",
"C c #070609",
"D c #060608",
"E c #050508",
"F c #040407",
"G c #030405",
"H c #FF00FF",
"I c #040305",
"J c #030305",
"K c #020205",
"L c #020203",
"M c #020202",
"N c #020103",
"O c #010103",
"P c #020101",
"Q c #010101",
"R c #010100",
"S c #000101",
"T c #010001",
"U c #000001",
"V c #000000",
"HHHHHHHHHHHHHHHHHHHHHHHHHHHHHHHHHHHHHHHHHHHHHHHHHHHHHHHHHHHHHHHH",
"HHHHHHHHHHHHHHHHHHHHHHHHHHHHHHHHHHHHHHHHHHHHHHHHHHHHHHHHHHHHHHHH",
"HHHHHHHHHHHHHHHHHHHHHHHHHHHHHHHHHHHHHHHHHHHHHHHHHHHHHHHHHHHHHHHH",
"HHHHHHHHHHHHHHHHHHHHHHHHHHHHHHHHHHHHHHHHHHHHHHHHHHHHHHHHHHHHHHHH",
"HHHHTTVVRLEUEIDEKmidcdgfqhhvEBDCKBJFAAKACKEEEFzOyCEBCFINLJGIHHHH",
"HHHHVVVMRLQNTJMEmffdcdihmshhmDOOEQCKJFEKKECEFJzwFCFAJJxLDLDLHHHH",
"HHHHVVVQMTBNIOIsoikcdjeggqpkilJGEyOzFCFxwCCAxzExwfpzxCLyDMIJHHHH",
"HHHHVVVVQOOETIMelijbbgeejktvokmJKUuKJKyEEAAzEAAECjiozJxKIMFQHHHH",
"HHHHVVVVQOJOEDzfohbcggeeekqzsilAOwOxEEEKxKwEyKzxKjjgCODGFLLGHHHH",
"HHHHVVVUQJNKEIFelhcbcgjfjkoqspqmKLzKCCFzKxCxFwBByyhhkJAGGJCUHHHH",
"HHHHVVVULTyICKCinbDMvcbgikmquqpiwUCAEyCEyFzEwFvwxEhhkvDLyJJNHHHH",
"HHHHVVVUGOKOEInebySSMIibfdkowulqzOKzCKCKAAJzzDAzxKhhkJCGOJGOHHHH",
"HHHHVVVUOOACJEhdyDSRQMreciofwFlkpUCKFCAzEEuOyECwCwgikvEFzOALHHHH",
"HHHHVVGKCUOUBEedrNSSVVRBcefmsEnpjlOKFFBrijkhioCCzfhsoUGGJCOUHHHH",
"HHHHVTMVQOJOLBfkMMSVVVVMyeimkrGqwnmAFxiijihhihhiihplBLLDyMNLHHHH",
"HHHHVVQVMNOTLAgIVIVVVVVVPvdmivLMjfmfrciggiifkhijgprspNLSDFEJHHHH",
"HHHHVVQQMTIvytgAOMVVVVVVTPflkwUppfjgebgjdgikkmlillqssINGOJFUHHHH",
"HHHHVTMMGNlmsmfKtxVVVVVRVPmlmxQiievbbbbddhkuupnqplqquszMKNxJHHHH",
"HHHHVVGQLmlqvkiLzOVQTVVMRTNiqFnfdBddbbcenedjfiqvIFkgltpCEJIOHHHH",
"HHHHVQPQGrkvDjhVrFVMVQNIVRUpqElggIfffbjbcedigiiirNwmmqpooCKLHHHH",
"HHHHVTPMJrmAFkiUuCPVQUFDUVUqxzqnBndfilbcbbcediifryTAmqlpmzzNHHHH",
"HHHHVRDMLijBMhmMwsMMQVBCOMLxEfktBddikednmgbcefhhfhpMKxxrFxCBHHHH",
"HHHHVVMMMxmpDAfMIlBGQVFyDAKEmfpCvdfkdelyGGrryvwwwwBNQOOQQGxBHHHH",
"HHHHVQQOxxhhsBvfDivDGUsvwxKljlOIvdomiyMOBnfbcedjrpppzNOSQzGGHHHH",
"HHHHSVOOuuhhiszeeyfrBUKxvzFrjvDndgmrrMGrdddcdccfdeefqpIMVxxCHHHH",
"HHHHVUTxojhiipECrdegvCJVAImsyUNgclpLTLmjdgdcedcfjhjeekxOOLBGHHHH",
"HHHHOCngkhghhomFFxeeffqOUOOEJxihhkzINqogdkgggqxfeddehlkoxEIJHHHH",
"HHHHJklghhhghisuxKJvsyxUUFKxvrjifsVVKqoooqquyufccedddepkhCTVHHHH",
"HHHHLljihmfffioszFKKTUVUCprmnbdlwUVFusoqqoqAIoecccccdcqedlOEHHHH",
"HHHHOrFBwygffhfttsxAEFAKqefjnlLxBNTwussqqsoJKffNIBIIgjbdekANHHHH",
"HHHHQQSKrrffgfiifmwxxqsvzInNUOUOOwwwAEIBFCAvjvLBlegIBInbfhoUHHHH",
"HHHHVQIFFghfgfgkjijhjlvsoyvKqwruotsxBdaadJJyExcbeabbrIFBjooyHHHH",
"HHHHQOyBJgkkffhiikikiihhhjqrFvrqtusBbaaaaaIrCybbccabcnGMropCHHHH",
"HHHHVQBLKtuzxnqlhtyukkiflwQUUsrsomvcaaaabaabbvrnnicbalnMMtpuHHHH",
"HHHHQGGJKsswAwKKEKQGGligyMVUOwqApgaraacacaaabaegenvbcdcIMLmoHHHH",
"HHHHSLOMIyyADwsutLRBxDhzSVyTOxxjaaabadjbcaaaaaadnbejcdjlMVnpHHHH",
"HHHHQMvdbbnGLzqssJVyQKxDOMxzKJNdabecabyBaaaaaabbvbcvddflQQqoHHHH",
"HHHHUqcfdcbcBLApqyVDKvpwqxzpyrPabgIaaeBBaarbbadeBccgcdgdOLpmHHHH",
"HHHHMddgdcjcbvKApsDoqslkmvLqoJgbgIraaBFDaaMcccdgDcceldeBKzvsHHHH",
"HHHHMbeeefvlapASUxMpoxllmuJxpEebDBvaavtnaaMfccdmIlcejdnKOsuEHHHH",
"HHHHMbegfhMBbdGSUQqlqqmmlmCxpEyjIDjabvtjabNdbdgLPecdidnDOswxHHHH",
"HHHHgbrgceITbcxMKzGElpvpmopJyAvvDBnbdvvdaezzwAFCGndkoepAOvxAHHHH",
"HHHHybQubePQLbrKxwAJAmommlowEMMGNpPcMyyrbBytqvtxzgjilflAKtutHHHH",
"HHHHbeGLrbjQEvlFCvBDFzktkmlqvLQCxONrDsxIcDxttttwAvehkivSqquAHHHH",
"HHHHcbMDBbclKIcQGwGGLQvspmllmARAECvIFopLrCtutusuEvhikorSqnsJHHHH",
"HHHHgbBKKBcyGQGDOzGAVSOAskmoosCGNVULCqxOsFuwuuwwzBikmmiFpszQHHHH",
"HHHHIebBKLDdFJLAwDKxODzQFtmmoostIOVnrwtxEuwvwwOBvvkikmiElCMMHHHH",
"HHHHKvejCUQxrCOvzLJpqopFVPpmompmkEODqqswwvxwwzVVQLqilsmjzJDMHHHH",
"HHHHFLlmDUNqOxLKwyyqltpJVVStqooomwuvEzllswxvvvUVVUqlkkhqFMMQHHHH",
"HHHHUQIvITKulwwBUSUkhhikEMVypomqqsqvOKFylpkzwxUVVUplfihCJQSBHHHH",
"HHHHVPPBNFEtoqqzESVphhkpxnLLMkrvLswAKUVSOqtoxuOSTTuprliiAQQQHHHH",
"HHHHOQQONKKyowpAOMVQyhmsoqqtALJQQQwsqzRRMMrwsxKQQILUOjjjiCOKHHHH",
"HHHHUBVNKJKyqtqqEQVQNqhlqosoxvSSVVPEzvNPMMMrqxtJTTyNBrihhjKIHHHH",
"HHHHVVVUUTTODqoqEIQRRNuikikowswQQTTTUUOKORMKwtutFJJJBBmiihmFHHHH",
"HHHHVVVVVVVVTwkqCNQVVVSOCljikwxNTTVVVVTTTRPOqmwwvCUUTVzhihhjHHHH",
"HHHHVVVVVVVRRQrpvPVVVRQQPLlgikpyJQSSVQRRTRPLqqlsupRVVVQMytuMHHHH",
"HHHHVVVVVVVVVRBmvvRVVVTVVVIriimkvIFULLPMVVQNzpmqskSVVVVVQPQRHHHH",
"HHHHVVVVVVVVVVQxqhQVVVVVVSOLxlihhiizTLIVVVRVQCrqqvTVVVVVQVVQHHHH",
"HHHHVVVVVVVVVMQQMGRVVVVVVQMQNMLohiiioxLMVVRVTVQTFrrVMVVVVRMVHHHH",
"HHHHVVVVVVVVVVVVVVVVVVVVVVVVVRSSOPNOOvvTVVVVVTTVVNIQVVVVVVVVHHHH",
"HHHHHHHHHHHHHHHHHHHHHHHHHHHHHHHHHHHHHHHHHHHHHHHHHHHHHHHHHHHHHHHH",
"HHHHHHHHHHHHHHHHHHHHHHHHHHHHHHHHHHHHHHHHHHHHHHHHHHHHHHHHHHHHHHHH",
"HHHHHHHHHHHHHHHHHHHHHHHHHHHHHHHHHHHHHHHHHHHHHHHHHHHHHHHHHHHHHHHH",
"HHHHHHHHHHHHHHHHHHHHHHHHHHHHHHHHHHHHHHHHHHHHHHHHHHHHHHHHHHHHHHHH"
};
