/* XPM */
static char * patronus_02[] = {
"64 64 15 1",
"a c #EBFAFF",
"b c #A0DCFF",
"c c #509AF0",
"d c #4C93EA",
"e c #468AE1",
"f c #4487DE",
"g c #3E7DD5",
"h c #3C7BD3",
"i c #3B78D0",
"j c #3671CA",
"k c #326BC4",
"l c #3169C2",
"m c #3067C0",
"n c #2E64BD",
"o c #FF00FF",
"oooooooooooooooooooooooooooooooooooooooooooooooooooooooooooooooo",
"oooooooooooooooooooooooooooooooooooooooooooooooooooooooooooooooo",
"oooooooooooooooooooooooonlklnooooooooonlklnooooooooooooooooooooo",
"ooooooooooooooooooooooomjihijmooooooomjihijmoooooooooooooooooooo",
"oooooooooooooooooooooonjgfefgjnooooonjgfefgjnooooooooooooooooooo",
"ooooooooooooooooooooomjifdcdfilooooolifdcdfijmoooooooooooooooooo",
"oooooooooooooooooooonjgfecacehkoooonkhecacefgjnooooooooooooooooo",
"oooooooooooooooooooolifdccacegjmoomjigecaccdfilooooooooooooooooo",
"ooooooooooooooooooookhecacacdfgjnnjgfedcacacehkooooooooooooooooo",
"oooooooooooooooooooolifdcacacdfillifdccacacdfilooooooooooooooooo",
"oooooooooooooooooooonjgfdcaaacegjjgecaaaacdfgjnooooooooooooooooo",
"ooooooooooooooooooooomjgfdcaacdfiifdcaaacdfgjmoooooooooooooooooo",
"oooooooooooooooooooooomjgecaaacehhecaaaacegjmooooooooooooooooooo",
"ooooooooooooooooooooooolifdcaaceggecaaacdfiloooooooooooooooooooo",
"ooooooooooooooooooooooonjgecaacdffdcacacegjnoooooooooooooooooooo",
"ooooooooooooooooooooooomjifdcaaceecaaccdfijmoooooooooooooooooooo",
"oooooooooooooooooooooonjgfeecaacddcaacefefgjnooooooooooooooooooo",
"oooooooooooooooooooooolifdcddcaaccaacdfdcdfilooooooooooooooooooo",
"ooooooooooooooooooooookhecbcbcaabbaacddcbcehkooooooooooooooooooo",
"oooooooooooooooooooooolifdcbccbbbbbbbccbcdfilooooooooooooooooooo",
"oooooooooooooooooooooonjgecbbbbbaaabbbbbcegjnooooooooooooooooooo",
"ooooooooooooooooooooooolifdcbbbaaaaabbbcdfiloooooooooooooooooooo",
"oooooooooooooooooooooonljgecbbaaaaaaabbcegjnoooooooooooooooooooo",
"ooooooooooooooooooooomjigfdcbbaaaaaaabbcehkooooooooooooooooooooo",
"oooooooooooooooooooonjgfedcbbbaaaaaaabbcehkooooooooooooooooooooo",
"oooooooooooooooooooolifdccbbbbbaaaaabbbcehkooooooooooooooooooooo",
"ooooooooooooooooooookhbcbbbbbbbbaaabbbcdfikklnoooooooooooooooooo",
"ooooooooooooooooooookhecbbbbbbbbbbbbbcdfghhhijlnoooooooooooooooo",
"oooooooooooooooooooolifdcbbbbbbbbbbbcdfeeeeebgijmooooooooooooooo",
"ooooooooooooooooooooajgecbbbbbbbbbccdedcccccdefgjmoooooooooooooo",
"oooooooooooooooooooaaagecbbbbbbbbbbbcccbbbbbccdfgjmlklnooooooooo",
"ooooooooooooooooooomagfdccbbbbbbbbbbbbbbbbbbbbcdfgjihijmoooooooo",
"oooooooooooooooooomjgfdcbbbbbbbbbbbbbbbbbbbbbbbcdfgfefgjnooooooo",
"ooooooooooooooooonjgfdcbbbbbbbbbbbbbbbbbbbbbbbbbcdedcdfilooooooo",
"ooooooooooooooooolifdcbbbbaabbbaaabbbbbbbbbbbbbbbcccbcehkooooooo",
"oooooooooooooooonjgecbbbbbabbaaaaaaabbbbbbbbbbbbbbbbcdfilooooooo",
"oooooooooooooooolifdcbbbbbbbaaaaaaaabbbbbbbbbbbbbbbbcegjnooooooo",
"ooooooooooooooookhecbbbbbbbbabaaaaaaabbbbbbbbbabbbbcdfiloooooooo",
"ooooooooooooooookhecbbbbbbbbaaaaaaaaabbbbbbbbaaabbcdfgjnoooooooo",
"ooooooooooooooookhecbbbbbbbbaaabaaaaabbbbbbbbbabbbcegjmooooooooo",
"ooooooooooooooookhbcbbbbbbbbbaaaaaaabbbbbbbbbbbcbcdfiloooooooooo",
"ooooooooooooooookhecbbbbbbbbbaaaabaabbbbbbbbbbcdcdfgjnoooooooooo",
"oooooooooooooooolifdcbbbbbbbbbbaaaaabbbbbbbbccbfefgjmooooooooooo",
"oooooooooooooooonjgecbbbbbbbbbbbbbabbbbbbbbbcefghijmoooooooooooo",
"ooooooooooooooooolifdcbbbbbbbbbbbbbbaabbbbbcdfijklnooooooooooooo",
"ooooooooooooooooonjgfdcbbbbbbbbbbbbbabbbbbcdfgjnoooooooooooooooo",
"oooooooooooooooooomjgfdcbbbbbbbbbbbbbbaabbbcehkooooooooooooooooo",
"ooooooooooooooooooomjgecbbbbbbbbbbbbbbabbbbcehkooooooooooooooooo",
"ooooooooooooooooooookhecbbbcbbbbbbbbbbbcbbbcehkooooooooooooooooo",
"ooooooooooooooooooookhecbbbcbbbcccccbbbcbbbcehkooooooooooooooooo",
"ooooooooooooooooooookhecbbbcbbbceeecbbbcbbbcehkooooooooooooooooo",
"ooooooooooooooooooookhecbbbcbbbcehecbbbcbbbcehkooooooooooooooooo",
"ooooooooooooooooooookhecbbbcbbbcehecbbbcbbbcehkooooooooooooooooo",
"ooooooooooooooooooookhecbbbcbbbcehecbbbcbbbcehkooooooooooooooooo",
"ooooooooooooooooooookhecbbbcbbbcegecbbbcbbbcegjnoooooooooooooooo",
"ooooooooooooooooooookhecbbbcbbbcdfecbbbcbbbcdfiloooooooooooooooo",
"ooooooooooooooooooookhecbbbbbbbbceecbbbbbbbbcehkoooooooooooooooo",
"ooooooooooooooooooookhecbbbbbbbbceecbbbbbbbbcehkoooooooooooooooo",
"ooooooooooooooooooookhecbbbbbbbbceecbbbbbbbbcehkoooooooooooooooo",
"oooooooooooooooooooolifdccccccccdffdccccccccdfiloooooooooooooooo",
"oooooooooooooooooooonjgfeeeeeeeefggfeeeeeeeefgjnoooooooooooooooo",
"ooooooooooooooooooooomjihhhhhhhhijjihhhhhhhhijmooooooooooooooooo",
"oooooooooooooooooooooonlkkkkkkkklnnlkkkkkkkklnoooooooooooooooooo",
"oooooooooooooooooooooooooooooooooooooooooooooooooooooooooooooooo"
};
