/* XPM */
static char * patronus_00[] = {
"64 64 11 1",
"a c #EBFAFF",
"b c #A0DCFF",
"c c #4E97ED",
"d c #498FE6",
"e c #4284DB",
"f c #3F7FD7",
"g c #3874CD",
"h c #3671CA",
"i c #346EC7",
"j c #2F66BF",
"k c #FF00FF",
"kkkkkkkkkkkkkkkkkkkkkkkkkkkkkkkkkkkkkkkkkkkkkkkkkkkkkkkkkkkkkkkk",
"kkkkkkkkkkkkkkkkkkkkkkkkkkkkkkkkkkkkkkkkkkkkkkkkkkkkkkkkkkkkkkkk",
"kkkkkkkkkkkkkkkkkkkkkkkkkkkkkkkkkkkkkkkkkkkkkkkkkkkkkkkkkkkkkkkk",
"kkkkkkkkkkkkkkkkkkkkkkkkjihijkkkkkkkkkjihijkkkkkkkkkkkkkkkkkkkkk",
"kkkkkkkkkkkkkkkkkkkkkkkjgfefgjkkkkkkkjgfefgjkkkkkkkkkkkkkkkkkkkk",
"kkkkkkkkkkkkkkkkkkkkkkjifdcdfikkkkkkkifdcdfijkkkkkkkkkkkkkkkkkkk",
"kkkkkkkkkkkkkkkkkkkkkjgfecacehkkkkkkkhecacefgjkkkkkkkkkkkkkkkkkk",
"kkkkkkkkkkkkkkkkkkkkkifdccacegjkkkkjigecaccdfikkkkkkkkkkkkkkkkkk",
"kkkkkkkkkkkkkkkkkkkkkhecacacdfgjkkjgfedcacacehkkkkkkkkkkkkkkkkkk",
"kkkkkkkkkkkkkkkkkkkkkifdcacacdfikkifdccacacdfikkkkkkkkkkkkkkkkkk",
"kkkkkkkkkkkkkkkkkkkkkjgfdcaaacegjjgecaaaacdfgjkkkkkkkkkkkkkkkkkk",
"kkkkkkkkkkkkkkkkkkkkkkjgfdcaacdfiifdcaaacdfgjkkkkkkkkkkkkkkkkkkk",
"kkkkkkkkkkkkkkkkkkkkkkkjgecaaacehhecaaaacegjkkkkkkkkkkkkkkkkkkkk",
"kkkkkkkkkkkkkkkkkkkkkkkkifdcaaceggecaaacdfikkkkkkkkkkkkkkkkkkkkk",
"kkkkkkkkkkkkkkkkkkkkkkkkjgecaacdffdcacacegjkkkkkkkkkkkkkkkkkkkkk",
"kkkkkkkkkkkkkkkkkkkkkkkkjifdcaaceecaaccdfijkkkkkkkkkkkkkkkkkkkkk",
"kkkkkkkkkkkkkkkkkkkkkkkjgfeecaacddcaacefefgjkkkkkkkkkkkkkkkkkkkk",
"kkkkkkkkkkkkkkkkkkkkkkkifdcddcaaccaacdfdcdfikkkkkkkkkkkkkkkkkkkk",
"kkkkkkkkkkkkkkkkkkkkkkkhecbcbcaabbaacddcbcehkkkkkkkkkkkkkkkkkkkk",
"kkkkkkkkkkkkkkkkkkkkkkkifdcbccbbbbbbbccbcdfikkkkkkkkkkkkkkkkkkkk",
"kkkkkkkkkkkkkkkkkkkkkkkjgecbbbbbaaabbbbbcegjkkkkkkkkkkkkkkkkkkkk",
"kkkkkkkkkkkkkkkkkkkkkkkkifdcbbbaaaaabbbcdfikkkkkkkkkkkkkkkkkkkkk",
"kkkkkkkkkkkkkkkkkkkkkkkkjgecbbaaaaaaabbcegjkkkkkkkkkkkkkkkkkkkkk",
"kkkkkkkkkkkkkkkkkkkkkkjigfdcbbaaaaaaabbcehkkkkkkkkkkkkkkkkkkkkkk",
"kkkkkkkkkkkkkkkkkkkkkjgfedcbbbaaaaaaabbcehkkkkkkkkkkkkkkkkkkkkkk",
"kkkkkkkkkkkkkkkkkkkkkifdccbbbbbaaaaabbbcehkkkkkkkkkkkkkkkkkkkkkk",
"kkkkkkkkkkkkkkkkkkkkkhbcbbbbbbbbaaabbbcdfikkkkkkkkkkkkkkkkkkkkkk",
"kkkkkkkkkkkkkkkkkkkkkhecbbbbbbbbbbbbbcdfghhhijkkkkkkkkkkkkkkkkkk",
"kkkkkkkkkkkkkkkkkkkkkifdcbbbbbbbbbbbcdfeeeeebgijkkkkkkkkkkkkkkkk",
"kkkkkkkkkkkkkkkkkkkkkjgecbbbbbbbbbccdedcccccdefgjkkkkkkkkkkkkkkk",
"kkkkkkkkkkkkkkkkkkkkkjgecbbbbbbbbbbbcccbbbbbccdfgjkkkkkkkkkkkkkk",
"kkkkkkkkkkkkkkkkkkkkjgfdccbbbbbbbbbbbbbbbbbbbbcdfgjihijkkkkkkkkk",
"kkkkkkkkkkkkkkkkkkkjgfdcbbbbbbbbbbbbbbbbbbbbbbbcdfgfefgjkkkkkkkk",
"kkkkkkkkkkkkkkkkkkjgfdcbbbbbbbbbbbbbbbbbbbbbbbbbcdedcdfikkkkkkkk",
"kkkkkkkkkkkkkkkkkkifdcbbbbbbbbbaaabbbbbbbbbbbbbbbcccbcehkkkkkkkk",
"kkkkkkkkkkkkkkkkkjgecbbbbbbbbaaaaaaabbbbbbbbbbbbbbbbcdfikkkkkkkk",
"kkkkkkkkkkkkkkkkkifdcbbbbbbbbaaaaaaabbbbbbbbbbbbbbbbcegjkkkkkkkk",
"kkkkkkkkkkkkkkkkkhecbbbbbbbbaaaaaaaaabbbbbbbbbbbbbbcdfikkkkkkkkk",
"kkkkkkkkkkkkkkkkkhecbbbbbbbbaaaaaaaaabbbbbbbbbbbbbcdfgjkkkkkkkkk",
"kkkkkkkkkkkkkkkkkhecbbbbbbbbaaaaaaaaabbbbbbbbbbbbbcegjkkkkkkkkkk",
"kkkkkkkkkkkkkkkkkhbcbbbbbbbbbaaaaaaabbbbbbbbbbbcbcdfikkkkkkkkkkk",
"kkkkkkkkkkkkkkkkkhecbbbbbbbbbaaaaaaabbbbbbbbbbcdcdfgjkkkkkkkkkkk",
"kkkkkkkkkkkkkkkkkifdcbbbbbbbbbbaaabbbbbbbbbbccbfefgjkkkkkkkkkkkk",
"kkkkkkkkkkkkkkkkkjgecbbbbbbbbbbbbbbbbbbbbbbbcefghijkkkkkkkkkkkkk",
"kkkkkkkkkkkkkkkkkkifdcbbbbbbbbbbbbbbbbbbbbbcdfijkkkkkkkkkkkkkkkk",
"kkkkkkkkkkkkkkkkkkjgfdcbbbbbbbbbbbbbbbbbbbcdfgjkkkkkkkkkkkkkkkkk",
"kkkkkkkkkkkkkkkkkkkjgfdcbbbbbbbbbbbbbbbbbbbcehkkkkkkkkkkkkkkkkkk",
"kkkkkkkkkkkkkkkkkkkkjgecbbbbbbbbbbbbbbbcbbbcehkkkkkkkkkkkkkkkkkk",
"kkkkkkkkkkkkkkkkkkkkkhecbbbcbbbbbbbbbbbcbbbcehkkkkkkkkkkkkkkkkkk",
"kkkkkkkkkkkkkkkkkkkkkhecbbbcbbbcccccbbbcbbbcehkkkkkkkkkkkkkkkkkk",
"kkkkkkkkkkkkkkkkkkkkkhecbbbcbbbceeecbbbcbbbcehkkkkkkkkkkkkkkkkkk",
"kkkkkkkkkkkkkkkkkkkkkhecbbbcbbbcehecbbbcbbbcehkkkkkkkkkkkkkkkkkk",
"kkkkkkkkkkkkkkkkkkkkkhecbbbcbbbcehecbbbcbbbcehkkkkkkkkkkkkkkkkkk",
"kkkkkkkkkkkkkkkkkkkkkhecbbbcbbbcehecbbbcbbbcehkkkkkkkkkkkkkkkkkk",
"kkkkkkkkkkkkkkkkkkkkkhecbbbcbbbcegecbbbcbbbcegjkkkkkkkkkkkkkkkkk",
"kkkkkkkkkkkkkkkkkkkkkhecbbbcbbbcdfecbbbcbbbcdfikkkkkkkkkkkkkkkkk",
"kkkkkkkkkkkkkkkkkkkkkhecbbbbbbbbceecbbbbbbbbcehkkkkkkkkkkkkkkkkk",
"kkkkkkkkkkkkkkkkkkkkkhecbbbbbbbbceecbbbbbbbbcehkkkkkkkkkkkkkkkkk",
"kkkkkkkkkkkkkkkkkkkkkhecbbbbbbbbceecbbbbbbbbcehkkkkkkkkkkkkkkkkk",
"kkkkkkkkkkkkkkkkkkkkkifdccccccccdffdccccccccdfikkkkkkkkkkkkkkkkk",
"kkkkkkkkkkkkkkkkkkkkkjgfeeeeeeeefggfeeeeeeeefgjkkkkkkkkkkkkkkkkk",
"kkkkkkkkkkkkkkkkkkkkkkjihhhhhhhhijjihhhhhhhhijkkkkkkkkkkkkkkkkkk",
"kkkkkkkkkkkkkkkkkkkkkkkkkkkkkkkkkkkkkkkkkkkkkkkkkkkkkkkkkkkkkkkk",
"kkkkkkkkkkkkkkkkkkkkkkkkkkkkkkkkkkkkkkkkkkkkkkkkkkkkkkkkkkkkkkkk"
};
