/* XPM */
static char * patronus_01[] = {
"64 64 16 1",
"a c #EBFAFF",
"b c #A0DCFF",
"c c #519BF1",
"d c #4D95EC",
"e c #488DE4",
"f c #468AE1",
"g c #4081D9",
"h c #3F7FD7",
"i c #3E7DD5",
"j c #3A76CF",
"k c #3671C9",
"l c #356FC8",
"m c #346DC6",
"n c #326AC3",
"o c #2D63BC",
"p c #FF00FF",
"pppppppppppppppppppppppppppppppppppppppppppppppppppppppppppppppp",
"ppppppppppppppppppppppppppopppppppppppppoppppppppppppppppppppppp",
"ppppppppppppppppppppppponlklnoppppppponlklnopppppppppppppppppppp",
"ppppppppppppppppppppppomjihijmopppppomjihijmoppppppppppppppppppp",
"ppppppppppppppppppppponjgfefgjnpppppnjgfefgjnopppppppppppppppppp",
"ppppppppppppppppppppomjifdcdfilppppplifdcdfijmoppppppppppppppppp",
"ppppppppppppppppppppnjgfecacehkopponkhecacefgjnppppppppppppppppp",
"pppppppppppppppppppplifdccacegjmoomjigecaccdfilppppppppppppppppp",
"pppppppppppppppppppokhecacacdfgjnnjgfedcacacehkopppppppppppppppp",
"pppppppppppppppppppplifdcacacdfillifdccacacdfilppppppppppppppppp",
"ppppppppppppppppppppnjgfdcaaacegjjgecaaaacdfgjnppppppppppppppppp",
"ppppppppppppppppppppomjgfdcaacdfiifdcaaacdfgjmoppppppppppppppppp",
"pppppppppppppppppppppomjgecaaacehhecaaaacegjmopppppppppppppppppp",
"ppppppppppppppppppppppolifdcaaceggecaaacdfiloppppppppppppppppppp",
"pppppppppppppppppppppppnjgecaacdffdcacacegjnpppppppppppppppppppp",
"ppppppppppppppppppppppomjifdcaaceecaaccdfijmoppppppppppppppppppp",
"ppppppppppppppppppppppnjgfeecaacddcaacefefgjnppppppppppppppppppp",
"pppppppppppppppppppppplifdcddcaaccaacdfdcdfilppppppppppppppppppp",
"pppppppppppppppppppppokhecacbcaabbaacdacbcehkopppppppppppppppppp",
"pppppppppppppppppppppplifdcbccbbbbbbbccbcdfilppppppppppppppppppp",
"ppppppppppppppppppppppnjaecbbbbbaaabbbbbcegjnppppppppppppppppppp",
"ppppppppppppppppppppppolifdcbbbaaaaabbbcafiloppppppppppppppppppp",
"ppppppppppppppppppppponljgecbbaaaaaaabbcegjnpppppppppppppppppppp",
"ppppppppppppppppppppomjigfdcbbaaaaaaabbcehkopppppppppppppppppppp",
"ppppppppppppppppppppnjgfedcbbbaaaaaaabbcehkopppppppppppppppppppp",
"pppppppppppppppppppplifdccbbbbbaaaaabbbcehkopppppppppppppppppppp",
"pppppppppppppppppppokhbcbbbbbbbbaaabbbcdfikklnoppppppppppppppppp",
"pppppppppppppppppppokhecbbbbbbbbbbbbbcdfghhhijlnoppppppppppppppp",
"pppppppppppppppppppplifdcbbbbbbbbbbbcdfeeeeebgijmopppppppppppppp",
"ppppppppppppppppppppnjgecbbbbbbbbbccdedcccccdefgjmopoppppppppppp",
"pppppppppppppppppppomjgecbbbbbbbbbbbcccbbbbbccdfgjmlklnopppppppp",
"ppppppppppppppppppomjgfdccbbbbbbbbbbbbbbbbbbbbcdfgjihijmoppppppp",
"pppppppppppppppppomjgfdcbbbbbbbbbbbbbbbbbbbbbbbcdfgfefgjnppppppp",
"pppppppppppppppppnjgfdcbbbbbbbbbbbbbbbbbbbbbbbbbcdedcdfilppppppp",
"ppppppppppppppppblifdcbbbbbbbbbaaabbbbbbbbbbbbbbbcccbcehkopppppp",
"ppppppppppppppppnjgecbbbbbbbbaaaaaaabbbbbbbbbbbbbbbbcdfilppppppp",
"pppppppppppppppplifdcbbbbbbbbaaaaaaabbbbbbbbbbbbbbbbcegjnppppppp",
"pppppppppppppppokhecbbbbbbbbaaaaaaaaabbbbbbbbbbbbbbcdfiloppppppp",
"pppppppppppppppokhecbbbbbbbbaaaaaaaaabbbbbbbbbbbbbcdfgjnpppppppp",
"pppppppppppppppokhecbbbbbbbbaaaaaaaaabbbbbbbbbbbbbcegjmopppppppp",
"pppppppppppppppokhbcbbbbbbbbbaaaaaaabbbbbbbbbbbcbcdfiloppppppppp",
"pppppppppppppppokhecbbbbbbbbbaaaaaaabbbbbbbbbbcdcdfgjnpppppppppp",
"pppppppppppppppplifdcbbbbbbbbbbaaabbbbbbbbbbccbfefgjmopppppppppp",
"ppppppppppppppppnjgecbbbbbbbbbbbbbbbbbbbbbbbcefghijmoppppppppppp",
"ppppppppppppppppolifdcbbbbbbbbbbbbbbbbbbbbbcdfijklnopppppppppppp",
"pppppppppppppppppnjgfdcbbbbbbbbbbbbbbbbbbbcdfgjnoppppppppppppppp",
"pppppppppppppppppomjgfdcbbbbbbbbbbbbbbbbbbbcehkopppppppppppppppp",
"ppppppppppppppppppomjgecbbbbbbbbbbbbbbbcbbbcehkopppppppppppppppp",
"pppppppppppppppppppokhecbbbcbbbbbbbbbbbcbbbcehkopppppppppppppppp",
"pppppppppppppppppppokhecbbbcbbbcccccbbbcbbbcehkopppppppppppppppp",
"pppppppppppppppppppokhecbbbcbbbceeecbbbcbbbcehkopppppppppppppppp",
"pppppppppppppppppppokhecbbbcbbbcehecbbbcbbbcehkopppppppppppppppp",
"pppppppppppppppppppokhecbbbcbbbcehecbbbcbbbcehkopppppppppppppppp",
"pppppppppppppppppppokhecbbbcbbbcehecbbbcbbbcehkopppppppppppppppp",
"pppppppppppppppppppokhecbbbcbbbcegecbbbcbbbcegjnpppppppppppppppp",
"pppppppppppppppppppokhecbbbcbbbcdfecbbbcbbbcdfilpppppppppppppppp",
"pppppppppppppppppppokhecbbbbbbbbceecbbbbbbbbcehkoppppppppppppppp",
"pppppppppppppppppppokhecbbbbbbbbceecbbbbbbbbcehkoppppppppppppppp",
"pppppppppppppppppppokhecbbbbbbbbceecbbbbbbbbcehkoppppppppppppppp",
"pppppppppppppppppppplifdccccccccdffdccccccccdfilpppppppppppppppp",
"ppppppppppppppppppppnjgfeeeeeeeefggfeeeeeeeefgjnpppppppppppppppp",
"ppppppppppppppppppppomjihhhhhhhhijjihhhhhhhhijmopppppppppppppppp",
"ppppppppppppppppppppponlkkkkkkkklnnlkkkkkkkklnoppppppppppppppppp",
"ppppppppppppppppppppppppooooooooppppoooooooopppppppppppppppppppp"
};
